<?xml version="1.0" encoding="utf-8"?>
<!-- Generator: Adobe Illustrator 21.1.0, SVG Export Plug-In . SVG Version: 6.00 Build 0)  -->
<svg version="1.1" id="logo" xmlns="http://www.w3.org/2000/svg" xmlns:xlink="http://www.w3.org/1999/xlink" x="0px" y="0px"
	 viewBox="0 0 254 249" style="enable-background:new 0 0 254 249;" xml:space="preserve">
<style type="text/css">
	.st0{fill:#00FF6C;}
	.st1{display:none;fill:#00FF6C;}
</style>
<desc>Created with Sketch.</desc>
<g id="Rj_1_" transform="translate(-1.000000, 0.000000)">
	<g id="Outside_1_">
		<path id="Shape_3_" class="st0" d="M220.6,154.2V80.1c-1.2-6.9-2.9-8.3-8.1-12.5c-0.4-0.4-11-10.2-11-10.2s-8.9-10.2-15.2-14.5
			c-11.7-7.9-29.8-5.7-34.8-4.8c-10.4,1.2-15.5,6.9-17.6,10.4c-0.9,1.4-1.6,2.9-2.1,4.4c-0.6-0.4-1.2-0.6-1.7-1
			c-3.4-2.1-16.2-9.2-30.7-9.2c-12.1,0-37.9,3.5-42.1,4.1c-6.1,0.7-11.5,3.9-15.2,8.7c-5.2,7.2-5,15.7-3.6,22.2v71.2l0.3,1.5
			c0.8,4,2.5,7.8,4.9,11.2c4.2,5.8,15.4,16.1,15.4,16.1s9.8,10.7,16.5,15.2c4.9,3.3,10.7,5,16.6,4.9c9.9,0.1,19.2-3.9,25.8-11.2
			c5.2,3.9,11.5,6.3,18.1,6.8c2.2,8,8.1,14.4,16.6,17.7c4.2,1.6,8.6,2.4,13.1,2.5h1.1l1.7-0.1c22.7-2.9,38.9-14.6,46.8-33.1
			C219.3,172.1,220.9,163.2,220.6,154.2L220.6,154.2z M102.5,149.2l-16.8-13.3c2.1,13.6-7,21.8-18,21.8s-13.1-10.3-13.1-10.3V75.8
			c-3.6-13.1,4.7-13.5,4.7-13.5s28.4-3.9,40.1-3.9s22.6,7.1,22.6,7.1s15,7.4,15,27s-18.9,31.6-18.9,31.6c20.2,5.9,9.8,20.7,9.8,20.7
			C115.5,161.2,102.5,149.2,102.5,149.2L102.5,149.2z M144.2,173.3c-0.7,0.1-2,0.2-2.6,0.3c0,0-14.5,0.1-14.8-11.5
			c0,0-0.7-15.2,16.5-17.5c0,0,4.9-0.5,4.9-8.2V69.5c0,0,0.4-3.9-1-6.7c0,0-3.3-8.3,6.8-9.2c0,0,23.6-5,26,9.8v66.9
			C179.9,130.3,184,167,144.2,173.3L144.2,173.3z"/>
		<path id="Path_3_" class="st1" d="M144.2,173.3c-0.7,0.1-2,0.2-2.6,0.3c0,0-14.5,0.1-14.8-11.5c0,0-0.7-15.2,16.5-17.5
			c0,0,4.9-0.5,4.9-8.2V69.5c0,0,0.4-3.9-1-6.7c0,0-3.3-8.3,6.8-9.2c0,0,23.6-5,26,9.8v66.9C179.9,130.3,184,167,144.2,173.3
			L144.2,173.3z"/>
		<path id="Path_2_" class="st1" d="M102.5,149.2l-16.8-13.3c2.1,13.6-7,21.8-18,21.8s-13.1-10.3-13.1-10.3V75.8
			c-3.6-13.1,4.7-13.5,4.7-13.5s28.4-3.9,40.1-3.9s22.6,7.1,22.6,7.1s15,7.4,15,27s-18.9,31.6-18.9,31.6c20.2,5.9,9.8,20.7,9.8,20.7
			C115.5,161.2,102.5,149.2,102.5,149.2L102.5,149.2z"/>
		<path id="Shape_2_" class="st0" d="M85.8,88v20.2c0,0,20.2,0.5,20.2-11.8S85.8,88,85.8,88L85.8,88z"/>
	</g>
</g>
</svg>
