<?xml version="1.0" encoding="utf-8"?>
<!-- Generator: Adobe Illustrator 21.1.0, SVG Export Plug-In . SVG Version: 6.00 Build 0)  -->
<svg version="1.1" id="logo" xmlns="http://www.w3.org/2000/svg" xmlns:xlink="http://www.w3.org/1999/xlink" x="0px" y="0px"
	 viewBox="0 0 254 249" style="enable-background:new 0 0 254 249;" xml:space="preserve">
<style type="text/css">
	.st0{fill:#FFFFFF;}
	.st1{display:none;fill:#75D9B9;}
	.st2{display:none;}
	.st3{display:inline;}
	.st4{display:inline;fill:none;stroke:#FFFFFF;stroke-width:12;stroke-linecap:round;stroke-linejoin:round;}
	.st5{fill:none;stroke:#FFFFFF;stroke-width:12;stroke-linecap:round;stroke-linejoin:round;}
	.st6{display:inline;fill:none;stroke:#000000;stroke-width:12;stroke-linecap:round;stroke-linejoin:round;}
	.st7{display:inline;fill:none;stroke:#000000;stroke-width:6;stroke-linecap:round;stroke-linejoin:round;stroke-opacity:0.501;}
	.st8{fill:none;stroke:#000000;stroke-width:12;stroke-linecap:round;stroke-linejoin:round;}
	.st9{display:inline;fill:#FFFFFF;}
</style>
<desc>Created with Sketch.</desc>
<g id="Rj" transform="translate(-1.000000, 0.000000)">
	<g id="Outside">
		<path id="Shape" class="st0" d="M219.6,153.2V79.1c-1.2-6.9-2.9-8.3-8.1-12.5c-0.4-0.4-11-10.2-11-10.2s-8.9-10.2-15.2-14.5
			c-11.7-7.9-29.8-5.7-34.8-4.8c-10.4,1.2-15.5,6.9-17.6,10.4c-0.9,1.4-1.6,2.9-2.1,4.4c-0.6-0.4-1.2-0.6-1.7-1
			c-3.4-2.1-16.2-9.2-30.7-9.2c-12.1,0-37.9,3.5-42.1,4.1c-6.1,0.7-11.5,3.9-15.2,8.7c-5.2,7.2-5,15.7-3.6,22.2v71.2l0.3,1.5
			c0.8,4,2.5,7.8,4.9,11.2c4.2,5.8,15.4,16.1,15.4,16.1s9.8,10.7,16.5,15.2c4.9,3.3,10.7,5,16.6,4.9c9.9,0.1,19.2-3.9,25.8-11.2
			c5.2,3.9,11.5,6.3,18.1,6.8c2.2,8,8.1,14.4,16.6,17.7c4.2,1.6,8.6,2.4,13.1,2.5h1.1l1.7-0.1c22.7-2.9,38.9-14.6,46.8-33.1
			C218.3,171.1,219.9,162.2,219.6,153.2L219.6,153.2z M101.5,148.2l-16.8-13.3c2.1,13.6-7,21.8-18,21.8s-13.1-10.3-13.1-10.3V74.8
			c-3.6-13.1,4.7-13.5,4.7-13.5s28.4-3.9,40.1-3.9s22.6,7.1,22.6,7.1s15,7.4,15,27s-18.9,31.6-18.9,31.6c20.2,5.9,9.8,20.7,9.8,20.7
			C114.5,160.2,101.5,148.2,101.5,148.2L101.5,148.2z M143.2,172.3c-0.7,0.1-2,0.2-2.6,0.3c0,0-14.5,0.1-14.8-11.5
			c0,0-0.7-15.2,16.5-17.5c0,0,4.9-0.5,4.9-8.2V68.5c0,0,0.4-3.9-1-6.7c0,0-3.3-8.3,6.8-9.2c0,0,23.6-5,26,9.8v66.9
			C178.9,129.3,183,166,143.2,172.3L143.2,172.3z"/>
		<path id="Path" class="st1" d="M143.2,172.3c-0.7,0.1-2,0.2-2.6,0.3c0,0-14.5,0.1-14.8-11.5c0,0-0.7-15.2,16.5-17.5
			c0,0,4.9-0.5,4.9-8.2V68.5c0,0,0.4-3.9-1-6.7c0,0-3.3-8.3,6.8-9.2c0,0,23.6-5,26,9.8v66.9C178.9,129.3,183,166,143.2,172.3
			L143.2,172.3z"/>
		<path id="Path_1_" class="st1" d="M101.5,148.2l-16.8-13.3c2.1,13.6-7,21.8-18,21.8s-13.1-10.3-13.1-10.3V74.8
			c-3.6-13.1,4.7-13.5,4.7-13.5s28.4-3.9,40.1-3.9s22.6,7.1,22.6,7.1s15,7.4,15,27s-18.9,31.6-18.9,31.6c20.2,5.9,9.8,20.7,9.8,20.7
			C114.5,160.2,101.5,148.2,101.5,148.2L101.5,148.2z"/>
		<path id="Shape_1_" class="st0" d="M84.8,87v20.2c0,0,20.2,0.5,20.2-11.8S84.8,87,84.8,87L84.8,87z"/>
	</g>
</g>
<g id="Scene-1r1" class="st2">
	<g id="Layer122_0_FILL">
		<path class="st3" d="M254.1,249V0H0v249H254.1z"/>
		
			<animate  accumulate="none" additive="replace" attributeName="display" calcMode="linear" dur="0.695s" fill="freeze" keyTimes="0;.976;1" repeatCount="1" restart="always" values="none;inline;inline">
			</animate>
	</g>
	<g id="Layer121_0_FILL" class="st3">
		<path d="M254.1,249V0H0v249H254.1z"/>
		
			<animate  accumulate="none" additive="replace" attributeName="display" calcMode="linear" dur="0.695s" fill="freeze" keyTimes="0;.976;1" repeatCount="1" restart="always" values="inline;none;none">
			</animate>
	</g>
	<g>
		<path id="Layer120_0_1_STROKES" class="st4" d="M235.9,14.6l0.7-0.7 M14.3,16v-0.7"/>
		
			<animate  accumulate="none" additive="replace" attributeName="display" calcMode="linear" dur="0.695s" fill="freeze" keyTimes="0;.61;.634;1" repeatCount="1" restart="always" values="none;inline;none;none">
			</animate>
	</g>
	<g>
		<path id="Layer119_0_1_STROKES" class="st4" d="M14.3,15.3l0.5,1.3 M233.3,17.3l3.3-3.4"/>
		
			<animate  accumulate="none" additive="replace" attributeName="display" calcMode="linear" dur="0.695s" fill="freeze" keyTimes="0;.585;.61;1" repeatCount="1" restart="always" values="none;inline;none;none">
			</animate>
	</g>
	<g>
		<path id="Layer118_0_1_STROKES" class="st4" d="M14.3,15.3l1.9,3 M225.4,25.3l11.2-11.4"/>
		
			<animate  accumulate="none" additive="replace" attributeName="display" calcMode="linear" dur="0.695s" fill="freeze" keyTimes="0;.561;.585;1" repeatCount="1" restart="always" values="none;inline;none;none">
			</animate>
	</g>
	<g>
		<path id="Layer117_0_1_STROKES" class="st4" d="M14.3,15.3l4,5.6 M213.7,37.4l23-23.5"/>
		
			<animate  accumulate="none" additive="replace" attributeName="display" calcMode="linear" dur="0.695s" fill="freeze" keyTimes="0;.537;.561;1" repeatCount="1" restart="always" values="none;inline;none;none">
			</animate>
	</g>
	<g>
		<path id="Layer116_0_1_STROKES" class="st4" d="M14.3,15.3l5.3,7.3 M205.8,45.4l30.8-31.5"/>
		
			<animate  accumulate="none" additive="replace" attributeName="display" calcMode="linear" dur="0.695s" fill="freeze" keyTimes="0;.512;.537;1" repeatCount="1" restart="always" values="none;inline;none;none">
			</animate>
	</g>
	<g>
		<path id="Layer115_0_1_STROKES" class="st4" d="M20.1,23.2l-5.8-7.8 M203.2,48.1l33.4-34.2"/>
		
			<animate  accumulate="none" additive="replace" attributeName="display" calcMode="linear" dur="0.695s" fill="freeze" keyTimes="0;.488;.512;1" repeatCount="1" restart="always" values="none;inline;none;none">
			</animate>
	</g>
	<g>
		<path id="Layer114_0_1_STROKES" class="st4" d="M15,16.1l6,8.1 M202.8,48.5l32.4-33.1"/>
		
			<animate  accumulate="none" additive="replace" attributeName="display" calcMode="linear" dur="0.695s" fill="freeze" keyTimes="0;.463;.488;1" repeatCount="1" restart="always" values="none;inline;none;none">
			</animate>
	</g>
	<g>
		<path id="Layer113_0_1_STROKES" class="st4" d="M201.6,49.8l29.4-30 M17,18.4l6.7,8.9"/>
		
			<animate  accumulate="none" additive="replace" attributeName="display" calcMode="linear" dur="0.695s" fill="freeze" keyTimes="0;.439;.463;1" repeatCount="1" restart="always" values="none;inline;none;none">
			</animate>
	</g>
	<g>
		<path id="Layer112_0_1_STROKES" class="st4" d="M199.5,52l24.3-24.8 M20.3,22.4l7.8,10.3"/>
		
			<animate  accumulate="none" additive="replace" attributeName="display" calcMode="linear" dur="0.695s" fill="freeze" keyTimes="0;.415;.439;1" repeatCount="1" restart="always" values="none;inline;none;none">
			</animate>
	</g>
	<g>
		<path id="Layer111_0_1_STROKES" class="st4" d="M196.8,54.9l17.8-18 M24.7,27.5l9.3,12.1"/>
		
			<animate  accumulate="none" additive="replace" attributeName="display" calcMode="linear" dur="0.695s" fill="freeze" keyTimes="0;.39;.415;1" repeatCount="1" restart="always" values="none;inline;none;none">
			</animate>
	</g>
	<g>
		<path id="Layer110_0_1_STROKES" class="st4" d="M194.7,57l12.7-12.8 M28,31.4l10.4,13.5"/>
		
			<animate  accumulate="none" additive="replace" attributeName="display" calcMode="linear" dur="0.695s" fill="freeze" keyTimes="0;.366;.39;1" repeatCount="1" restart="always" values="none;inline;none;none">
			</animate>
	</g>
	<g>
		<path id="Layer109_0_1_STROKES" class="st4" d="M193.4,58.3l9.7-9.6 M30,33.8l11,14.3"/>
		
			<animate  accumulate="none" additive="replace" attributeName="display" calcMode="linear" dur="0.695s" fill="freeze" keyTimes="0;.341;.366;1" repeatCount="1" restart="always" values="none;inline;none;none">
			</animate>
	</g>
	<g>
		<path id="Layer108_0_1_STROKES" class="st4" d="M193,58.8l8.7-8.5 M30.7,34.5l11.3,14.6"/>
		
			<animate  accumulate="none" additive="replace" attributeName="display" calcMode="linear" dur="0.695s" fill="freeze" keyTimes="0;.317;.341;1" repeatCount="1" restart="always" values="none;inline;none;none">
			</animate>
	</g>
	<g>
		<path id="Layer107_0_1_STROKES" class="st4" d="M193,58.8l8.6-8.5 M30.9,34.8L42,49.2"/>
		
			<animate  accumulate="none" additive="replace" attributeName="display" calcMode="linear" dur="0.695s" fill="freeze" keyTimes="0;.293;.317;1" repeatCount="1" restart="always" values="none;inline;none;none">
			</animate>
	</g>
	<g>
		<path id="Layer106_0_1_STROKES" class="st4" d="M192.8,59.1l8.6-8.4 M31.4,35.5l10.8,14"/>
		
			<animate  accumulate="none" additive="replace" attributeName="display" calcMode="linear" dur="0.695s" fill="freeze" keyTimes="0;.268;.293;1" repeatCount="1" restart="always" values="none;inline;none;none">
			</animate>
	</g>
	<g>
		<path id="Layer105_0_1_STROKES" class="st4" d="M192.6,59.4l8.4-8.2 M32.4,36.6l10.3,13.3"/>
		
			<animate  accumulate="none" additive="replace" attributeName="display" calcMode="linear" dur="0.695s" fill="freeze" keyTimes="0;.244;.268;1" repeatCount="1" restart="always" values="none;inline;none;none">
			</animate>
	</g>
	<g>
		<path id="Layer104_0_1_STROKES" class="st4" d="M192.2,59.8l8-7.9 M33.8,38.2l9.6,12.4"/>
		
			<animate  accumulate="none" additive="replace" attributeName="display" calcMode="linear" dur="0.695s" fill="freeze" keyTimes="0;.22;.244;1" repeatCount="1" restart="always" values="none;inline;none;none">
			</animate>
	</g>
	<g>
		<path id="Layer103_0_1_STROKES" class="st4" d="M191.7,60.4l7.7-7.5 M35.5,40.2l8.6,11.1"/>
		
			<animate  accumulate="none" additive="replace" attributeName="display" calcMode="linear" dur="0.695s" fill="freeze" keyTimes="0;.195;.22;1" repeatCount="1" restart="always" values="none;inline;none;none">
			</animate>
	</g>
	<g>
		<path id="Layer102_0_1_STROKES" class="st4" d="M191.2,61.2l7.2-7 M37.6,42.7l7.4,9.6"/>
		
			<animate  accumulate="none" additive="replace" attributeName="display" calcMode="linear" dur="0.695s" fill="freeze" keyTimes="0;.171;.195;1" repeatCount="1" restart="always" values="none;inline;none;none">
			</animate>
	</g>
	<g>
		<path id="Layer101_0_1_STROKES" class="st4" d="M190.6,62l6.6-6.5 M40.1,45.6l6.1,7.9"/>
		
			<animate  accumulate="none" additive="replace" attributeName="display" calcMode="linear" dur="0.695s" fill="freeze" keyTimes="0;.146;.171;1" repeatCount="1" restart="always" values="none;inline;none;none">
			</animate>
	</g>
	<g>
		<path id="Layer100_0_1_STROKES" class="st4" d="M190,62.8l6.1-6.1 M42.2,48.1l4.9,6.3"/>
		
			<animate  accumulate="none" additive="replace" attributeName="display" calcMode="linear" dur="0.695s" fill="freeze" keyTimes="0;.122;.146;1" repeatCount="1" restart="always" values="none;inline;none;none">
			</animate>
	</g>
	<g>
		<path id="Layer99_0_1_STROKES" class="st4" d="M189.5,63.4l5.8-5.7 M44,50.1l3.9,5.1"/>
		
			<animate  accumulate="none" additive="replace" attributeName="display" calcMode="linear" dur="0.695s" fill="freeze" keyTimes="0;.098;.122;1" repeatCount="1" restart="always" values="none;inline;none;none">
			</animate>
	</g>
	<g>
		<path id="Layer98_0_1_STROKES" class="st4" d="M189.1,63.9l5.4-5.4 M45.3,51.7l3.2,4.1"/>
		
			<animate  accumulate="none" additive="replace" attributeName="display" calcMode="linear" dur="0.695s" fill="freeze" keyTimes="0;.073;.098;1" repeatCount="1" restart="always" values="none;inline;none;none">
			</animate>
	</g>
	<g>
		<path id="Layer97_0_1_STROKES" class="st4" d="M188.9,64.2l5.2-5.1 M46.2,52.9l2.6,3.4"/>
		
			<animate  accumulate="none" additive="replace" attributeName="display" calcMode="linear" dur="0.695s" fill="freeze" keyTimes="0;.049;.073;1" repeatCount="1" restart="always" values="none;inline;none;none">
			</animate>
	</g>
	<g>
		<path id="Layer96_0_1_STROKES" class="st4" d="M188.7,64.4l5.2-5 M46.8,53.6l2.3,3"/>
		
			<animate  accumulate="none" additive="replace" attributeName="display" calcMode="linear" dur="0.695s" fill="freeze" keyTimes="0;.024;.049;1" repeatCount="1" restart="always" values="none;inline;none;none">
			</animate>
	</g>
	<g class="st3">
		<path id="Layer95_0_1_STROKES" class="st5" d="M188.7,64.5l5.1-5 M49.2,56.6L47,53.8"/>
		
			<animate  accumulate="none" additive="replace" attributeName="display" calcMode="linear" dur="0.695s" fill="freeze" keyTimes="0;.024;1" repeatCount="1" restart="always" values="inline;none;none">
			</animate>
	</g>
	<g id="Layer68_0_FILL">
		<path class="st3" d="M183.6,48.8v-5.7L42.7,55.9l-10.2,92.6l1.5-5.7l14.5,25.6l20.3,8.5h138L183.6,48.8z"/>
		<path id="Layer68_0_1_STROKES" class="st6" d="M183.6,48.8h1.5l23,132.5l0.3,1.4l-34.9-1.4L68.8,177l-20.3-8.5l-14.5-25.6"/>
		
			<animate  accumulate="none" additive="replace" attributeName="display" calcMode="linear" dur="0.695s" fill="freeze" keyTimes="0;.341;1" repeatCount="1" restart="always" values="none;inline;inline">
			</animate>
	</g>
	<g id="Layer67_0_FILL">
		<path class="st3" d="M183.6,48.8v-5.7L42.7,54.9l-10.2,93.6l1.5-5.7l14.5,25.6l20.3,8.5h138l-2.8-16.1c-1-5.3-1.9-10.7-2.9-16
			C195.3,112.9,189.5,80.8,183.6,48.8z"/>
		<path id="Layer67_0_1_STROKES" class="st6" d="M183.6,48.8c5.9,32,11.7,64.1,17.6,96.1c1,5.3,2,10.7,2.9,16l4.2,21.7L68.8,177h138
			l-2.7-16"/>
		
			<animate  accumulate="none" additive="replace" attributeName="display" calcMode="linear" dur="0.695s" fill="freeze" keyTimes="0;.317;.341;1" repeatCount="1" restart="always" values="none;inline;none;none">
			</animate>
	</g>
	<g id="Layer66_0_FILL">
		<path class="st3" d="M183.6,48.8v-5.7L42.7,53.8l-10.2,94.7l1.5-5.7l14.5,25.6l20.3,8.5h138l-2.8-16.1c-1-5.3-1.9-10.7-2.9-16
			C195.3,112.9,189.5,80.8,183.6,48.8z"/>
		<path id="Layer66_0_1_STROKES" class="st6" d="M183.6,48.8c5.9,32,11.7,64.1,17.6,96.1c1,5.3,2,10.7,2.9,16l4.2,21.7L68.8,177h138
			l-2.7-16"/>
		
			<animate  accumulate="none" additive="replace" attributeName="display" calcMode="linear" dur="0.695s" fill="freeze" keyTimes="0;.293;.317;1" repeatCount="1" restart="always" values="none;inline;none;none">
			</animate>
	</g>
	<g id="Layer65_0_FILL">
		<path class="st3" d="M183.6,48.8v-5.7L42.7,52.7l-10.2,95.8l1.5-5.7l14.5,25.6l20.3,8.5h138l-2.8-16.1c-1-5.3-1.9-10.7-2.9-16
			C195.3,112.9,189.5,80.8,183.6,48.8z"/>
		<path id="Layer65_0_1_STROKES" class="st6" d="M183.6,48.8c5.9,32,11.7,64.1,17.6,96.1c1,5.3,2,10.7,2.9,16l4.2,21.7L68.8,177h138
			l-2.7-16"/>
		
			<animate  accumulate="none" additive="replace" attributeName="display" calcMode="linear" dur="0.695s" fill="freeze" keyTimes="0;.268;.293;1" repeatCount="1" restart="always" values="none;inline;none;none">
			</animate>
	</g>
	<g id="Layer64_0_FILL">
		<path class="st3" d="M183.6,48.8v-5.7L42.7,51.6l-10.2,96.8l1.5-5.7l14.5,25.6l20.3,8.5h138L183.6,48.8z"/>
		<path id="Layer64_0_1_STROKES" class="st6" d="M183.6,48.8h1.5l23,132.5l0.3,1.4l-34.9-1.4L68.8,177l-20.3-8.5l-14.5-25.6"/>
		
			<animate  accumulate="none" additive="replace" attributeName="display" calcMode="linear" dur="0.695s" fill="freeze" keyTimes="0;.244;.268;1" repeatCount="1" restart="always" values="none;inline;none;none">
			</animate>
	</g>
	<g id="Layer63_0_FILL">
		<path class="st3" d="M206.6,177h0.3l-2-12L206.6,177 M186.9,49.1v-5.7L42.7,50.6l-10.2,97.9l1.5-5.7l14.5,25.6l20.3,8.5h137.8
			l-1.7-12L186.9,49.1z"/>
		<path id="Layer63_0_1_STROKES" class="st6" d="M186.9,49.1l1.4,0L208,181.3l0,1.5L68.8,177h137.8l-1.7-12L186.9,49.1z"/>
		
			<animate  accumulate="none" additive="replace" attributeName="display" calcMode="linear" dur="0.695s" fill="freeze" keyTimes="0;.22;.244;1" repeatCount="1" restart="always" values="none;inline;none;none">
			</animate>
	</g>
	<g id="Layer62_0_FILL">
		<path class="st3" d="M190.2,49.3L190.2,49.3L190.2,49.3v-5.8L42.7,49.6l-10.2,98.9l1.5-5.7l14.5,25.6l20.3,8.5h137.5L190.2,49.3z"
			/>
		<path id="Layer62_0_1_STROKES" class="st6" d="M68.8,177h137.5L190.2,49.3h0 M68.8,177l139,5.7l0.3-1.2L191.6,49.2l-1.4,0.1"/>
		
			<animate  accumulate="none" additive="replace" attributeName="display" calcMode="linear" dur="0.695s" fill="freeze" keyTimes="0;.195;.22;1" repeatCount="1" restart="always" values="none;inline;none;none">
			</animate>
	</g>
	<g id="Layer61_0_FILL">
		<path class="st3" d="M206.1,177h0.8l-4-35.9L206.1,177 M193.5,49.5v-5.7L42.7,48.6l-10.2,99.9l1.5-5.7l14.5,25.6l20.3,8.5h137.3
			l-3.2-35.9L193.5,49.5z"/>
		<path id="Layer61_0_1_STROKES" class="st6" d="M193.5,49.5l1.4,0l13.1,132.3l-0.6,0.9L68.8,177h137.3l-3.2-35.9L193.5,49.5z"/>
		
			<animate  accumulate="none" additive="replace" attributeName="display" calcMode="linear" dur="0.695s" fill="freeze" keyTimes="0;.171;.195;1" repeatCount="1" restart="always" values="none;inline;none;none">
			</animate>
	</g>
	<g id="Layer60_0_FILL">
		<path class="st3" d="M205.9,177h1l-4-47.8L205.9,177 M196.9,49.7V44L42.7,47.6L32.5,148.5l1.5-5.7l14.5,25.6l20.3,8.5h137.1
			l-3.1-47.8L196.9,49.7z"/>
		<path id="Layer60_0_1_STROKES" class="st6" d="M196.9,49.7l1.4,0l9.8,132.3l-0.8,0.7L68.8,177h137.1l-3.1-47.8L196.9,49.7z"/>
		
			<animate  accumulate="none" additive="replace" attributeName="display" calcMode="linear" dur="0.695s" fill="freeze" keyTimes="0;.146;.171;1" repeatCount="1" restart="always" values="none;inline;none;none">
			</animate>
	</g>
	<g id="Layer59_0_FILL">
		<path class="st3" d="M205.6,177h1.2l-3.6-63.6L205.6,177 M200.2,49.8v-5.7L42.7,46.6L32.5,148.5l1.5-5.7l14.5,25.6l20.3,8.5h136.8
			l-2.4-63.6L200.2,49.8z"/>
		<path id="Layer59_0_1_STROKES" class="st6" d="M200.2,49.8h1.5l6.5,132.4l-1.1,0.5L68.8,177 M203.2,113.4l-3-63.6 M68.8,177h136.8
			l-2.4-63.6"/>
		
			<animate  accumulate="none" additive="replace" attributeName="display" calcMode="linear" dur="0.695s" fill="freeze" keyTimes="0;.122;.146;1" repeatCount="1" restart="always" values="none;inline;none;none">
			</animate>
	</g>
	<g id="Layer58_0_FILL">
		<path class="st3" d="M205.4,177h1.5l-2-63.5L205.4,177 M203.5,50.1v-5.7L42.7,45.6L32.5,148.5l1.5-5.7l14.5,25.6l20.3,8.5h136.5
			l-0.5-63.5L203.5,50.1z"/>
		<path id="Layer58_0_1_STROKES" class="st6" d="M203.5,50.1l1.4,0l3.3,132.4l-1.5,0.2l-138-5.6h136.5l-0.5-63.5L203.5,50.1z"/>
		
			<animate  accumulate="none" additive="replace" attributeName="display" calcMode="linear" dur="0.695s" fill="freeze" keyTimes="0;.098;.122;1" repeatCount="1" restart="always" values="none;inline;none;none">
			</animate>
	</g>
	<g id="Layer57_0_FILL">
		<path class="st3" d="M206.8,50.2v-5.7H42.7l-10.2,104l1.5-5.7l14.5,25.6l20.3,8.5h138V50.2z"/>
		<path id="Layer57_0_1_STROKES" class="st6" d="M206.8,50.2h1.5v132.5l-34.9-1.4L68.8,177l-20.3-8.5l-14.5-25.6"/>
		
			<animate  accumulate="none" additive="replace" attributeName="display" calcMode="linear" dur="0.695s" fill="freeze" keyTimes="0;.073;.098;1" repeatCount="1" restart="always" values="none;inline;none;none">
			</animate>
	</g>
	<g id="Layer56_0_FILL">
		<path class="st3" d="M206.8,50.2v-5.7H32.5v104l1.5-5.7l14.5,25.6l20.3,8.5h138V50.2z"/>
		<path id="Layer56_0_1_STROKES" class="st6" d="M206.8,50.2h1.5v132.5l-34.9-1.4L68.8,177l-20.3-8.5l-14.5-25.6"/>
		
			<animate  accumulate="none" additive="replace" attributeName="display" calcMode="linear" dur="0.695s" fill="freeze" keyTimes="0;.049;.073;1" repeatCount="1" restart="always" values="none;inline;none;none">
			</animate>
	</g>
	<g>
		<path id="Layer55_0_1_STROKES" class="st7" d="M199.4,99.7l-1,65.3l-9.2,7.4l-41.8,6.7l-67.7-3.6l-12-3.3l-6.9-3.6l-13.6-15.3
			l-6.8-3.2l-0.1,0.1l-0.1-0.2l-0.7-0.4v-1.2c-0.4-31.3-0.7-62.6-1.1-93.9l61-8.5l15.2,2.9l38.3-2.9l0.3,0.1l2.5-1.6l33.8,1.6l1.6,2
			l8.7,37.5l-0.2,13.6V99.7z M153,46.1l17.9,10.5l3.6-9.3l14.3,57.1 M125.4,172.7l-25,2.1l-44-17.1l-9.4-4.5l-4.1-4.6l-2.7,1.4
			l-0.2-0.1l-0.7-1.5 M114.4,48.8l26.4,5l12.1-7.7 M188.8,104.5l2.7,10.9l-8.7,15.3l-53.8,41.7l-3.7,0.3 M38.3,54.5l76.2-5.7"/>
		<path id="Layer55_0_2_STROKES" class="st6" d="M199.4,99.3l0.2,0.3l-0.2,0.1 M199.4,99.3l-0.9-1.3l0,2l0.8-0.3 M188.8,104.5l2-1.9
			l7.7-2.7l0.3,19.9l-18.5,27.1l-33.9,31.2l-5.7-0.4l-15.4-4.9l-21.8-7l-47.1-45l57.2-8.5l39,7.8l13.3-9.3l15.3,0.8L188.8,104.5z"/>
		
			<animate  accumulate="none" additive="replace" attributeName="display" calcMode="linear" dur="0.695s" fill="freeze" keyTimes="0;.024;.049;1" repeatCount="1" restart="always" values="none;inline;none;none">
			</animate>
	</g>
	<g class="st3">
		<path id="Layer54_0_1_STROKES" class="st8" d="M44.1,64.5l2.2,86.2L79,172.7l73.4,8.5l37.1-13.5l2.9-87.6l-17.4-32.1l-34.1-3.6
			L134.9,63L98.6,47.4L44.1,64.5z"/>
		
			<animate  accumulate="none" additive="replace" attributeName="display" calcMode="linear" dur="0.695s" fill="freeze" keyTimes="0;.024;1" repeatCount="1" restart="always" values="inline;none;none">
			</animate>
	</g>
	<g id="Layer50_0_FILL">
		<path class="st9" d="M199.5,56.7c-1.5-1.7-3.2-3.6-5.2-5.6c-4-4.1-7.3-7-10-8.7c-5-3.4-11.7-5.3-19.9-5.7
			c-5.3-0.3-10.3,0-14.9,0.9c-4.6,0.5-8.6,2-11.9,4.3c-2.4,1.7-4.3,3.7-5.7,6c-0.9,1.4-1.6,2.9-2.1,4.4c-0.8-0.4-1.3-0.8-1.7-1
			c-3.3-2-7-3.8-11.2-5.3c-6.8-2.5-13.3-3.8-19.5-3.8c-5.1,0-13.1,0.6-24,1.8c-6.1,0.7-12.1,1.4-18.1,2.2c-3.1,0.4-5.9,1.3-8.5,2.8
			c-2.6,1.5-4.9,3.5-6.7,5.9c-2.4,3.3-3.8,7-4.2,11.3c-0.4,3.4-0.1,7,0.7,10.8v70.9l0.3,1.5c0.8,3.9,2.4,7.6,4.9,11.1
			c1.8,2.4,4.9,5.8,9.3,10.2c2.2,2.2,4.2,4.1,6.1,5.8l5.7,5.9c4.4,4.3,8,7.4,10.8,9.3c5.1,3.4,10.6,5,16.6,4.8
			c4.9,0,9.7-0.9,14.2-2.8c4.5-1.9,8.4-4.7,11.7-8.3c5.4,4,11.4,6.3,18.2,6.8c1.1,4,3.1,7.5,6,10.6c2.9,3,6.4,5.4,10.6,7
			c4.3,1.6,8.7,2.4,13.2,2.5l2.8-0.1c11.3-1.4,21-5,29-10.6c7.9-5.6,13.9-13.1,17.9-22.3c3.6-8.3,5.2-17,4.9-26.1V79.3
			c-0.5-3.2-1.4-5.6-2.5-7.2c-0.8-1.1-2.7-2.9-5.6-5.2C210.1,66.6,206.5,63.2,199.5,56.7 M120,64.9l2.4,1.5c1.9,1.3,3.6,2.9,5.2,4.7
			c5,5.7,7.5,12.6,7.5,20.7c0,8.1-3.1,15.8-9.4,23.1c-3.1,3.6-6.3,6.4-9.4,8.4c8.5,2.4,12.6,6.6,12.5,12.5c0,2.9-0.9,5.6-2.7,8.1
			c-5.2,6.7-11.1,9.5-17.5,8.2c-2-0.4-4-1.2-5.8-2.4l-19-14.9c1,6.5-0.3,11.8-4.1,16c-3.5,3.8-8.2,5.8-13.9,5.8
			c-4.6,0-8.2-1.7-10.7-5.1c-0.8-1.1-1.4-2.2-1.9-3.5l-0.5-1.6V75.1c-1.5-5.4-1.2-9.3,1-11.6c1.1-1.1,2.3-1.7,3.7-1.8
			c4.7-0.6,10-1.3,15.7-1.9c11.5-1.3,19.6-1.9,24.5-1.9c4.9,0,10.1,1.2,15.7,3.5C115.9,62.6,118.2,63.7,120,64.9 M146.1,68.8
			c0.1-0.6,0.1-1.4,0-2.3c-0.1-1.7-0.4-3.2-1-4.3c-0.6-1.4-0.7-2.8-0.4-4.2c0.6-2.9,3-4.5,7.2-4.9l3.7-0.5c3-0.3,5.8-0.4,8.4-0.1
			c8.3,0.8,12.9,4.2,13.9,10.4l0,72.4c-0.3,4.7-1.3,9.1-3,13.2c-5.3,13.2-16.2,21.1-32.8,23.7l-2.6,0.2c-2.4,0-4.9-0.4-7.3-1.4
			c-4.9-1.9-7.4-5.2-7.6-10c-0.1-2.5,0.5-5.1,1.8-7.8c2.6-5.4,7.6-8.6,14.7-9.5c0.8-0.1,1.6-0.5,2.4-1.2c1.6-1.4,2.4-3.8,2.4-7V68.8
			z"/>
		<path class="st9" d="M103.9,95.6c0-5.1-3.4-8-10.1-8.8c-2.1-0.2-4.4-0.2-7,0l-3.2,0.4v20.1l3.2-0.1c2.5-0.2,4.9-0.6,7-1.2
			C100.6,104.2,103.9,100.7,103.9,95.6z"/>
		<path class="st9" d="M199.3,56.9c-1.5-1.7-3.2-3.6-5.2-5.6c-4-4.1-7.3-7-10-8.7c-5-3.4-11.7-5.3-19.9-5.7
			c-5.3-0.3-10.3,0-14.9,0.9c-4.6,0.5-8.6,2-11.9,4.3c-2.4,1.7-4.3,3.7-5.7,6c-0.9,1.4-1.6,2.9-2.1,4.4c-0.8-0.4-1.3-0.8-1.7-1
			c-3.3-2-7-3.8-11.2-5.3c-6.8-2.5-13.3-3.8-19.5-3.8c-5.1,0-13.1,0.6-24,1.8C67,44.9,61,45.6,55,46.4c-3.1,0.4-5.9,1.3-8.5,2.8
			c-2.6,1.5-4.9,3.5-6.7,5.9c-2.4,3.3-3.8,7-4.2,11.3c-0.4,3.4-0.1,7,0.7,10.8v70.9l0.3,1.5c0.8,3.9,2.4,7.6,4.9,11.1
			c1.8,2.4,4.9,5.8,9.3,10.2c2.2,2.2,4.2,4.1,6.1,5.8l5.7,5.9c4.4,4.3,8,7.4,10.8,9.3c5.1,3.4,10.6,5,16.6,4.8
			c4.9,0,9.7-0.9,14.2-2.8c4.5-1.9,8.4-4.7,11.7-8.3c5.4,4,11.4,6.3,18.2,6.8c1.1,4,3.1,7.5,6,10.6c2.9,3,6.4,5.4,10.6,7
			c4.3,1.6,8.7,2.4,13.2,2.5l2.8-0.1c11.3-1.4,21-5,29-10.6c7.9-5.6,13.9-13.1,17.9-22.3c3.6-8.3,5.2-17,4.9-26.1V79.5
			c-0.5-3.2-1.4-5.6-2.5-7.2c-0.8-1.1-2.7-2.9-5.6-5.2C210,66.8,206.3,63.4,199.3,56.9 M119.8,65.1l2.4,1.5c1.9,1.3,3.6,2.9,5.2,4.7
			c5,5.7,7.5,12.6,7.5,20.7c0,8.1-3.1,15.8-9.4,23.1c-3.1,3.6-6.3,6.4-9.4,8.4c8.5,2.4,12.6,6.6,12.5,12.5c0,2.9-0.9,5.6-2.7,8.1
			c-5.2,6.7-11.1,9.5-17.5,8.2c-2-0.4-4-1.2-5.8-2.4l-19-14.9c1,6.5-0.3,11.8-4.1,16c-3.5,3.8-8.2,5.8-13.9,5.8
			c-4.6,0-8.2-1.7-10.7-5.1c-0.8-1.1-1.4-2.2-1.9-3.5l-0.5-1.6V75.3c-1.5-5.4-1.2-9.3,1-11.6c1.1-1.1,2.3-1.7,3.7-1.8
			c4.7-0.6,10-1.3,15.7-1.9c11.5-1.3,19.6-1.9,24.5-1.9c4.9,0,10.1,1.2,15.7,3.5C115.7,62.8,118,63.9,119.8,65.1 M145.9,69
			c0.1-0.6,0.1-1.4,0-2.3c-0.1-1.7-0.4-3.2-1-4.3c-0.6-1.4-0.7-2.8-0.4-4.2c0.6-2.9,3-4.5,7.2-4.9l3.7-0.5c3-0.3,5.8-0.4,8.4-0.1
			c8.3,0.8,12.9,4.2,13.9,10.4l0,72.4c-0.3,4.7-1.3,9.1-3,13.2c-5.3,13.2-16.2,21.1-32.8,23.7l-2.6,0.2c-2.4,0-4.9-0.4-7.3-1.4
			c-4.9-1.9-7.4-5.2-7.6-10c-0.1-2.5,0.5-5.1,1.8-7.8c2.6-5.4,7.6-8.6,14.7-9.5c0.8-0.1,1.6-0.5,2.4-1.2c1.6-1.4,2.4-3.8,2.4-7V69z"
			/>
		<path class="st9" d="M103.8,95.8c0-5.1-3.4-8-10.1-8.8c-2.1-0.2-4.4-0.2-7,0l-3.2,0.4v20.1l3.2-0.1c2.5-0.2,4.9-0.6,7-1.2
			C100.4,104.4,103.8,100.9,103.8,95.8z"/>
		<g transform="translate(175 175.5)" class="st3">
			<g id="Symbol-1">
				<path class="st0" d="M149.3,37.8c-4.6,0.5-8.6,2-11.9,4.3c-2.4,1.7-4.3,3.7-5.7,6c-0.9,1.4-1.6,2.9-2.1,4.4
					c-0.8-0.4-1.3-0.8-1.7-1c-3.3-2-7-3.8-11.2-5.3c-6.8-2.5-13.3-3.8-19.5-3.8c-5.1,0-13.1,0.6-24,1.8C67,44.9,61,45.6,55,46.4
					c-3.1,0.4-5.9,1.3-8.5,2.8c-2.6,1.5-4.9,3.5-6.7,5.9c-2.4,3.3-3.8,7-4.2,11.3c-0.4,3.4-0.1,7,0.7,10.8v70.9l0.3,1.5
					c0.8,3.9,2.4,7.6,4.9,11.1c1.8,2.4,4.9,5.8,9.3,10.2c2.2,2.2,4.2,4.1,6.1,5.8l5.7,5.9c4.4,4.3,8,7.4,10.8,9.3
					c5.1,3.4,10.6,5,16.6,4.8c4.9,0,9.7-0.9,14.2-2.8c4.5-1.9,8.4-4.7,11.7-8.3c5.4,4,11.4,6.3,18.2,6.8c1.1,4,3.1,7.5,6,10.6
					c2.9,3,6.4,5.4,10.6,7c4.3,1.6,8.7,2.4,13.2,2.5l2.8-0.1c11.3-1.4,21-5,29-10.6c7.9-5.6,13.9-13.1,17.9-22.3
					c3.6-8.3,5.2-17,4.9-26.1V79.5c-0.5-3.2-1.4-5.6-2.5-7.2c-0.8-1.1-2.7-2.9-5.6-5.2c-0.3-0.2-3.9-3.6-11-10.2
					c-1.5-1.7-3.2-3.6-5.2-5.6c-4-4.1-7.3-7-10-8.7c-5-3.4-11.7-5.3-19.9-5.7C158.9,36.6,153.9,36.9,149.3,37.8 M151.7,53.2l3.7-0.5
					c3-0.3,5.8-0.4,8.4-0.1c8.3,0.8,12.9,4.2,13.9,10.4l0,72.4c-0.3,4.7-1.3,9.1-3,13.2c-5.3,13.2-16.2,21.1-32.8,23.7l-2.6,0.2
					c-2.4,0-4.9-0.4-7.3-1.4c-4.9-1.9-7.4-5.2-7.6-10c-0.1-2.5,0.5-5.1,1.8-7.8c2.6-5.4,7.6-8.6,14.7-9.5c0.8-0.1,1.6-0.5,2.4-1.2
					c1.6-1.4,2.4-3.8,2.4-7V69c0.1-0.6,0.1-1.4,0-2.3c-0.1-1.7-0.4-3.2-1-4.3c-0.6-1.4-0.7-2.8-0.4-4.2
					C145.1,55.2,147.5,53.6,151.7,53.2 M127.3,71.2c5,5.7,7.5,12.6,7.5,20.7c0,8.1-3.1,15.8-9.4,23.1c-3.1,3.6-6.3,6.4-9.4,8.4
					c8.5,2.4,12.6,6.6,12.5,12.5c0,2.9-0.9,5.6-2.7,8.1c-5.2,6.7-11.1,9.5-17.5,8.2c-2-0.4-4-1.2-5.8-2.4l-19-14.9
					c1,6.5-0.3,11.8-4.1,16c-3.5,3.8-8.2,5.8-13.9,5.8c-4.6,0-8.2-1.7-10.7-5.1c-0.8-1.1-1.4-2.2-1.9-3.5l-0.5-1.6V75.3
					c-1.5-5.4-1.2-9.3,1-11.6c1.1-1.1,2.3-1.7,3.7-1.8c4.7-0.6,10-1.3,15.7-1.9c11.5-1.3,19.6-1.9,24.5-1.9c4.9,0,10.1,1.2,15.7,3.5
					c2.8,1.2,5.1,2.4,6.9,3.5l2.4,1.5C124,67.9,125.8,69.5,127.3,71.2z"/>
				<path class="st0" d="M93.6,87c-2.1-0.2-4.4-0.2-7,0l-3.2,0.4v20.1l3.2-0.1c2.5-0.2,4.9-0.6,7-1.2c6.8-1.9,10.1-5.4,10.1-10.5
					C103.8,90.7,100.4,87.7,93.6,87z"/>
			</g>
		</g>
		
			<animate  accumulate="none" additive="replace" attributeName="display" calcMode="linear" dur="0.695s" fill="freeze" keyTimes="0;.976;1" repeatCount="1" restart="always" values="none;inline;inline">
			</animate>
	</g>
	<g class="st3">
		<g transform="translate(175.25 175.1)">
			<g id="Symbol-1_1_">
				<path class="st0" d="M149.5,37.5c-4.6,0.5-8.6,2-11.9,4.3c-2.4,1.7-4.3,3.7-5.7,6c-0.9,1.4-1.6,2.9-2.1,4.4
					c-0.8-0.4-1.3-0.8-1.7-1c-3.3-2-7-3.8-11.2-5.3c-6.8-2.5-13.3-3.8-19.5-3.8c-5.1,0-13.1,0.6-24,1.8c-6.1,0.7-12.1,1.4-18.1,2.2
					c-3.1,0.4-5.9,1.3-8.5,2.8c-2.6,1.5-4.9,3.5-6.7,5.9c-2.4,3.3-3.8,7-4.2,11.3c-0.4,3.4-0.1,7,0.7,10.8v70.9l0.3,1.5
					c0.8,3.9,2.4,7.6,4.9,11.1c1.8,2.4,4.9,5.8,9.3,10.2c2.2,2.2,4.2,4.1,6.1,5.8l5.7,5.9c4.4,4.3,8,7.4,10.8,9.3
					c5.1,3.4,10.6,5,16.6,4.8c4.9,0,9.7-0.9,14.2-2.8c4.5-1.9,8.4-4.7,11.7-8.3c5.4,4,11.4,6.3,18.2,6.8c1.1,4,3.1,7.5,6,10.6
					c2.9,3,6.4,5.4,10.6,7c4.3,1.6,8.7,2.4,13.2,2.5l2.8-0.1c11.3-1.4,21-5,29-10.6c7.9-5.6,13.9-13.1,17.9-22.3
					c3.6-8.3,5.2-17,4.9-26.1V79.2c-0.5-3.2-1.4-5.6-2.5-7.2c-0.8-1.1-2.7-2.9-5.6-5.2c-0.3-0.2-3.9-3.6-11-10.2
					c-1.5-1.7-3.2-3.6-5.2-5.6c-4-4.1-7.3-7-10-8.7c-5-3.4-11.7-5.3-19.9-5.7C159.1,36.3,154.1,36.6,149.5,37.5 M151.9,52.9l3.7-0.5
					c3-0.3,5.8-0.4,8.4-0.1c8.3,0.8,12.9,4.2,13.9,10.4l0,72.4c-0.3,4.7-1.3,9.1-3,13.2c-5.3,13.2-16.2,21.1-32.8,23.7l-2.6,0.2
					c-2.4,0-4.9-0.4-7.3-1.4c-4.9-1.9-7.4-5.2-7.6-10c-0.1-2.5,0.5-5.1,1.8-7.8c2.6-5.4,7.6-8.6,14.7-9.5c0.8-0.1,1.6-0.5,2.4-1.2
					c1.6-1.4,2.4-3.8,2.4-7V68.7c0.1-0.6,0.1-1.4,0-2.3c-0.1-1.7-0.4-3.2-1-4.3c-0.6-1.4-0.7-2.8-0.4-4.2
					C145.2,54.9,147.6,53.3,151.9,52.9 M127.5,70.9c5,5.7,7.5,12.6,7.5,20.7c0,8.1-3.1,15.8-9.4,23.1c-3.1,3.6-6.3,6.4-9.4,8.4
					c8.5,2.4,12.6,6.6,12.5,12.5c0,2.9-0.9,5.6-2.7,8.1c-5.2,6.7-11.1,9.5-17.5,8.2c-2-0.4-4-1.2-5.8-2.4l-19-14.9
					c1,6.5-0.3,11.8-4.1,16c-3.5,3.8-8.2,5.8-13.9,5.8c-4.6,0-8.2-1.7-10.7-5.1c-0.8-1.1-1.4-2.2-1.9-3.5l-0.5-1.6V75
					c-1.5-5.4-1.2-9.3,1-11.6c1.1-1.1,2.3-1.7,3.7-1.8c4.7-0.6,10-1.3,15.7-1.9c11.5-1.3,19.6-1.9,24.5-1.9c4.9,0,10.1,1.2,15.7,3.5
					c2.8,1.2,5.1,2.4,6.9,3.5l2.4,1.5C124.2,67.6,125.9,69.2,127.5,70.9z"/>
				<path class="st0" d="M93.8,86.7c-2.1-0.2-4.4-0.2-7,0l-3.2,0.4v20.1l3.2-0.1c2.5-0.2,4.9-0.6,7-1.2c6.8-1.9,10.1-5.4,10.1-10.5
					C103.9,90.4,100.6,87.5,93.8,86.7z"/>
			</g>
		</g>
		
			<animate  accumulate="none" additive="replace" attributeName="display" calcMode="linear" dur="0.695s" fill="freeze" keyTimes="0;.976;1" repeatCount="1" restart="always" values="inline;none;none">
			</animate>
	</g>
	<g>
		<path id="Layer49_0_1_STROKES" class="st4" d="M28.1,211.5l-0.7,1.1"/>
		
			<animate  accumulate="none" additive="replace" attributeName="display" calcMode="linear" dur="0.695s" fill="freeze" keyTimes="0;.488;.512;1" repeatCount="1" restart="always" values="none;inline;none;none">
			</animate>
	</g>
	<g>
		<path id="Layer48_0_1_STROKES" class="st4" d="M27.4,212.6l1.1-1.4"/>
		
			<animate  accumulate="none" additive="replace" attributeName="display" calcMode="linear" dur="0.695s" fill="freeze" keyTimes="0;.463;.488;1" repeatCount="1" restart="always" values="none;inline;none;none">
			</animate>
	</g>
	<g>
		<path id="Layer47_0_1_STROKES" class="st4" d="M27.4,212.6l2.1-2.4"/>
		
			<animate  accumulate="none" additive="replace" attributeName="display" calcMode="linear" dur="0.695s" fill="freeze" keyTimes="0;.439;.463;1" repeatCount="1" restart="always" values="none;inline;none;none">
			</animate>
	</g>
	<g>
		<path id="Layer46_0_1_STROKES" class="st4" d="M27.4,212.6l3.8-4.1"/>
		
			<animate  accumulate="none" additive="replace" attributeName="display" calcMode="linear" dur="0.695s" fill="freeze" keyTimes="0;.415;.439;1" repeatCount="1" restart="always" values="none;inline;none;none">
			</animate>
	</g>
	<g>
		<path id="Layer45_0_1_STROKES" class="st4" d="M27.4,212.6l6.2-6.6"/>
		
			<animate  accumulate="none" additive="replace" attributeName="display" calcMode="linear" dur="0.695s" fill="freeze" keyTimes="0;.39;.415;1" repeatCount="1" restart="always" values="none;inline;none;none">
			</animate>
	</g>
	<g>
		<path id="Layer44_0_1_STROKES" class="st4" d="M27.4,212.6l9.3-9.6"/>
		
			<animate  accumulate="none" additive="replace" attributeName="display" calcMode="linear" dur="0.695s" fill="freeze" keyTimes="0;.366;.39;1" repeatCount="1" restart="always" values="none;inline;none;none">
			</animate>
	</g>
	<g>
		<path id="Layer43_0_1_STROKES" class="st4" d="M27.4,212.6l12.4-12.7"/>
		
			<animate  accumulate="none" additive="replace" attributeName="display" calcMode="linear" dur="0.695s" fill="freeze" keyTimes="0;.341;.366;1" repeatCount="1" restart="always" values="none;inline;none;none">
			</animate>
	</g>
	<g>
		<path id="Layer42_0_1_STROKES" class="st4" d="M27.4,212.6l14.7-15.1"/>
		
			<animate  accumulate="none" additive="replace" attributeName="display" calcMode="linear" dur="0.695s" fill="freeze" keyTimes="0;.317;.341;1" repeatCount="1" restart="always" values="none;inline;none;none">
			</animate>
	</g>
	<g>
		<path id="Layer41_0_1_STROKES" class="st4" d="M27.4,212.6l16.4-16.8"/>
		
			<animate  accumulate="none" additive="replace" attributeName="display" calcMode="linear" dur="0.695s" fill="freeze" keyTimes="0;.293;.317;1" repeatCount="1" restart="always" values="none;inline;none;none">
			</animate>
	</g>
	<g>
		<path id="Layer40_0_1_STROKES" class="st4" d="M27.4,212.6l17.5-17.8"/>
		
			<animate  accumulate="none" additive="replace" attributeName="display" calcMode="linear" dur="0.695s" fill="freeze" keyTimes="0;.268;.293;1" repeatCount="1" restart="always" values="none;inline;none;none">
			</animate>
	</g>
	<g>
		<path id="Layer39_0_1_STROKES" class="st4" d="M45.2,194.4l-17.8,18.2"/>
		
			<animate  accumulate="none" additive="replace" attributeName="display" calcMode="linear" dur="0.695s" fill="freeze" keyTimes="0;.244;.268;1" repeatCount="1" restart="always" values="none;inline;none;none">
			</animate>
	</g>
	<g>
		<path id="Layer38_0_1_STROKES" class="st4" d="M28.9,211l17.4-17.7"/>
		
			<animate  accumulate="none" additive="replace" attributeName="display" calcMode="linear" dur="0.695s" fill="freeze" keyTimes="0;.22;.244;1" repeatCount="1" restart="always" values="none;inline;none;none">
			</animate>
	</g>
	<g>
		<path id="Layer37_0_1_STROKES" class="st4" d="M33.5,206.4l16.1-16.2"/>
		
			<animate  accumulate="none" additive="replace" attributeName="display" calcMode="linear" dur="0.695s" fill="freeze" keyTimes="0;.195;.22;1" repeatCount="1" restart="always" values="none;inline;none;none">
			</animate>
	</g>
	<g>
		<path id="Layer36_0_1_STROKES" class="st4" d="M41,198.5l13.9-13.9"/>
		
			<animate  accumulate="none" additive="replace" attributeName="display" calcMode="linear" dur="0.695s" fill="freeze" keyTimes="0;.171;.195;1" repeatCount="1" restart="always" values="none;inline;none;none">
			</animate>
	</g>
	<g>
		<path id="Layer35_0_1_STROKES" class="st4" d="M50.8,188.3L62,177.6"/>
		
			<animate  accumulate="none" additive="replace" attributeName="display" calcMode="linear" dur="0.695s" fill="freeze" keyTimes="0;.146;.171;1" repeatCount="1" restart="always" values="none;inline;none;none">
			</animate>
	</g>
	<g>
		<path id="Layer34_0_1_STROKES" class="st4" d="M58.4,180.4l9-8.3"/>
		
			<animate  accumulate="none" additive="replace" attributeName="display" calcMode="linear" dur="0.695s" fill="freeze" keyTimes="0;.122;.146;1" repeatCount="1" restart="always" values="none;inline;none;none">
			</animate>
	</g>
	<g>
		<path id="Layer33_0_1_STROKES" class="st4" d="M62.9,175.7l7.7-6.9"/>
		
			<animate  accumulate="none" additive="replace" attributeName="display" calcMode="linear" dur="0.695s" fill="freeze" keyTimes="0;.098;.122;1" repeatCount="1" restart="always" values="none;inline;none;none">
			</animate>
	</g>
	<g>
		<path id="Layer32_0_1_STROKES" class="st4" d="M71.7,167.7l-7.3,6.4"/>
		
			<animate  accumulate="none" additive="replace" attributeName="display" calcMode="linear" dur="0.695s" fill="freeze" keyTimes="0;.073;.098;1" repeatCount="1" restart="always" values="none;inline;none;none">
			</animate>
	</g>
	<g>
		<path id="Layer30_0_1_STROKES" class="st4" d="M64.4,174.1l7.3-6.4"/>
		
			<animate  accumulate="none" additive="replace" attributeName="display" calcMode="linear" dur="0.695s" fill="freeze" keyTimes="0;.024;.073;1" repeatCount="1" restart="always" values="none;inline;none;none">
			</animate>
	</g>
	<g class="st3">
		<path id="Layer29_0_1_STROKES" class="st5" d="M71.7,167.7l-7.3,6.4"/>
		
			<animate  accumulate="none" additive="replace" attributeName="display" calcMode="linear" dur="0.695s" fill="freeze" keyTimes="0;.024;1" repeatCount="1" restart="always" values="inline;none;none">
			</animate>
	</g>
	<g>
		<path id="Layer28_0_1_STROKES" class="st4" d="M241,230.3l-1.1-0.7"/>
		
			<animate  accumulate="none" additive="replace" attributeName="display" calcMode="linear" dur="0.695s" fill="freeze" keyTimes="0;.659;.683;1" repeatCount="1" restart="always" values="none;inline;none;none">
			</animate>
	</g>
	<g>
		<path id="Layer27_0_1_STROKES" class="st4" d="M239.4,229.1l1.3,0.9"/>
		
			<animate  accumulate="none" additive="replace" attributeName="display" calcMode="linear" dur="0.695s" fill="freeze" keyTimes="0;.634;.659;1" repeatCount="1" restart="always" values="none;inline;none;none">
			</animate>
	</g>
	<g>
		<path id="Layer26_0_1_STROKES" class="st4" d="M237.8,227.6l1.9,1.5"/>
		
			<animate  accumulate="none" additive="replace" attributeName="display" calcMode="linear" dur="0.695s" fill="freeze" keyTimes="0;.61;.634;1" repeatCount="1" restart="always" values="none;inline;none;none">
			</animate>
	</g>
	<g>
		<path id="Layer25_0_1_STROKES" class="st4" d="M235.3,224.9l2.9,2.5"/>
		
			<animate  accumulate="none" additive="replace" attributeName="display" calcMode="linear" dur="0.695s" fill="freeze" keyTimes="0;.585;.61;1" repeatCount="1" restart="always" values="none;inline;none;none">
			</animate>
	</g>
	<g>
		<path id="Layer24_0_1_STROKES" class="st4" d="M231.9,221.5l4.1,3.8"/>
		
			<animate  accumulate="none" additive="replace" attributeName="display" calcMode="linear" dur="0.695s" fill="freeze" keyTimes="0;.561;.585;1" repeatCount="1" restart="always" values="none;inline;none;none">
			</animate>
	</g>
	<g>
		<path id="Layer23_0_1_STROKES" class="st4" d="M229.4,218.8l5.1,4.8"/>
		
			<animate  accumulate="none" additive="replace" attributeName="display" calcMode="linear" dur="0.695s" fill="freeze" keyTimes="0;.537;.561;1" repeatCount="1" restart="always" values="none;inline;none;none">
			</animate>
	</g>
	<g>
		<path id="Layer22_0_1_STROKES" class="st4" d="M227.9,217.3l5.7,5.4"/>
		
			<animate  accumulate="none" additive="replace" attributeName="display" calcMode="linear" dur="0.695s" fill="freeze" keyTimes="0;.512;.537;1" repeatCount="1" restart="always" values="none;inline;none;none">
			</animate>
	</g>
	<g>
		<path id="Layer21_0_1_STROKES" class="st4" d="M227.4,216.8l5.9,5.7"/>
		
			<animate  accumulate="none" additive="replace" attributeName="display" calcMode="linear" dur="0.695s" fill="freeze" keyTimes="0;.488;.512;1" repeatCount="1" restart="always" values="none;inline;none;none">
			</animate>
	</g>
	<g>
		<path id="Layer20_0_1_STROKES" class="st4" d="M226.9,216.3l6,5.8"/>
		
			<animate  accumulate="none" additive="replace" attributeName="display" calcMode="linear" dur="0.695s" fill="freeze" keyTimes="0;.463;.488;1" repeatCount="1" restart="always" values="none;inline;none;none">
			</animate>
	</g>
	<g>
		<path id="Layer19_0_1_STROKES" class="st4" d="M225.5,215.1l6.6,6.2"/>
		
			<animate  accumulate="none" additive="replace" attributeName="display" calcMode="linear" dur="0.695s" fill="freeze" keyTimes="0;.439;.463;1" repeatCount="1" restart="always" values="none;inline;none;none">
			</animate>
	</g>
	<g>
		<path id="Layer18_0_1_STROKES" class="st4" d="M223.3,213l7.5,6.9"/>
		
			<animate  accumulate="none" additive="replace" attributeName="display" calcMode="linear" dur="0.695s" fill="freeze" keyTimes="0;.415;.439;1" repeatCount="1" restart="always" values="none;inline;none;none">
			</animate>
	</g>
	<g>
		<path id="Layer17_0_1_STROKES" class="st4" d="M220.1,210l8.7,7.8"/>
		
			<animate  accumulate="none" additive="replace" attributeName="display" calcMode="linear" dur="0.695s" fill="freeze" keyTimes="0;.39;.415;1" repeatCount="1" restart="always" values="none;inline;none;none">
			</animate>
	</g>
	<g>
		<path id="Layer16_0_1_STROKES" class="st4" d="M217,207.1l9.9,8.8"/>
		
			<animate  accumulate="none" additive="replace" attributeName="display" calcMode="linear" dur="0.695s" fill="freeze" keyTimes="0;.366;.39;1" repeatCount="1" restart="always" values="none;inline;none;none">
			</animate>
	</g>
	<g>
		<path id="Layer15_0_1_STROKES" class="st4" d="M214.7,205l10.8,9.5"/>
		
			<animate  accumulate="none" additive="replace" attributeName="display" calcMode="linear" dur="0.695s" fill="freeze" keyTimes="0;.341;.366;1" repeatCount="1" restart="always" values="none;inline;none;none">
			</animate>
	</g>
	<g>
		<path id="Layer14_0_1_STROKES" class="st4" d="M213.3,203.8l11.4,9.9"/>
		
			<animate  accumulate="none" additive="replace" attributeName="display" calcMode="linear" dur="0.695s" fill="freeze" keyTimes="0;.317;.341;1" repeatCount="1" restart="always" values="none;inline;none;none">
			</animate>
	</g>
	<g>
		<path id="Layer13_0_1_STROKES" class="st4" d="M212.9,203.3l11.5,10"/>
		
			<animate  accumulate="none" additive="replace" attributeName="display" calcMode="linear" dur="0.695s" fill="freeze" keyTimes="0;.293;.317;1" repeatCount="1" restart="always" values="none;inline;none;none">
			</animate>
	</g>
	<g>
		<path id="Layer12_0_1_STROKES" class="st4" d="M212.7,203.1l11.4,9.9"/>
		
			<animate  accumulate="none" additive="replace" attributeName="display" calcMode="linear" dur="0.695s" fill="freeze" keyTimes="0;.268;.293;1" repeatCount="1" restart="always" values="none;inline;none;none">
			</animate>
	</g>
	<g>
		<path id="Layer11_0_1_STROKES" class="st4" d="M211.9,202.1l11.1,9.7"/>
		
			<animate  accumulate="none" additive="replace" attributeName="display" calcMode="linear" dur="0.695s" fill="freeze" keyTimes="0;.244;.268;1" repeatCount="1" restart="always" values="none;inline;none;none">
			</animate>
	</g>
	<g>
		<path id="Layer10_0_1_STROKES" class="st4" d="M210.6,200.7l10.5,9.3"/>
		
			<animate  accumulate="none" additive="replace" attributeName="display" calcMode="linear" dur="0.695s" fill="freeze" keyTimes="0;.22;.244;1" repeatCount="1" restart="always" values="none;inline;none;none">
			</animate>
	</g>
	<g>
		<path id="Layer9_0_1_STROKES" class="st4" d="M208.8,198.7l9.8,8.8"/>
		
			<animate  accumulate="none" additive="replace" attributeName="display" calcMode="linear" dur="0.695s" fill="freeze" keyTimes="0;.195;.22;1" repeatCount="1" restart="always" values="none;inline;none;none">
			</animate>
	</g>
	<g>
		<path id="Layer8_0_1_STROKES" class="st4" d="M206.5,196l8.8,8.1"/>
		
			<animate  accumulate="none" additive="replace" attributeName="display" calcMode="linear" dur="0.695s" fill="freeze" keyTimes="0;.171;.195;1" repeatCount="1" restart="always" values="none;inline;none;none">
			</animate>
	</g>
	<g>
		<path id="Layer7_0_1_STROKES" class="st4" d="M203.7,192.8l7.6,7.3"/>
		
			<animate  accumulate="none" additive="replace" attributeName="display" calcMode="linear" dur="0.695s" fill="freeze" keyTimes="0;.146;.171;1" repeatCount="1" restart="always" values="none;inline;none;none">
			</animate>
	</g>
	<g>
		<path id="Layer6_0_1_STROKES" class="st4" d="M200.8,189.6l6.4,6.5"/>
		
			<animate  accumulate="none" additive="replace" attributeName="display" calcMode="linear" dur="0.695s" fill="freeze" keyTimes="0;.122;.146;1" repeatCount="1" restart="always" values="none;inline;none;none">
			</animate>
	</g>
	<g>
		<path id="Layer5_0_1_STROKES" class="st4" d="M198.6,187l5.4,5.8"/>
		
			<animate  accumulate="none" additive="replace" attributeName="display" calcMode="linear" dur="0.695s" fill="freeze" keyTimes="0;.098;.122;1" repeatCount="1" restart="always" values="none;inline;none;none">
			</animate>
	</g>
	<g>
		<path id="Layer4_0_1_STROKES" class="st4" d="M196.8,184.9l4.6,5.3"/>
		
			<animate  accumulate="none" additive="replace" attributeName="display" calcMode="linear" dur="0.695s" fill="freeze" keyTimes="0;.073;.098;1" repeatCount="1" restart="always" values="none;inline;none;none">
			</animate>
	</g>
	<g>
		<path id="Layer3_0_1_STROKES" class="st4" d="M195.5,183.5l4.1,4.9"/>
		
			<animate  accumulate="none" additive="replace" attributeName="display" calcMode="linear" dur="0.695s" fill="freeze" keyTimes="0;.049;.073;1" repeatCount="1" restart="always" values="none;inline;none;none">
			</animate>
	</g>
	<g>
		<path id="Layer2_0_1_STROKES" class="st4" d="M194.7,182.6l3.7,4.7"/>
		
			<animate  accumulate="none" additive="replace" attributeName="display" calcMode="linear" dur="0.695s" fill="freeze" keyTimes="0;.024;.049;1" repeatCount="1" restart="always" values="none;inline;none;none">
			</animate>
	</g>
	<g class="st3">
		<path id="Layer1_0_1_STROKES" class="st5" d="M198.1,186.9l-3.6-4.6"/>
		
			<animate  accumulate="none" additive="replace" attributeName="display" calcMode="linear" dur="0.695s" fill="freeze" keyTimes="0;.024;1" repeatCount="1" restart="always" values="inline;none;none">
			</animate>
	</g>
</g>
</svg>
