<?xml version="1.0" encoding="utf-8"?><svg id="rjAnimation" image-rendering="auto" baseProfile="basic" version="1.1" x="0px" y="0px" width="350" height="350" xmlns="http://www.w3.org/2000/svg" xmlns:xlink="http://www.w3.org/1999/xlink"><defs><g id="Symbol-1" overflow="visible"><path fill="#FFF" stroke="none" d="M30.8 -121.95Q21.3 -120.8 14.4 -115.85 9.45 -112.35 6.5 -107.45 4.65 -104.5 3.6 -101.25 2 -102.15 1.3 -102.65 -5.45 -106.9 -14.1 -110.15 -28.05 -115.45 -40.95 -115.45 -51.55 -115.45 -74.05 -112.9 -86.65 -111.45 -98.95 -109.75 -105.25 -109 -110.65 -105.85 -116.1 -102.7 -119.85 -97.6 -124.75 -90.75 -125.7 -81.75 -126.45 -74.65 -124.75 -66.6L-124.75 32.95 -124.35 35.05Q-122.75 43.25 -117.55 50.65 -113.9 55.7 -104.75 64.95 -100.2 69.55 -96.35 73.15L-88.45 81.45Q-79.4 90.5 -73.65 94.45 -63.15 101.55 -50.75 101.25 -40.55 101.35 -31.25 97.3 -21.95 93.2 -15.15 85.65 -4.1 94.1 9.85 95.15 12.2 103.6 18.05 110 24 116.4 32.7 119.85 41.6 123.2 50.85 123.35L54.7 123.15Q78.05 120.15 94.6 108.25 110.95 96.4 119.2 76.95 126.65 59.4 125.9 40.25L125.9 -63.3Q124.8 -70.1 122.4 -73.45 120.75 -75.85 114.7 -80.8 114.1 -81.3 99.6 -95.1 96.55 -98.65 92.4 -103 84.1 -111.6 78.7 -115.25 68.3 -122.35 51.3 -123.2 40.35 -123.75 30.8 -121.95M34.1 -100.25L39.25 -101Q45.4 -101.7 50.75 -101.15 67.85 -99.5 69.9 -86.6L69.95 15.1Q69.25 25 65.85 33.7 54.95 61.5 20.65 66.95L17.05 67.3Q12.05 67.35 7 65.35 -3.1 61.4 -3.4 51.3 -3.65 46 -.9 40.3 4.55 28.9 19.4 26.95 21.1 26.8 22.75 25.25 26.1 22.2 26.1 15.45L26.1 -78.1Q26.25 -79.45 26.1 -81.3 25.9 -84.95 24.7 -87.4 23.55 -90.3 24.15 -93.35 25.35 -99.45 34.1 -100.25M.55 -74.95Q10.9 -62.95 10.9 -45.85 10.9 -28.7 -2.1 -13.45 -8.6 -5.85 -15.1 -1.65 2.35 3.5 2.1 15.9 2 22.1 -1.6 27.25 -12.4 41.45 -25.75 38.8 -29.9 37.95 -33.8 35.5L-59.95 14.6Q-57.85 28.3 -65.55 37 -72.8 45.1 -84.75 45.1 -94.25 45.1 -99.45 37.95 -101.05 35.7 -102.05 33L-102.75 30.75 -102.75 -69.25Q-105.85 -80.7 -101.35 -85.5 -99.1 -87.9 -96.25 -88.05 -86.45 -89.4 -74.65 -90.75 -51 -93.45 -40.95 -93.45 -30.9 -93.45 -19.35 -88.5 -13.55 -86 -9.8 -83.55L-6.55 -81.5Q-2.7 -78.7 .55 -74.95Z"/><path fill="#FFF" stroke="none" d="M-45.85 -52.8Q-50.2 -53.3 -55.45 -52.8L-59.8 -52.2 -59.8 -24 -55.45 -24.15Q-50.2 -24.55 -45.85 -25.8 -31.9 -29.75 -31.9 -40.5 -31.9 -51.25 -45.85 -52.8Z"/></g></defs><g id="Scene-1r1" overflow="visible"><g display="none" id="Layer122_0_FILL"><path fill="#000" stroke="none" d="M350.05 350.1L350.05 .6 .25 .6 .25 350.1 350.05 350.1Z"/><animate attributeName="display" fill="freeze" repeatCount="1" dur="0.695s" keyTimes="0;.976;1" values="none;inline;inline"/></g><g id="Layer121_0_FILL"><path fill="#000" stroke="none" d="M350.1 350.05L350.1 .55 .3 .55 .3 350.05 350.1 350.05Z"/><animate attributeName="display" fill="freeze" repeatCount="1" dur="0.695s" keyTimes="0;.976;1" values="inline;none;none"/></g><g display="none"><path id="Layer120_0_1_STROKES" stroke="#FFF" stroke-width="12" stroke-linejoin="round" stroke-linecap="round" fill="none" d="M325 21.05L326 20.05M20 23.05L20 22.05"/><animate attributeName="display" fill="freeze" repeatCount="1" dur="0.695s" keyTimes="0;.61;.634;1" values="none;inline;none;none"/></g><g display="none"><path id="Layer119_0_1_STROKES" stroke="#FFF" stroke-width="12" stroke-linejoin="round" stroke-linecap="round" fill="none" d="M20 22.05L20.65 23.85M321.4 24.8L326 20.05"/><animate attributeName="display" fill="freeze" repeatCount="1" dur="0.695s" keyTimes="0;.585;.61;1" values="none;inline;none;none"/></g><g display="none"><path id="Layer118_0_1_STROKES" stroke="#FFF" stroke-width="12" stroke-linejoin="round" stroke-linecap="round" fill="none" d="M20 22.05L22.55 26.25M310.6 36.1L326 20.05"/><animate attributeName="display" fill="freeze" repeatCount="1" dur="0.695s" keyTimes="0;.561;.585;1" values="none;inline;none;none"/></g><g display="none"><path id="Layer117_0_1_STROKES" stroke="#FFF" stroke-width="12" stroke-linejoin="round" stroke-linecap="round" fill="none" d="M20 22.05L25.45 29.85M294.4 53L326 20.05"/><animate attributeName="display" fill="freeze" repeatCount="1" dur="0.695s" keyTimes="0;.537;.561;1" values="none;inline;none;none"/></g><g display="none"><path id="Layer116_0_1_STROKES" stroke="#FFF" stroke-width="12" stroke-linejoin="round" stroke-linecap="round" fill="none" d="M20 22.05L27.35 32.25M283.6 64.3L326 20.05"/><animate attributeName="display" fill="freeze" repeatCount="1" dur="0.695s" keyTimes="0;.512;.537;1" values="none;inline;none;none"/></g><g display="none"><path id="Layer115_0_1_STROKES" stroke="#FFF" stroke-width="12" stroke-linejoin="round" stroke-linecap="round" fill="none" d="M28 33.05L20 22.05M280 68.05L326 20.05"/><animate attributeName="display" fill="freeze" repeatCount="1" dur="0.695s" keyTimes="0;.488;.512;1" values="none;inline;none;none"/></g><g display="none"><path id="Layer114_0_1_STROKES" stroke="#FFF" stroke-width="12" stroke-linejoin="round" stroke-linecap="round" fill="none" d="M20.9 23.15L29.2 34.55M279.45 68.65L324.05 22.15"/><animate attributeName="display" fill="freeze" repeatCount="1" dur="0.695s" keyTimes="0;.463;.488;1" values="none;inline;none;none"/></g><g display="none"><path id="Layer113_0_1_STROKES" stroke="#FFF" stroke-width="12" stroke-linejoin="round" stroke-linecap="round" fill="none" d="M277.75 70.5L318.2 28.4M23.7 26.45L32.95 39"/><animate attributeName="display" fill="freeze" repeatCount="1" dur="0.695s" keyTimes="0;.439;.463;1" values="none;inline;none;none"/></g><g display="none"><path id="Layer112_0_1_STROKES" stroke="#FFF" stroke-width="12" stroke-linejoin="round" stroke-linecap="round" fill="none" d="M274.9 73.55L308.4 38.8M28.3 31.95L39.05 46.45"/><animate attributeName="display" fill="freeze" repeatCount="1" dur="0.695s" keyTimes="0;.415;.439;1" values="none;inline;none;none"/></g><g display="none"><path id="Layer111_0_1_STROKES" stroke="#FFF" stroke-width="12" stroke-linejoin="round" stroke-linecap="round" fill="none" d="M271.15 77.55L295.65 52.3M34.25 39.15L47 56.15"/><animate attributeName="display" fill="freeze" repeatCount="1" dur="0.695s" keyTimes="0;.39;.415;1" values="none;inline;none;none"/></g><g display="none"><path id="Layer110_0_1_STROKES" stroke="#FFF" stroke-width="12" stroke-linejoin="round" stroke-linecap="round" fill="none" d="M268.3 80.6L285.85 62.7M38.85 44.65L53.1 63.6"/><animate attributeName="display" fill="freeze" repeatCount="1" dur="0.695s" keyTimes="0;.366;.39;1" values="none;inline;none;none"/></g><g display="none"><path id="Layer109_0_1_STROKES" stroke="#FFF" stroke-width="12" stroke-linejoin="round" stroke-linecap="round" fill="none" d="M266.55 82.45L279.95 68.95M41.6 47.95L56.8 68.05"/><animate attributeName="display" fill="freeze" repeatCount="1" dur="0.695s" keyTimes="0;.341;.366;1" values="none;inline;none;none"/></g><g display="none"><path id="Layer108_0_1_STROKES" stroke="#FFF" stroke-width="12" stroke-linejoin="round" stroke-linecap="round" fill="none" d="M266 83.05L278 71.05M42.5 49.05L58 69.55"/><animate attributeName="display" fill="freeze" repeatCount="1" dur="0.695s" keyTimes="0;.317;.341;1" values="none;inline;none;none"/></g><g display="none"><path id="Layer107_0_1_STROKES" stroke="#FFF" stroke-width="12" stroke-linejoin="round" stroke-linecap="round" fill="none" d="M266 83.15L277.9 71.2M42.8 49.35L58.15 69.65"/><animate attributeName="display" fill="freeze" repeatCount="1" dur="0.695s" keyTimes="0;.293;.317;1" values="none;inline;none;none"/></g><g display="none"><path id="Layer106_0_1_STROKES" stroke="#FFF" stroke-width="12" stroke-linejoin="round" stroke-linecap="round" fill="none" d="M265.7 83.45L277.5 71.65M43.55 50.35L58.45 70.05"/><animate attributeName="display" fill="freeze" repeatCount="1" dur="0.695s" keyTimes="0;.268;.293;1" values="none;inline;none;none"/></g><g display="none"><path id="Layer105_0_1_STROKES" stroke="#FFF" stroke-width="12" stroke-linejoin="round" stroke-linecap="round" fill="none" d="M265.35 83.9L276.85 72.45M44.9 51.95L59.05 70.65"/><animate attributeName="display" fill="freeze" repeatCount="1" dur="0.695s" keyTimes="0;.244;.268;1" values="none;inline;none;none"/></g><g display="none"><path id="Layer104_0_1_STROKES" stroke="#FFF" stroke-width="12" stroke-linejoin="round" stroke-linecap="round" fill="none" d="M264.9 84.55L275.95 73.5M46.8 54.15L59.95 71.55"/><animate attributeName="display" fill="freeze" repeatCount="1" dur="0.695s" keyTimes="0;.22;.244;1" values="none;inline;none;none"/></g><g display="none"><path id="Layer103_0_1_STROKES" stroke="#FFF" stroke-width="12" stroke-linejoin="round" stroke-linecap="round" fill="none" d="M264.2 85.4L274.75 74.9M49.15 57.05L60.95 72.65"/><animate attributeName="display" fill="freeze" repeatCount="1" dur="0.695s" keyTimes="0;.195;.22;1" values="none;inline;none;none"/></g><g display="none"><path id="Layer102_0_1_STROKES" stroke="#FFF" stroke-width="12" stroke-linejoin="round" stroke-linecap="round" fill="none" d="M263.45 86.45L273.3 76.6M52.1 60.55L62.25 74"/><animate attributeName="display" fill="freeze" repeatCount="1" dur="0.695s" keyTimes="0;.171;.195;1" values="none;inline;none;none"/></g><g display="none"><path id="Layer101_0_1_STROKES" stroke="#FFF" stroke-width="12" stroke-linejoin="round" stroke-linecap="round" fill="none" d="M262.6 87.65L271.75 78.5M55.45 64.55L63.8 75.6"/><animate attributeName="display" fill="freeze" repeatCount="1" dur="0.695s" keyTimes="0;.146;.171;1" values="none;inline;none;none"/></g><g display="none"><path id="Layer100_0_1_STROKES" stroke="#FFF" stroke-width="12" stroke-linejoin="round" stroke-linecap="round" fill="none" d="M261.85 88.7L270.3 80.2M58.4 68.05L65.1 76.95"/><animate attributeName="display" fill="freeze" repeatCount="1" dur="0.695s" keyTimes="0;.122;.146;1" values="none;inline;none;none"/></g><g display="none"><path id="Layer99_0_1_STROKES" stroke="#FFF" stroke-width="12" stroke-linejoin="round" stroke-linecap="round" fill="none" d="M261.2 89.55L269.15 81.6M60.8 70.95L66.15 78.05"/><animate attributeName="display" fill="freeze" repeatCount="1" dur="0.695s" keyTimes="0;.098;.122;1" values="none;inline;none;none"/></g><g display="none"><path id="Layer98_0_1_STROKES" stroke="#FFF" stroke-width="12" stroke-linejoin="round" stroke-linecap="round" fill="none" d="M260.65 90.2L268.15 82.65M62.6 73.15L66.95 78.95"/><animate attributeName="display" fill="freeze" repeatCount="1" dur="0.695s" keyTimes="0;.073;.098;1" values="none;inline;none;none"/></g><g display="none"><path id="Layer97_0_1_STROKES" stroke="#FFF" stroke-width="12" stroke-linejoin="round" stroke-linecap="round" fill="none" d="M260.3 90.65L267.5 83.45M63.95 74.75L67.55 79.55"/><animate attributeName="display" fill="freeze" repeatCount="1" dur="0.695s" keyTimes="0;.049;.073;1" values="none;inline;none;none"/></g><g display="none"><path id="Layer96_0_1_STROKES" stroke="#FFF" stroke-width="12" stroke-linejoin="round" stroke-linecap="round" fill="none" d="M260.05 90.95L267.15 83.9M64.75 75.75L67.9 79.95"/><animate attributeName="display" fill="freeze" repeatCount="1" dur="0.695s" keyTimes="0;.024;.049;1" values="none;inline;none;none"/></g><g><path id="Layer95_0_1_STROKES" stroke="#FFF" stroke-width="12" stroke-linejoin="round" stroke-linecap="round" fill="none" d="M260 91.05L267 84.05M68 80.05L65 76.05"/><animate attributeName="display" fill="freeze" repeatCount="1" dur="0.695s" keyTimes="0;.024;1" values="inline;none;none"/></g><g display="none" id="Layer68_0_FILL"><path fill="#000" stroke="none" d="M253 69.05L253 61.05 59 79.05 45 209 47 201 67 237 95 249 285 249 253 69.05Z"/><path id="Layer68_0_1_STROKES" stroke="#000" stroke-width="12" stroke-linejoin="round" stroke-linecap="round" fill="none" d="M253 69.05L255 69.05 286.65 255 287 257 239 255 95 249 67 237 47 201"/><animate attributeName="display" fill="freeze" repeatCount="1" dur="0.695s" keyTimes="0;.341;1" values="none;inline;inline"/></g><g display="none" id="Layer67_0_FILL"><path fill="#000" stroke="none" d="M253 69.05L253 61.05 59 77.55 45 209 47 201 67 237 95 249 285 249 281.2 226.45Q279.215 215.219 277.2 203.95 265.102 136.512 253 69.05Z"/><path id="Layer67_0_1_STROKES" stroke="#000" stroke-width="12" stroke-linejoin="round" stroke-linecap="round" fill="none" d="M253 69.05Q265.102 136.512 277.2 203.975 279.215 215.219 281.225 226.475L287 257 95 249 285 249 281.225 226.475"/><animate attributeName="display" fill="freeze" repeatCount="1" dur="0.695s" keyTimes="0;.317;.341;1" values="none;inline;none;none"/></g><g display="none" id="Layer66_0_FILL"><path fill="#000" stroke="none" d="M253 69.05L253 61.05 59 76.05 45 209 47 201 67 237 95 249 285 249 281.2 226.45Q279.215 215.219 277.2 203.95 265.102 136.512 253 69.05Z"/><path id="Layer66_0_1_STROKES" stroke="#000" stroke-width="12" stroke-linejoin="round" stroke-linecap="round" fill="none" d="M253 69.05Q265.102 136.512 277.2 203.975 279.215 215.219 281.225 226.475L287 257 95 249 285 249 281.225 226.475"/><animate attributeName="display" fill="freeze" repeatCount="1" dur="0.695s" keyTimes="0;.293;.317;1" values="none;inline;none;none"/></g><g display="none" id="Layer65_0_FILL"><path fill="#000" stroke="none" d="M253 69.05L253 61.05 59 74.55 45 209 47 201 67 237 95 249 285 249 281.2 226.45Q279.215 215.219 277.2 203.95 265.102 136.512 253 69.05Z"/><path id="Layer65_0_1_STROKES" stroke="#000" stroke-width="12" stroke-linejoin="round" stroke-linecap="round" fill="none" d="M253 69.05Q265.102 136.512 277.2 203.975 279.215 215.219 281.225 226.475L287 257 95 249 285 249 281.225 226.475"/><animate attributeName="display" fill="freeze" repeatCount="1" dur="0.695s" keyTimes="0;.268;.293;1" values="none;inline;none;none"/></g><g display="none" id="Layer64_0_FILL"><path fill="#000" stroke="none" d="M253 69.05L253 61.05 59 73.05 45 209 47 201 67 237 95 249 285 249 253 69.05Z"/><path id="Layer64_0_1_STROKES" stroke="#000" stroke-width="12" stroke-linejoin="round" stroke-linecap="round" fill="none" d="M253 69.05L255 69.05 286.65 255 287 257 239 255 95 249 67 237 47 201"/><animate attributeName="display" fill="freeze" repeatCount="1" dur="0.695s" keyTimes="0;.244;.268;1" values="none;inline;none;none"/></g><g display="none" id="Layer63_0_FILL"><path fill="#000" stroke="none" d="M284.7 249.05L285.05 249.05 282.3 232.2 284.7 249.05M257.6 69.45L257.6 61.4 59.05 71.65 45.05 209.05 47.05 201.05 67.05 237.05 95.05 249.05 284.7 249.05 282.3 232.2 257.6 69.45Z"/><path id="Layer63_0_1_STROKES" stroke="#000" stroke-width="12" stroke-linejoin="round" stroke-linecap="round" fill="none" d="M257.6 69.45L259.55 69.4 286.65 255 286.7 257.05 95.05 249.05 284.7 249.05 282.3 232.2 257.6 69.45Z"/><animate attributeName="display" fill="freeze" repeatCount="1" dur="0.695s" keyTimes="0;.22;.244;1" values="none;inline;none;none"/></g><g display="none" id="Layer62_0_FILL"><path fill="#000" stroke="none" d="M262.15 69.7L262.15 69.7 262.15 69.6 262.15 61.6 59 70.2 45 209 47 201 67 237 95 249 284.3 249 262.15 69.7Z"/><path id="Layer62_0_1_STROKES" stroke="#000" stroke-width="12" stroke-linejoin="round" stroke-linecap="round" fill="none" d="M95 249L284.3 249 262.15 69.7 262.175 69.7M95 249L286.3 256.95 286.7 255.3 264.05 69.6 262.175 69.7"/><animate attributeName="display" fill="freeze" repeatCount="1" dur="0.695s" keyTimes="0;.195;.22;1" values="none;inline;none;none"/></g><g display="none" id="Layer61_0_FILL"><path fill="#000" stroke="none" d="M283.95 249.05L285 249.05 279.5 198.65 283.95 249.05M266.7 70L266.7 61.95 59 68.8 45 209.05 47 201.05 67 237.05 95 249.05 283.95 249.05 279.5 198.65 266.7 70Z"/><path id="Layer61_0_1_STROKES" stroke="#000" stroke-width="12" stroke-linejoin="round" stroke-linecap="round" fill="none" d="M266.7 70L268.65 69.95 286.75 255.7 285.95 257 95 249.05 283.95 249.05 279.5 198.65 266.7 70Z"/><animate attributeName="display" fill="freeze" repeatCount="1" dur="0.695s" keyTimes="0;.171;.195;1" values="none;inline;none;none"/></g><g display="none" id="Layer60_0_FILL"><path fill="#000" stroke="none" d="M283.7 249.05L285.05 249.05 279.5 182 283.7 249.05M271.35 70.3L271.35 62.25 59.05 67.4 45.05 209.05 47.05 201.05 67.05 237.05 95.05 249.05 283.7 249.05 279.5 182 271.35 70.3Z"/><path id="Layer60_0_1_STROKES" stroke="#000" stroke-width="12" stroke-linejoin="round" stroke-linecap="round" fill="none" d="M271.35 70.3L273.3 70.25 286.85 256 285.7 257 95.05 249.05 283.7 249.05 279.5 182 271.35 70.3Z"/><animate attributeName="display" fill="freeze" repeatCount="1" dur="0.695s" keyTimes="0;.146;.171;1" values="none;inline;none;none"/></g><g display="none" id="Layer59_0_FILL"><path fill="#000" stroke="none" d="M283.35 249L285.05 249 280.05 159.75 283.35 249M275.9 70.5L275.9 62.5 59.05 65.9 45.05 209 47.05 201 67.05 237 95.05 249 283.35 249 280.05 159.75 275.9 70.5Z"/><path id="Layer59_0_1_STROKES" stroke="#000" stroke-width="12" stroke-linejoin="round" stroke-linecap="round" fill="none" d="M275.9 70.5L277.9 70.5 286.9 256.3 285.35 256.95 95.05 249M280.05 159.75L275.9 70.5M95.05 249L283.35 249 280.05 159.75"/><animate attributeName="display" fill="freeze" repeatCount="1" dur="0.695s" keyTimes="0;.122;.146;1" values="none;inline;none;none"/></g><g display="none" id="Layer58_0_FILL"><path fill="#000" stroke="none" d="M282.95 249.05L285 249.05 282.25 159.95 282.95 249.05M280.45 70.85L280.45 62.8 59 64.55 45 209.05 47 201.05 67 237.05 95 249.05 282.95 249.05 282.25 159.95 280.45 70.85Z"/><path id="Layer58_0_1_STROKES" stroke="#000" stroke-width="12" stroke-linejoin="round" stroke-linecap="round" fill="none" d="M280.45 70.85L282.4 70.8 286.95 256.7 284.95 256.95 95 249.05 282.95 249.05 282.25 159.95 280.45 70.85Z"/><animate attributeName="display" fill="freeze" repeatCount="1" dur="0.695s" keyTimes="0;.098;.122;1" values="none;inline;none;none"/></g><g display="none" id="Layer57_0_FILL"><path fill="#000" stroke="none" d="M285 71.05L285 63.05 59 63.05 45 209 47 201 67 237 95 249 285 249 285 71.05Z"/><path id="Layer57_0_1_STROKES" stroke="#000" stroke-width="12" stroke-linejoin="round" stroke-linecap="round" fill="none" d="M285 71.05L287 71.05 287 257 239 255 95 249 67 237 47 201"/><animate attributeName="display" fill="freeze" repeatCount="1" dur="0.695s" keyTimes="0;.073;.098;1" values="none;inline;none;none"/></g><g display="none" id="Layer56_0_FILL"><path fill="#000" stroke="none" d="M285 71.05L285 63.05 45 63.05 45 209 47 201 67 237 95 249 285 249 285 71.05Z"/><path id="Layer56_0_1_STROKES" stroke="#000" stroke-width="12" stroke-linejoin="round" stroke-linecap="round" fill="none" d="M285 71.05L287 71.05 287 257 239 255 95 249 67 237 47 201"/><animate attributeName="display" fill="freeze" repeatCount="1" dur="0.695s" keyTimes="0;.049;.073;1" values="none;inline;none;none"/></g><g display="none"><path id="Layer55_0_1_STROKES" stroke="#000" stroke-opacity=".501" stroke-width="6" stroke-linejoin="round" stroke-linecap="round" fill="none" d="M274.7 140.45L273.35 232.15 260.7 242.55 203.1 252 109.85 247 93.4 242.35 83.9 237.25 65.125 215.75 55.8 211.2 55.6 211.3 55.475 211.05 54.5 210.55 54.5 208.9Q53.745 142.975 53 77.05L136.95 65.05 157.825 69.075 210.5 65.05 210.85 65.25 214.25 63.05 260.8 65.3 263 68.15 275 120.75 274.7 139.9 274.7 140.45ZM210.85 65.25L235.5 80.05 240.5 67.05 260.225 147.225M172.85 243L138.5 246 78 222.05 65.125 215.75 59.5 209.3 55.8 211.2 55.475 211.05 54.5 208.9M157.825 69.075L194.2 76.05 210.85 65.25M260.225 147.225L264 162.55 252 184.05 178 242.55 172.85 243M53 77.05L157.825 69.075"/><path id="Layer55_0_2_STROKES" stroke="#000" stroke-width="12" stroke-linejoin="round" stroke-linecap="round" fill="none" d="M274.7 139.9L275 140.35 274.7 140.45M274.7 139.9L273.5 138.1 273.55 140.85 274.7 140.45M260.225 147.225L263 144.6 273.55 140.85 274 168.75 248.5 206.75 201.8 250.5 194 249.9 172.85 243 142.85 233.2 78 170.05 156.8 158.05 210.45 169.05 228.7 156.05 249.75 157.15 260.225 147.225Z"/><animate attributeName="display" fill="freeze" repeatCount="1" dur="0.695s" keyTimes="0;.024;.049;1" values="none;inline;none;none"/></g><g><path id="Layer54_0_1_STROKES" stroke="#000" stroke-width="12" stroke-linejoin="round" stroke-linecap="round" fill="none" d="M61 91.05L64 212.05 109 243.05 210 255 261 236.05 265 113.05 241 68.05 194 63.05 186 89.05 136 67.05 61 91.05Z"/><animate attributeName="display" fill="freeze" repeatCount="1" dur="0.695s" keyTimes="0;.024;1" values="inline;none;none"/></g><g display="none" id="Layer50_0_FILL"><path fill="#FFF" stroke="none" d="M274.85 80.1Q271.8 76.55 267.65 72.2 259.35 63.6 253.95 59.95 243.55 52.85 226.55 52 215.6 51.45 206.05 53.25 196.55 54.4 189.65 59.35 184.7 62.85 181.75 67.75 179.9 70.7 178.85 73.95 177.25 73.05 176.55 72.55 169.8 68.3 161.15 65.05 147.2 59.75 134.3 59.75 123.7 59.75 101.2 62.3 88.6 63.75 76.3 65.45 70 66.2 64.6 69.35 59.15 72.5 55.4 77.6 50.5 84.45 49.55 93.45 48.8 100.55 50.5 108.6L50.5 208.15 50.9 210.25Q52.5 218.45 57.7 225.85 61.35 230.9 70.5 240.15 75.05 244.75 78.9 248.35L86.8 256.65Q95.85 265.7 101.6 269.65 112.1 276.75 124.5 276.45 134.7 276.55 144 272.5 153.3 268.4 160.1 260.85 171.15 269.3 185.1 270.35 187.45 278.8 193.3 285.2 199.25 291.6 207.95 295.05 216.85 298.4 226.1 298.55L229.95 298.35Q253.3 295.35 269.85 283.45 286.2 271.6 294.45 252.15 301.9 234.6 301.15 215.45L301.15 111.9Q300.05 105.1 297.65 101.75 296 99.35 289.95 94.4 289.35 93.9 274.85 80.1M165.45 91.65L168.7 93.7Q172.55 96.5 175.8 100.25 186.15 112.25 186.15 129.35 186.15 146.5 173.15 161.75 166.65 169.35 160.15 173.55 177.6 178.7 177.35 191.1 177.25 197.3 173.65 202.45 162.85 216.65 149.5 214 145.35 213.15 141.45 210.7L115.3 189.8Q117.4 203.5 109.7 212.2 102.45 220.3 90.5 220.3 81 220.3 75.8 213.15 74.2 210.9 73.2 208.2L72.5 205.95 72.5 105.95Q69.4 94.5 73.9 89.7 76.15 87.3 79 87.15 88.8 85.8 100.6 84.45 124.25 81.75 134.3 81.75 144.35 81.75 155.9 86.7 161.7 89.2 165.45 91.65M201.35 97.1Q201.5 95.75 201.35 93.9 201.15 90.25 199.95 87.8 198.8 84.9 199.4 81.85 200.6 75.75 209.35 74.95L214.5 74.2Q220.65 73.5 226 74.05 243.1 75.7 245.15 88.6L245.2 190.3Q244.5 200.2 241.1 208.9 230.2 236.7 195.9 242.15L192.3 242.5Q187.3 242.55 182.25 240.55 172.15 236.6 171.85 226.5 171.6 221.2 174.35 215.5 179.8 204.1 194.65 202.15 196.35 202 198 200.45 201.35 197.4 201.35 190.65L201.35 97.1Z"/><path fill="#FFF" stroke="none" d="M143.35 134.75Q143.35 124 129.4 122.45 125.05 121.95 119.8 122.45L115.45 123.05 115.45 151.25 119.8 151.1Q125.05 150.7 129.4 149.45 143.35 145.5 143.35 134.75Z"/><path fill="#FFF" stroke="none" d="M274.6 80.4Q271.55 76.85 267.4 72.5 259.1 63.9 253.7 60.25 243.3 53.15 226.3 52.3 215.35 51.75 205.8 53.55 196.3 54.7 189.4 59.65 184.45 63.15 181.5 68.05 179.65 71 178.6 74.25 177 73.35 176.3 72.85 169.55 68.6 160.9 65.35 146.95 60.05 134.05 60.05 123.45 60.05 100.95 62.6 88.35 64.05 76.05 65.75 69.75 66.5 64.35 69.65 58.9 72.8 55.15 77.9 50.25 84.75 49.3 93.75 48.55 100.85 50.25 108.9L50.25 208.45 50.65 210.55Q52.25 218.75 57.45 226.15 61.1 231.2 70.25 240.45 74.8 245.05 78.65 248.65L86.55 256.95Q95.6 266 101.35 269.95 111.85 277.05 124.25 276.75 134.45 276.85 143.75 272.8 153.05 268.7 159.85 261.15 170.9 269.6 184.85 270.65 187.2 279.1 193.05 285.5 199 291.9 207.7 295.35 216.6 298.7 225.85 298.85L229.7 298.65Q253.05 295.65 269.6 283.75 285.95 271.9 294.2 252.45 301.65 234.9 300.9 215.75L300.9 112.2Q299.8 105.4 297.4 102.05 295.75 99.65 289.7 94.7 289.1 94.2 274.6 80.4M165.2 91.95L168.45 94Q172.3 96.8 175.55 100.55 185.9 112.55 185.9 129.65 185.9 146.8 172.9 162.05 166.4 169.65 159.9 173.85 177.35 179 177.1 191.4 177 197.6 173.4 202.75 162.6 216.95 149.25 214.3 145.1 213.45 141.2 211L115.05 190.1Q117.15 203.8 109.45 212.5 102.2 220.6 90.25 220.6 80.75 220.6 75.55 213.45 73.95 211.2 72.95 208.5L72.25 206.25 72.25 106.25Q69.15 94.8 73.65 90 75.9 87.6 78.75 87.45 88.55 86.1 100.35 84.75 124 82.05 134.05 82.05 144.1 82.05 155.65 87 161.45 89.5 165.2 91.95M201.1 97.4Q201.25 96.05 201.1 94.2 200.9 90.55 199.7 88.1 198.55 85.2 199.15 82.15 200.35 76.05 209.1 75.25L214.25 74.5Q220.4 73.8 225.75 74.35 242.85 76 244.9 88.9L244.95 190.6Q244.25 200.5 240.85 209.2 229.95 237 195.65 242.45L192.05 242.8Q187.05 242.85 182 240.85 171.9 236.9 171.6 226.8 171.35 221.5 174.1 215.8 179.55 204.4 194.4 202.45 196.1 202.3 197.75 200.75 201.1 197.7 201.1 190.95L201.1 97.4Z"/><path fill="#FFF" stroke="none" d="M143.1 135Q143.1 124.25 129.15 122.7 124.8 122.2 119.55 122.7L115.2 123.3 115.2 151.5 119.55 151.35Q124.8 150.95 129.15 149.7 143.1 145.75 143.1 135Z"/><use xlink:href="#Symbol-1" transform="translate(175 175.5)"/><animate attributeName="display" fill="freeze" repeatCount="1" dur="0.695s" keyTimes="0;.976;1" values="none;inline;inline"/></g><g><use xlink:href="#Symbol-1" transform="translate(175.25 175.1)"><animateTransform attributeName="transform" additive="replace" type="translate" dur="0.695s" keyTimes="0;.098;.244;.366;.951;1" values="175.25,175.1;175.261,175.106;175.311,175.104;174.125,174.575;175.25,175.25;175.25,175.25" fill="freeze"/><animateTransform attributeName="transform" additive="sum" type="scale" dur="0.695s" keyTimes="0;.098;.244;.366;.951;1" values="1,1;1.113,1.113;1.072,1.072;.876,.876;1,1;1,1" fill="freeze"/><animateTransform attributeName="transform" additive="sum" type="translate" dur="0.695s" keyTimes="0;.098;.244;.366;.951;1" values="0,0;-.1,-.05;-.15,-.05;.2,-.2;.25,-.2;.25,-.2" fill="freeze"/></use><animate attributeName="display" fill="freeze" repeatCount="1" dur="0.695s" keyTimes="0;.976;1" values="inline;none;none"/></g><g display="none"><path id="Layer49_0_1_STROKES" stroke="#FFF" stroke-width="12" stroke-linejoin="round" stroke-linecap="round" fill="none" d="M39 297.5L38 299"/><animate attributeName="display" fill="freeze" repeatCount="1" dur="0.695s" keyTimes="0;.488;.512;1" values="none;inline;none;none"/></g><g display="none"><path id="Layer48_0_1_STROKES" stroke="#FFF" stroke-width="12" stroke-linejoin="round" stroke-linecap="round" fill="none" d="M38 299L39.45 297"/><animate attributeName="display" fill="freeze" repeatCount="1" dur="0.695s" keyTimes="0;.463;.488;1" values="none;inline;none;none"/></g><g display="none"><path id="Layer47_0_1_STROKES" stroke="#FFF" stroke-width="12" stroke-linejoin="round" stroke-linecap="round" fill="none" d="M38 299L40.9 295.6"/><animate attributeName="display" fill="freeze" repeatCount="1" dur="0.695s" keyTimes="0;.439;.463;1" values="none;inline;none;none"/></g><g display="none"><path id="Layer46_0_1_STROKES" stroke="#FFF" stroke-width="12" stroke-linejoin="round" stroke-linecap="round" fill="none" d="M38 299L43.25 293.2"/><animate attributeName="display" fill="freeze" repeatCount="1" dur="0.695s" keyTimes="0;.415;.439;1" values="none;inline;none;none"/></g><g display="none"><path id="Layer45_0_1_STROKES" stroke="#FFF" stroke-width="12" stroke-linejoin="round" stroke-linecap="round" fill="none" d="M38 298.95L46.5 289.75"/><animate attributeName="display" fill="freeze" repeatCount="1" dur="0.695s" keyTimes="0;.39;.415;1" values="none;inline;none;none"/></g><g display="none"><path id="Layer44_0_1_STROKES" stroke="#FFF" stroke-width="12" stroke-linejoin="round" stroke-linecap="round" fill="none" d="M38 299L50.75 285.5"/><animate attributeName="display" fill="freeze" repeatCount="1" dur="0.695s" keyTimes="0;.366;.39;1" values="none;inline;none;none"/></g><g display="none"><path id="Layer43_0_1_STROKES" stroke="#FFF" stroke-width="12" stroke-linejoin="round" stroke-linecap="round" fill="none" d="M38 299L55 281.2"/><animate attributeName="display" fill="freeze" repeatCount="1" dur="0.695s" keyTimes="0;.341;.366;1" values="none;inline;none;none"/></g><g display="none"><path id="Layer42_0_1_STROKES" stroke="#FFF" stroke-width="12" stroke-linejoin="round" stroke-linecap="round" fill="none" d="M38 298.95L58.25 277.75"/><animate attributeName="display" fill="freeze" repeatCount="1" dur="0.695s" keyTimes="0;.317;.341;1" values="none;inline;none;none"/></g><g display="none"><path id="Layer41_0_1_STROKES" stroke="#FFF" stroke-width="12" stroke-linejoin="round" stroke-linecap="round" fill="none" d="M38 298.95L60.6 275.35"/><animate attributeName="display" fill="freeze" repeatCount="1" dur="0.695s" keyTimes="0;.293;.317;1" values="none;inline;none;none"/></g><g display="none"><path id="Layer40_0_1_STROKES" stroke="#FFF" stroke-width="12" stroke-linejoin="round" stroke-linecap="round" fill="none" d="M38 299L62.05 274"/><animate attributeName="display" fill="freeze" repeatCount="1" dur="0.695s" keyTimes="0;.268;.293;1" values="none;inline;none;none"/></g><g display="none"><path id="Layer39_0_1_STROKES" stroke="#FFF" stroke-width="12" stroke-linejoin="round" stroke-linecap="round" fill="none" d="M62.5 273.5L38 299"/><animate attributeName="display" fill="freeze" repeatCount="1" dur="0.695s" keyTimes="0;.244;.268;1" values="none;inline;none;none"/></g><g display="none"><path id="Layer38_0_1_STROKES" stroke="#FFF" stroke-width="12" stroke-linejoin="round" stroke-linecap="round" fill="none" d="M40.1 296.8L64 271.95"/><animate attributeName="display" fill="freeze" repeatCount="1" dur="0.695s" keyTimes="0;.22;.244;1" values="none;inline;none;none"/></g><g display="none"><path id="Layer37_0_1_STROKES" stroke="#FFF" stroke-width="12" stroke-linejoin="round" stroke-linecap="round" fill="none" d="M46.35 290.25L68.45 267.45"/><animate attributeName="display" fill="freeze" repeatCount="1" dur="0.695s" keyTimes="0;.195;.22;1" values="none;inline;none;none"/></g><g display="none"><path id="Layer36_0_1_STROKES" stroke="#FFF" stroke-width="12" stroke-linejoin="round" stroke-linecap="round" fill="none" d="M56.75 279.15L75.9 259.7"/><animate attributeName="display" fill="freeze" repeatCount="1" dur="0.695s" keyTimes="0;.171;.195;1" values="none;inline;none;none"/></g><g display="none"><path id="Layer35_0_1_STROKES" stroke="#FFF" stroke-width="12" stroke-linejoin="round" stroke-linecap="round" fill="none" d="M70.25 264.9L85.6 249.85"/><animate attributeName="display" fill="freeze" repeatCount="1" dur="0.695s" keyTimes="0;.146;.171;1" values="none;inline;none;none"/></g><g display="none"><path id="Layer34_0_1_STROKES" stroke="#FFF" stroke-width="12" stroke-linejoin="round" stroke-linecap="round" fill="none" d="M80.65 253.8L93.05 242.1"/><animate attributeName="display" fill="freeze" repeatCount="1" dur="0.695s" keyTimes="0;.122;.146;1" values="none;inline;none;none"/></g><g display="none"><path id="Layer33_0_1_STROKES" stroke="#FFF" stroke-width="12" stroke-linejoin="round" stroke-linecap="round" fill="none" d="M86.9 247.2L97.5 237.55"/><animate attributeName="display" fill="freeze" repeatCount="1" dur="0.695s" keyTimes="0;.098;.122;1" values="none;inline;none;none"/></g><g display="none"><path id="Layer32_0_1_STROKES" stroke="#FFF" stroke-width="12" stroke-linejoin="round" stroke-linecap="round" fill="none" d="M99 236L89 245"/><animate attributeName="display" fill="freeze" repeatCount="1" dur="0.695s" keyTimes="0;.073;.098;1" values="none;inline;none;none"/></g><g display="none"><path id="Layer30_0_1_STROKES" stroke="#FFF" stroke-width="12" stroke-linejoin="round" stroke-linecap="round" fill="none" d="M89 245L99 236"/><animate attributeName="display" fill="freeze" repeatCount="1" dur="0.695s" keyTimes="0;.024;.073;1" values="none;inline;none;none"/></g><g><path id="Layer29_0_1_STROKES" stroke="#FFF" stroke-width="12" stroke-linejoin="round" stroke-linecap="round" fill="none" d="M99 236L89 245"/><animate attributeName="display" fill="freeze" repeatCount="1" dur="0.695s" keyTimes="0;.024;1" values="inline;none;none"/></g><g display="none"><path id="Layer28_0_1_STROKES" stroke="#FFF" stroke-width="12" stroke-linejoin="round" stroke-linecap="round" fill="none" d="M332 323.9L330.5 322.9"/><animate attributeName="display" fill="freeze" repeatCount="1" dur="0.695s" keyTimes="0;.659;.683;1" values="none;inline;none;none"/></g><g display="none"><path id="Layer27_0_1_STROKES" stroke="#FFF" stroke-width="12" stroke-linejoin="round" stroke-linecap="round" fill="none" d="M329.75 322.2L331.5 323.5"/><animate attributeName="display" fill="freeze" repeatCount="1" dur="0.695s" keyTimes="0;.634;.659;1" values="none;inline;none;none"/></g><g display="none"><path id="Layer26_0_1_STROKES" stroke="#FFF" stroke-width="12" stroke-linejoin="round" stroke-linecap="round" fill="none" d="M327.65 320L330.2 322.15"/><animate attributeName="display" fill="freeze" repeatCount="1" dur="0.695s" keyTimes="0;.61;.634;1" values="none;inline;none;none"/></g><g display="none"><path id="Layer25_0_1_STROKES" stroke="#FFF" stroke-width="12" stroke-linejoin="round" stroke-linecap="round" fill="none" d="M324.15 316.3L328.1 319.85"/><animate attributeName="display" fill="freeze" repeatCount="1" dur="0.695s" keyTimes="0;.585;.61;1" values="none;inline;none;none"/></g><g display="none"><path id="Layer24_0_1_STROKES" stroke="#FFF" stroke-width="12" stroke-linejoin="round" stroke-linecap="round" fill="none" d="M319.55 311.45L325.2 316.85"/><animate attributeName="display" fill="freeze" repeatCount="1" dur="0.695s" keyTimes="0;.561;.585;1" values="none;inline;none;none"/></g><g display="none"><path id="Layer23_0_1_STROKES" stroke="#FFF" stroke-width="12" stroke-linejoin="round" stroke-linecap="round" fill="none" d="M316.05 307.75L323.1 314.55"/><animate attributeName="display" fill="freeze" repeatCount="1" dur="0.695s" keyTimes="0;.537;.561;1" values="none;inline;none;none"/></g><g display="none"><path id="Layer22_0_1_STROKES" stroke="#FFF" stroke-width="12" stroke-linejoin="round" stroke-linecap="round" fill="none" d="M313.95 305.55L321.8 313.2"/><animate attributeName="display" fill="freeze" repeatCount="1" dur="0.695s" keyTimes="0;.512;.537;1" values="none;inline;none;none"/></g><g display="none"><path id="Layer21_0_1_STROKES" stroke="#FFF" stroke-width="12" stroke-linejoin="round" stroke-linecap="round" fill="none" d="M313.25 304.85L321.35 312.8"/><animate attributeName="display" fill="freeze" repeatCount="1" dur="0.695s" keyTimes="0;.488;.512;1" values="none;inline;none;none"/></g><g display="none"><path id="Layer20_0_1_STROKES" stroke="#FFF" stroke-width="12" stroke-linejoin="round" stroke-linecap="round" fill="none" d="M312.65 304.25L320.95 312.4"/><animate attributeName="display" fill="freeze" repeatCount="1" dur="0.695s" keyTimes="0;.463;.488;1" values="none;inline;none;none"/></g><g display="none"><path id="Layer19_0_1_STROKES" stroke="#FFF" stroke-width="12" stroke-linejoin="round" stroke-linecap="round" fill="none" d="M310.75 302.5L319.85 311.2"/><animate attributeName="display" fill="freeze" repeatCount="1" dur="0.695s" keyTimes="0;.439;.463;1" values="none;inline;none;none"/></g><g display="none"><path id="Layer18_0_1_STROKES" stroke="#FFF" stroke-width="12" stroke-linejoin="round" stroke-linecap="round" fill="none" d="M307.65 299.55L317.95 309.2"/><animate attributeName="display" fill="freeze" repeatCount="1" dur="0.695s" keyTimes="0;.415;.439;1" values="none;inline;none;none"/></g><g display="none"><path id="Layer17_0_1_STROKES" stroke="#FFF" stroke-width="12" stroke-linejoin="round" stroke-linecap="round" fill="none" d="M303.3 295.4L315.3 306.4"/><animate attributeName="display" fill="freeze" repeatCount="1" dur="0.695s" keyTimes="0;.39;.415;1" values="none;inline;none;none"/></g><g display="none"><path id="Layer16_0_1_STROKES" stroke="#FFF" stroke-width="12" stroke-linejoin="round" stroke-linecap="round" fill="none" d="M298.95 291.25L312.6 303.6"/><animate attributeName="display" fill="freeze" repeatCount="1" dur="0.695s" keyTimes="0;.366;.39;1" values="none;inline;none;none"/></g><g display="none"><path id="Layer15_0_1_STROKES" stroke="#FFF" stroke-width="12" stroke-linejoin="round" stroke-linecap="round" fill="none" d="M295.85 288.35L310.7 301.65"/><animate attributeName="display" fill="freeze" repeatCount="1" dur="0.695s" keyTimes="0;.341;.366;1" values="none;inline;none;none"/></g><g display="none"><path id="Layer14_0_1_STROKES" stroke="#FFF" stroke-width="12" stroke-linejoin="round" stroke-linecap="round" fill="none" d="M293.95 286.6L309.6 300.45"/><animate attributeName="display" fill="freeze" repeatCount="1" dur="0.695s" keyTimes="0;.317;.341;1" values="none;inline;none;none"/></g><g display="none"><path id="Layer13_0_1_STROKES" stroke="#FFF" stroke-width="12" stroke-linejoin="round" stroke-linecap="round" fill="none" d="M293.35 286L309.2 300.05"/><animate attributeName="display" fill="freeze" repeatCount="1" dur="0.695s" keyTimes="0;.293;.317;1" values="none;inline;none;none"/></g><g display="none"><path id="Layer12_0_1_STROKES" stroke="#FFF" stroke-width="12" stroke-linejoin="round" stroke-linecap="round" fill="none" d="M293 285.6L308.7 299.55"/><animate attributeName="display" fill="freeze" repeatCount="1" dur="0.695s" keyTimes="0;.268;.293;1" values="none;inline;none;none"/></g><g display="none"><path id="Layer11_0_1_STROKES" stroke="#FFF" stroke-width="12" stroke-linejoin="round" stroke-linecap="round" fill="none" d="M291.95 284.3L307.2 297.95"/><animate attributeName="display" fill="freeze" repeatCount="1" dur="0.695s" keyTimes="0;.244;.268;1" values="none;inline;none;none"/></g><g display="none"><path id="Layer10_0_1_STROKES" stroke="#FFF" stroke-width="12" stroke-linejoin="round" stroke-linecap="round" fill="none" d="M290.15 282.3L304.65 295.4"/><animate attributeName="display" fill="freeze" repeatCount="1" dur="0.695s" keyTimes="0;.22;.244;1" values="none;inline;none;none"/></g><g display="none"><path id="Layer9_0_1_STROKES" stroke="#FFF" stroke-width="12" stroke-linejoin="round" stroke-linecap="round" fill="none" d="M287.65 279.45L301.1 291.8"/><animate attributeName="display" fill="freeze" repeatCount="1" dur="0.695s" keyTimes="0;.195;.22;1" values="none;inline;none;none"/></g><g display="none"><path id="Layer8_0_1_STROKES" stroke="#FFF" stroke-width="12" stroke-linejoin="round" stroke-linecap="round" fill="none" d="M284.55 275.7L296.65 287.1"/><animate attributeName="display" fill="freeze" repeatCount="1" dur="0.695s" keyTimes="0;.171;.195;1" values="none;inline;none;none"/></g><g display="none"><path id="Layer7_0_1_STROKES" stroke="#FFF" stroke-width="12" stroke-linejoin="round" stroke-linecap="round" fill="none" d="M280.65 271.25L291.05 281.5"/><animate attributeName="display" fill="freeze" repeatCount="1" dur="0.695s" keyTimes="0;.146;.171;1" values="none;inline;none;none"/></g><g display="none"><path id="Layer6_0_1_STROKES" stroke="#FFF" stroke-width="12" stroke-linejoin="round" stroke-linecap="round" fill="none" d="M276.75 266.7L285.5 275.85"/><animate attributeName="display" fill="freeze" repeatCount="1" dur="0.695s" keyTimes="0;.122;.146;1" values="none;inline;none;none"/></g><g display="none"><path id="Layer5_0_1_STROKES" stroke="#FFF" stroke-width="12" stroke-linejoin="round" stroke-linecap="round" fill="none" d="M273.65 263L281.05 271.2"/><animate attributeName="display" fill="freeze" repeatCount="1" dur="0.695s" keyTimes="0;.098;.122;1" values="none;inline;none;none"/></g><g display="none"><path id="Layer4_0_1_STROKES" stroke="#FFF" stroke-width="12" stroke-linejoin="round" stroke-linecap="round" fill="none" d="M271.15 260.15L277.55 267.6"/><animate attributeName="display" fill="freeze" repeatCount="1" dur="0.695s" keyTimes="0;.073;.098;1" values="none;inline;none;none"/></g><g display="none"><path id="Layer3_0_1_STROKES" stroke="#FFF" stroke-width="12" stroke-linejoin="round" stroke-linecap="round" fill="none" d="M269.35 258.1L274.95 265"/><animate attributeName="display" fill="freeze" repeatCount="1" dur="0.695s" keyTimes="0;.049;.073;1" values="none;inline;none;none"/></g><g display="none"><path id="Layer2_0_1_STROKES" stroke="#FFF" stroke-width="12" stroke-linejoin="round" stroke-linecap="round" fill="none" d="M268.35 256.85L273.5 263.45"/><animate attributeName="display" fill="freeze" repeatCount="1" dur="0.695s" keyTimes="0;.024;.049;1" values="none;inline;none;none"/></g><g><path id="Layer1_0_1_STROKES" stroke="#FFF" stroke-width="12" stroke-linejoin="round" stroke-linecap="round" fill="none" d="M273 262.95L268 256.45"/><animate attributeName="display" fill="freeze" repeatCount="1" dur="0.695s" keyTimes="0;.024;1" values="inline;none;none"/></g></g></svg>