<?xml version="1.0" encoding="utf-8"?>
<!-- Generator: Adobe Illustrator 22.0.0, SVG Export Plug-In . SVG Version: 6.00 Build 0)  -->
<svg version="1.1" id="Layer_1" xmlns="http://www.w3.org/2000/svg" xmlns:xlink="http://www.w3.org/1999/xlink" x="0px" y="0px" viewBox="0 0 1038.9 82.7" style="enable-background:new 0 0 1038.9 82.7;" xml:space="preserve">
<style type="text/css">
	.st0{enable-background:new    ;}
	.st1{fill:#FFFFFF;}
</style>
<title>tagline</title>
<g class="st0">
	<path class="st1" d="M64.2,5.5c0,0.9-0.6,1.6-1.3,1.6h-2.7v42.3c0,17-11.8,30.9-26.2,30.9S7.8,66.4,7.8,49.4V7.1H3.5
		c-0.7,0-1.3-0.6-1.3-1.5c0-0.9,0.5-1.5,1.3-1.5h23.4c0.7,0,1.3,0.6,1.3,1.5c0,0.9-0.5,1.5-1.3,1.5h-4.2v66.5
		c3.3,2.1,7.2,3.4,11.3,3.4s8-1.3,11.3-3.4V7.1H40c-0.7,0-1.4-0.7-1.4-1.6c0-0.9,0.7-1.4,1.4-1.4h22.9C63.5,4.1,64.2,4.7,64.2,5.5z"
		/>
	<path class="st1" d="M128.5,5.6c0,0.9-0.5,1.5-1.3,1.5H121v69.9c0,2-0.5,3.2-1.3,3.2s-1.6-0.6-2.4-2L78.6,12.3v63.3h8.2
		c0.7,0,1.4,0.6,1.4,1.5c0,1-0.6,1.5-1.4,1.5H70.1c-0.6,0-1.3-0.5-1.3-1.5c0-0.9,0.6-1.5,1.3-1.5h5.7V7.1h-5c-0.6,0-1.2-0.6-1.2-1.5
		c0-1,0.5-1.5,1.2-1.5h19.3c0.3,0,0.6,0.1,0.8,0.4l27.3,46.5v-44h-6c-0.8,0-1.4-0.6-1.4-1.5c0-0.9,0.5-1.5,1.4-1.5h14.8
		C127.9,4.1,128.5,4.8,128.5,5.6z"/>
	<path class="st1" d="M195,41.3c0,22.5-12.7,37.4-31.6,37.4h-26.2c-0.7,0-1.3-0.5-1.3-1.5c0-0.9,0.5-1.5,1.3-1.5h5V7.1h-4.3
		c-0.7,0-1.3-0.6-1.3-1.5c0-0.9,0.5-1.5,1.3-1.5h25.6C182.3,4.1,195,18.9,195,41.3z M163.3,75.7c6.1,0,11.6-1.7,16-4.9V12
		c-4.4-3.2-9.9-4.9-16-4.9h-7.1v68.5H163.3z"/>
	<path class="st1" d="M246.2,63.4v13.7c0,0.9-0.6,1.5-1.4,1.5h-40.9c-0.8,0-1.3-0.7-1.3-1.5c0-0.9,0.5-1.5,1.3-1.5h4.2V7.1h-3.8
		c-0.8,0-1.3-0.6-1.3-1.5c0-0.7,0.5-1.5,1.3-1.5h39.9c0.8,0,1.4,0.6,1.4,1.5v12.1c0,1-0.7,1.5-1.4,1.5s-1.4-0.5-1.4-1.5V7.1h-20.6
		v31.3h18v-5.9c0-1,0.6-1.5,1.4-1.5c0.6,0,1.4,0.5,1.4,1.5v14.3c0,1-0.6,1.5-1.3,1.5c-0.8,0-1.4-0.5-1.4-1.5v-5.4h-18v34.3h21.2
		V63.4c0-1.1,0.7-1.6,1.4-1.6S246.2,62.4,246.2,63.4z"/>
	<path class="st1" d="M309.2,77.2c0,1-0.6,1.5-1.4,1.5h-17.2c-0.8,0-1.4-0.6-1.4-1.6V45H275v30.7h2.8c0.8,0,1.3,0.6,1.3,1.5
		s-0.5,1.5-1.3,1.5h-21.7c-0.7,0-1.3-0.6-1.3-1.5s0.5-1.5,1.3-1.5h4.8V7h-4.2c-0.8,0-1.3-0.6-1.3-1.6c0-0.9,0.5-1.3,1.3-1.3h29.6
		c10.4,0,17.8,7.2,17.8,20.4c0,8.1-3.8,14.9-9.3,18.3c5.2,2.1,8.9,7.9,8.9,14.7v18.1h4.1C308.5,75.7,309.2,76.3,309.2,77.2z
		 M289.3,41.8V7.2c-1-0.1-2-0.2-3-0.2H275v35h12.1C287.8,42,288.5,41.9,289.3,41.8z"/>
	<path class="st1" d="M402.2,69.4c0,0.4-0.2,0.9-0.5,1.2c-5.6,6.7-12.7,9.7-24.6,9.7c-15.4,0-30.9-13.9-30.9-38.8
		c0-24.8,15.5-39,30.9-39c8.4,0,15.5,3.3,19.3,8.9V4c0-1,0.7-1.5,1.4-1.5c0.6,0,1.4,0.5,1.4,1.5v17.5c0,1.1-0.7,1.6-1.4,1.6
		c-0.6,0-1.4-0.5-1.4-1.6V21c0-9.2-7.8-15.5-19.3-15.5c-5.4,0-10.3,1.7-14.6,4.8v62.3c4.2,3.1,9.1,4.8,14.6,4.8
		c11.4,0,17.6-2.7,22.8-8.9c0.3-0.3,0.6-0.5,0.9-0.5c0.4,0,0.6,0.1,0.9,0.4C402,68.5,402.2,69,402.2,69.4z"/>
	<path class="st1" d="M468.9,41.4c0,23.2-13.1,38.8-32.7,38.8c-19.7,0-32.8-15.6-32.8-38.8c0-23.3,13.1-39,32.8-39
		C455.8,2.4,468.9,18.1,468.9,41.4z M436.2,77.3c6.1,0,11.6-1.7,16.1-4.7V10.1c-4.5-3-9.9-4.7-16.1-4.7s-11.7,1.7-16.2,4.7v62.5
		C424.5,75.6,430,77.3,436.2,77.3z"/>
	<path class="st1" d="M533.6,5.6c0,0.9-0.5,1.5-1.3,1.5h-6.1v69.9c0,2-0.5,3.2-1.3,3.2s-1.6-0.6-2.4-2l-38.8-65.9v63.3h8.2
		c0.7,0,1.4,0.6,1.4,1.5c0,1-0.6,1.5-1.4,1.5h-16.6c-0.6,0-1.3-0.5-1.3-1.5c0-0.9,0.6-1.5,1.3-1.5h5.7V7.1h-5
		c-0.6,0-1.2-0.6-1.2-1.5c0-1,0.5-1.5,1.2-1.5h19.3c0.3,0,0.6,0.1,0.8,0.4l27.3,46.5v-44h-6c-0.8,0-1.4-0.6-1.4-1.5
		c0-0.9,0.5-1.5,1.4-1.5h14.8C533.1,4.1,533.6,4.8,533.6,5.6z"/>
	<path class="st1" d="M579.5,59.9c0,10.6-7.9,20.3-19.8,20.3c-6.4,0-13.4-3.3-17.1-8.7v7.1c0,0.9-0.6,1.5-1.4,1.5
		c-0.7,0-1.4-0.6-1.4-1.5V59.9c0-0.9,0.6-1.5,1.4-1.5c0.7,0,1.4,0.6,1.4,1.5v3c0,7.5,8,14.2,17.1,14.2c5.4,0,9.9-2.2,12.8-5.6
		l-25.5-35.8c-3.8-5.3-5.8-10.9-5.8-15.9c0-9.7,6.8-17.2,17.9-17.2c5.3,0,10.8,3,13.9,7.5V4.1c0-0.9,0.6-1.5,1.4-1.5
		c0.7,0,1.4,0.6,1.4,1.5v15.6c0,0.9-0.6,1.6-1.4,1.6c-0.7,0-1.4-0.7-1.4-1.6v-1.7c0-6.2-6.8-12.3-13.9-12.3c-4.5,0-8.1,1.4-10.8,3.6
		l26.8,37.5C578.3,51,579.5,55.4,579.5,59.9z"/>
	<path class="st1" d="M630.1,5.6v13.1c0,0.9-0.6,1.6-1.4,1.6c-0.7,0-1.4-0.7-1.4-1.6V7.1H612v68.5h5.2c0.6,0,1.3,0.6,1.3,1.5
		s-0.6,1.5-1.3,1.5h-24.2c-0.7,0-1.4-0.6-1.4-1.5s0.6-1.5,1.4-1.5h5V7.1h-15.1v11.6c0,0.9-0.5,1.6-1.4,1.6c-0.7,0-1.4-0.7-1.4-1.6
		V5.6c0-0.9,0.6-1.5,1.4-1.5h47.4C629.5,4.1,630.1,4.8,630.1,5.6z"/>
	<path class="st1" d="M688.5,77.2c0,1-0.6,1.5-1.4,1.5h-17.2c-0.8,0-1.4-0.6-1.4-1.6V45h-14.3v30.7h2.8c0.8,0,1.3,0.6,1.3,1.5
		s-0.5,1.5-1.3,1.5h-21.7c-0.7,0-1.3-0.6-1.3-1.5s0.5-1.5,1.3-1.5h4.8V7h-4.2c-0.8,0-1.3-0.6-1.3-1.6c0-0.9,0.5-1.3,1.3-1.3h29.6
		c10.4,0,17.8,7.2,17.8,20.4c0,8.1-3.8,14.9-9.3,18.3c5.2,2.1,8.9,7.9,8.9,14.7v18.1h4.1C687.8,75.7,688.5,76.3,688.5,77.2z
		 M668.6,41.8V7.2c-1-0.1-2-0.2-3-0.2h-11.3v35h12.1C667.1,42,667.8,41.9,668.6,41.8z"/>
	<path class="st1" d="M752.9,4.1c0.6,0,1.3,0.5,1.3,1.4c0,0.9-0.6,1.6-1.3,1.6h-2.7v42.3c0,17-11.8,30.9-26.2,30.9
		s-26.2-13.8-26.2-30.9V7.1h-4.2c-0.7,0-1.3-0.6-1.3-1.5c0-0.9,0.5-1.5,1.3-1.5h23.4c0.7,0,1.3,0.6,1.3,1.5c0,0.9-0.5,1.5-1.3,1.5
		h-4.2v66.5c3.3,2.1,7.2,3.4,11.3,3.4c4.1,0,8-1.3,11.3-3.4V7.1H730c-0.7,0-1.4-0.7-1.4-1.6c0-0.9,0.7-1.4,1.4-1.4H752.9L752.9,4.1z
		"/>
	<path class="st1" d="M815.1,69.4c0,0.4-0.2,0.9-0.5,1.2c-5.6,6.7-12.7,9.7-24.6,9.7c-15.4,0-30.9-13.9-30.9-38.8
		c0-24.8,15.5-39,30.9-39c8.4,0,15.5,3.3,19.3,8.9V4c0-1,0.7-1.5,1.4-1.5c0.6,0,1.4,0.5,1.4,1.5v17.5c0,1.1-0.7,1.6-1.4,1.6
		c-0.6,0-1.4-0.5-1.4-1.6V21c0-9.2-7.8-15.5-19.3-15.5c-5.4,0-10.3,1.7-14.6,4.8v62.3c4.2,3.1,9.1,4.8,14.6,4.8
		c11.4,0,17.6-2.7,22.8-8.9c0.3-0.3,0.6-0.5,0.9-0.5c0.4,0,0.6,0.1,0.9,0.4C814.9,68.5,815.1,69,815.1,69.4z"/>
	<path class="st1" d="M865.7,5.6v13.1c0,0.9-0.6,1.6-1.4,1.6c-0.7,0-1.4-0.7-1.4-1.6V7.1h-15.5v68.5h5.2c0.6,0,1.3,0.6,1.3,1.5
		s-0.6,1.5-1.3,1.5h-24.2c-0.7,0-1.4-0.6-1.4-1.5s0.6-1.5,1.4-1.5h5V7.1h-15.1v11.6c0,0.9-0.5,1.6-1.4,1.6c-0.7,0-1.4-0.7-1.4-1.6
		V5.6c0-0.9,0.6-1.5,1.4-1.5h47.4C865.1,4.1,865.7,4.8,865.7,5.6z"/>
	<path class="st1" d="M896.6,77.2c0,1-0.5,1.5-1.3,1.5H871c-0.7,0-1.3-0.5-1.3-1.5c0-0.9,0.5-1.5,1.3-1.5h4.9V7.1h-4.2
		c-0.9,0-1.4-0.6-1.4-1.5c0-0.9,0.5-1.5,1.4-1.5h22.8c0.7,0,1.3,0.6,1.3,1.5c0,0.9-0.5,1.5-1.3,1.5H890v68.5h5.4
		C896.1,75.7,896.6,76.3,896.6,77.2z"/>
	<path class="st1" d="M969.9,41.4c0,23.2-13.1,38.8-32.7,38.8c-19.7,0-32.8-15.6-32.8-38.8c0-23.3,13.1-39,32.8-39
		C956.8,2.4,969.9,18.1,969.9,41.4z M937.1,77.3c6.1,0,11.6-1.7,16.1-4.7V10.1c-4.5-3-9.9-4.7-16.1-4.7s-11.7,1.7-16.2,4.7v62.5
		C925.5,75.6,931,77.3,937.1,77.3z"/>
	<path class="st1" d="M1034.6,5.6c0,0.9-0.5,1.5-1.3,1.5h-6.1v69.9c0,2-0.5,3.2-1.3,3.2s-1.6-0.6-2.4-2l-38.8-65.9v63.3h8.2
		c0.7,0,1.4,0.6,1.4,1.5c0,1-0.6,1.5-1.4,1.5h-16.6c-0.6,0-1.3-0.5-1.3-1.5c0-0.9,0.6-1.5,1.3-1.5h5.7V7.1h-5
		c-0.6,0-1.2-0.6-1.2-1.5c0-1,0.5-1.5,1.2-1.5h19.3c0.3,0,0.6,0.1,0.8,0.4l27.3,46.5v-44h-6c-0.8,0-1.4-0.6-1.4-1.5
		c0-0.9,0.5-1.5,1.4-1.5h14.8C1034,4.1,1034.6,4.8,1034.6,5.6z"/>
</g>
</svg>
