<?xml version="1.0" encoding="utf-8"?>
<!-- Generator: Adobe Illustrator 21.1.0, SVG Export Plug-In . SVG Version: 6.00 Build 0)  -->
<svg version="1.1" id="Layer_1" xmlns="http://www.w3.org/2000/svg" xmlns:xlink="http://www.w3.org/1999/xlink" x="0px" y="0px"
	 viewBox="0 0 1080.3 188.5" style="enable-background:new 0 0 1080.3 188.5;" xml:space="preserve">
<style type="text/css">
	.st0{enable-background:new    ;}
	.st1{fill:#FFFFFF;}
</style>
<title>tagline</title>
<g class="st0">
	<path class="st1" d="M248.1,150.1c0,1.4-0.9,2.5-2,2.5h-38.9c-1.1,0-2-1.1-2-2.5c0-1.2,0.9-2.5,2-2.5h8.5l-8-30.3h-43.8l-8.3,30.3
		h10.1c1.1,0,2,1.2,2,2.5c0,1.4-0.9,2.5-2,2.5h-23.3c-1.1,0-2-1.1-2-2.5c0-1.2,0.9-2.5,2-2.5h8.5l31.4-114.6h-8.8
		c-1.1,0-2-1.1-2-2.5c0-1.4,0.9-2.5,2-2.5h33.1c1.2,0,2.1,0.7,2.6,2.3l30.7,117.3h6.2C247.2,147.6,248.1,148.8,248.1,150.1z
		 M206.5,112.3l-20.1-76.7l-21.2,76.7H206.5z M220.4,147.6h14.8L205.3,32.9h-14.8L220.4,147.6z"/>
	<path class="st1" d="M312.5,152.6h-54.4c-1.5,0-2.3-1.2-2.3-2.5c0-1.1,0.8-2.5,2.3-2.5h8.2V32.9h-7c-1.5,0-2.3-1.2-2.3-2.5
		c0-1.2,0.8-2.5,2.3-2.5h52.9c14.1,0,25.7,13.7,25.7,30.3c0,12.1-6.3,22.8-15.3,27.6c11,4.8,18.7,17.3,18.7,31.9
		C341.4,136.9,328.5,152.4,312.5,152.6z M270.8,147.6h14.5V32.9h-14.5V147.6z M312.2,32.9h-22.4v50.6h22.4c1.1,0,2-0.2,3-0.2v-50
		C314.1,33.1,313.2,32.9,312.2,32.9z M312.2,147.6c1.1,0,2,0,3-0.2V88.7c-1.1-0.2-2-0.2-3-0.2h-22.4v59.1H312.2z M319.7,34.7v47
		c7.9-3.6,13.6-12.8,13.6-23.5C333.3,47.7,327.6,38.5,319.7,34.7z M336.8,117.7c0-13-7.1-24-17.1-27.8v56.2
		C329.7,142.2,336.8,131,336.8,117.7z"/>
	<path class="st1" d="M464.6,90.3c0,38.8-21.9,65-54.7,65c-33,0-54.9-26.2-54.9-65c0-39,21.9-65.1,54.9-65.1
		C442.6,25.1,464.6,51.3,464.6,90.3z M378.2,138.9V41.5c-11.9,10.5-18.9,27.6-18.9,48.8C359.3,111.4,366.3,128.5,378.2,138.9z
		 M409.8,150.2c10.3,0,19.3-2.8,26.9-7.8V37.9c-7.6-5-16.6-7.8-26.9-7.8c-10.3,0-19.5,2.8-27.1,7.8v104.5
		C390.3,147.4,399.6,150.2,409.8,150.2z M460.2,90.3c0-21.4-7-38.4-18.9-48.8v97.4C453.2,128.5,460.2,111.4,460.2,90.3z"/>
	<path class="st1" d="M574.3,30.3c0,1.4-1.1,2.7-2.1,2.7H566v72.6c0,27.4-19,49.7-42.3,49.7c-23.3,0-42.3-22.2-42.3-49.7V32.9h-7.1
		c-1.2,0-2.1-1.1-2.1-2.5c0-1.4,0.9-2.5,2.1-2.5h39.2c1.2,0,2.1,1.1,2.1,2.5c0,1.4-0.9,2.5-2.1,2.5h-7v112c5.1,3.2,11,5,17.2,5
		c6.2,0,12.1-1.8,17.2-5v-112h-7c-1.2,0-2.4-1.2-2.4-2.7s1.2-2.3,2.4-2.3h38.2C573.3,28,574.3,28.9,574.3,30.3z M501.9,141.7V32.9
		h-16v72.6C485.9,120.5,492.2,133.7,501.9,141.7z M561.5,32.9h-16v108.8c9.7-8,16-21.2,16-36.1V32.9z"/>
	<path class="st1" d="M662.3,30.5v21.9c0,1.4-1.1,2.7-2.3,2.7s-2.3-1.2-2.3-2.7V32.9h-25.9v114.6h8.6c1.1,0,2.1,1.1,2.1,2.5
		s-1.1,2.5-2.1,2.5H600c-1.2,0-2.3-1.1-2.3-2.5s1.1-2.5,2.3-2.5h8.3V32.9h-25.2v19.4c0,1.4-0.9,2.7-2.3,2.7c-1.2,0-2.3-1.2-2.3-2.7
		V30.5c0-1.4,1.1-2.5,2.3-2.5H660C661.2,28,662.3,29,662.3,30.5z M627.4,32.9h-14.5v114.6h14.5V32.9z"/>
	<path class="st1" d="M847.3,150.1c0,1.4-0.8,2.5-2.1,2.5h-38.4c-1.5,0-2.3-1.2-2.3-2.5s0.8-2.5,2.3-2.5h6.5V41.8l-0.2,1.2
		l-35.5,110.4c-0.5,1.2-1.2,1.8-2,1.8s-1.5-0.5-2-1.6L729.6,42.6v105h12.5c1.4,0,2.1,1.2,2.1,2.5c0,1.4-0.8,2.5-2.1,2.5h-27.8
		c-1.4,0-2.1-1.1-2.1-2.5c0-1.2,0.8-2.5,2.1-2.5H725V32.9h-8.5c-1.2,0-2.3-1.1-2.3-2.5c0-1.4,1.1-2.5,2.3-2.5h31.3
		c1.2,0,2.1,0.7,2.6,2l34.3,86.3l27.8-86.1c0.5-1.6,1.4-2.1,2.6-2.1h28.6c1.4,0,2.1,1.2,2.1,2.5c0,1.4-0.8,2.5-2.1,2.5h-7v114.6h8.5
		C846.6,147.6,847.3,148.8,847.3,150.1z M782.5,123l-35.8-90.1h-15.9l44.6,112.3L782.5,123z M817.8,147.6h14.4V32.9h-14.4V147.6z"/>
	<path class="st1" d="M936.8,127.1v23c0,1.4-1.1,2.5-2.3,2.5h-68.5c-1.4,0-2.1-1.2-2.1-2.5c0-1.4,0.8-2.5,2.1-2.5h7.1V32.9h-6.3
		c-1.4,0-2.1-1.1-2.1-2.5c0-1.2,0.8-2.5,2.1-2.5h66.7c1.4,0,2.3,1.1,2.3,2.5v20.3c0,1.6-1.2,2.5-2.3,2.5c-1.1,0-2.3-0.9-2.3-2.5
		V32.9h-34.5v52.3h30.1v-9.8c0-1.6,1.1-2.5,2.3-2.5c1.1,0,2.3,0.9,2.3,2.5v23.9c0,1.6-1.1,2.5-2.1,2.5c-1.4,0-2.4-0.9-2.4-2.5v-9.1
		h-30.1v57.3h35.5v-20.5c0-1.8,1.2-2.7,2.3-2.7S936.8,125.3,936.8,127.1z M877.7,147.6h14.5V32.9h-14.5V147.6z"/>
</g>
</svg>
