<?xml version="1.0" encoding="utf-8"?>
<!-- Generator: Adobe Illustrator 21.1.0, SVG Export Plug-In . SVG Version: 6.00 Build 0)  -->
<svg version="1.1" id="Layer_1" xmlns="http://www.w3.org/2000/svg" xmlns:xlink="http://www.w3.org/1999/xlink" x="0px" y="0px"
	 viewBox="0 0 1080.3 188.5" style="enable-background:new 0 0 1080.3 188.5;" xml:space="preserve">
<style type="text/css">
	.st0{enable-background:new    ;}
	.st1{fill:#FFFFFF;}
	.st2{display:none;stroke:#FFFFFF;stroke-miterlimit:10;}
</style>
<title>tagline</title>
<g class="st0">
	<path class="st1" d="M153.5,135.1c0.5,0.5,0.8,1.2,0.8,2s-0.3,1.4-0.8,2c-9.4,11.2-21.2,16.2-41.1,16.2c-25.7,0-51.7-23.3-51.7-65
		c0-41.5,25.8-65.1,51.7-65.1c14.1,0,26,5.5,32.2,15l0-12.3c0-1.6,1.2-2.5,2.3-2.5c1.1,0,2.3,0.9,2.3,2.5V57c0,1.8-1.2,2.7-2.3,2.7
		c-1.1,0-2.3-0.9-2.3-2.7v-0.9c0-15.3-13-26-32.2-26c-9.1,0-17.2,2.8-24.3,8v104.1c7,5.2,15.3,8,24.3,8c19,0,29.5-4.4,38.1-15
		c0.5-0.5,1.1-0.9,1.5-0.9C152.5,134.4,153,134.6,153.5,135.1L153.5,135.1z M83.5,138.5V42C72.3,52.7,65.2,70,65.2,90.3
		C65.2,110.6,72.1,127.8,83.5,138.5z"/>
	<path class="st1" d="M265.8,90.3c0,38.8-21.9,65-54.7,65c-33,0-54.9-26.2-54.9-65c0-39,21.9-65.1,54.9-65.1
		C243.9,25.1,265.8,51.3,265.8,90.3z M179.5,138.9V41.5c-11.9,10.5-18.9,27.6-18.9,48.8C160.6,111.4,167.5,128.5,179.5,138.9z
		 M211.1,150.2c10.3,0,19.3-2.8,26.9-7.8V37.9c-7.6-5-16.6-7.8-26.9-7.8c-10.3,0-19.5,2.8-27.1,7.8v104.5
		C191.5,147.4,200.8,150.2,211.1,150.2z M261.4,90.3c0-21.4-7-38.4-18.9-48.8v97.4C254.4,128.5,261.4,111.4,261.4,90.3z"/>
	<path class="st1" d="M374,30.5c0,1.4-0.9,2.5-2.1,2.5h-10.3v116.9c0,3.4-0.8,5.3-2.1,5.3c-1.4,0-2.7-1.1-4.1-3.4L290.6,41.7v105.9
		h13.8c1.2,0,2.3,1.1,2.3,2.5c0,1.6-1.1,2.5-2.3,2.5h-27.8c-1.1,0-2.1-0.9-2.1-2.5c0-1.4,1.1-2.5,2.1-2.5h9.5V32.9h-8.3
		c-1.1,0-2-1.1-2-2.5c0-1.6,0.9-2.5,2-2.5h32.4c0.5,0,1.1,0.2,1.4,0.7l45.7,77.8V32.9h-10c-1.4,0-2.3-1.1-2.3-2.5
		c0-1.4,0.9-2.5,2.3-2.5h24.8C373.1,28,374,29,374,30.5z M357.1,145.4v-29.9l-48.5-82.6h-17.7L357.1,145.4z"/>
	<path class="st1" d="M462.3,30.5v21.9c0,1.4-1.1,2.7-2.3,2.7s-2.3-1.2-2.3-2.7V32.9h-25.9v114.6h8.6c1.1,0,2.1,1.1,2.1,2.5
		s-1.1,2.5-2.1,2.5H400c-1.2,0-2.3-1.1-2.3-2.5s1.1-2.5,2.3-2.5h8.3V32.9h-25.2v19.4c0,1.4-0.9,2.7-2.3,2.7c-1.2,0-2.3-1.2-2.3-2.7
		V30.5c0-1.4,1.1-2.5,2.3-2.5H460C461.2,28,462.3,29,462.3,30.5z M427.4,32.9h-14.5v114.6h14.5V32.9z"/>
	<path class="st1" d="M563.3,150.1c0,1.4-0.9,2.5-2,2.5h-38.9c-1.1,0-2-1.1-2-2.5c0-1.2,0.9-2.5,2-2.5h8.5l-8-30.3h-43.8l-8.3,30.3
		h10.1c1.1,0,2,1.2,2,2.5c0,1.4-0.9,2.5-2,2.5h-23.3c-1.1,0-2-1.1-2-2.5c0-1.2,0.9-2.5,2-2.5h8.5l31.4-114.6h-8.8
		c-1.1,0-2-1.1-2-2.5c0-1.4,0.9-2.5,2-2.5h33.1c1.2,0,2.1,0.7,2.6,2.3l30.7,117.3h6.2C562.4,147.6,563.3,148.8,563.3,150.1z
		 M521.7,112.3l-20.1-76.7l-21.2,76.7H521.7z M535.6,147.6h14.8L520.5,32.9h-14.8L535.6,147.6z"/>
	<path class="st1" d="M655.5,135.1c0.5,0.5,0.8,1.2,0.8,2s-0.3,1.4-0.8,2c-9.4,11.2-21.2,16.2-41.1,16.2c-25.7,0-51.7-23.3-51.7-65
		c0-41.5,25.8-65.1,51.7-65.1c14.1,0,26,5.5,32.2,15V27.8c0-1.6,1.2-2.5,2.3-2.5s2.3,0.9,2.3,2.5V57c0,1.8-1.2,2.7-2.3,2.7
		s-2.3-0.9-2.3-2.7v-0.9c0-15.3-13-26-32.2-26c-9.1,0-17.2,2.8-24.3,8v104.1c7,5.2,15.3,8,24.3,8c19,0,29.5-4.4,38.1-15
		c0.5-0.5,1.1-0.9,1.5-0.9C654.6,134.4,655,134.6,655.5,135.1L655.5,135.1z M585.5,138.5V42c-11.2,10.7-18.3,27.9-18.3,48.2
		C567.2,110.6,574.2,127.8,585.5,138.5z"/>
	<path class="st1" d="M740.9,30.5v21.9c0,1.4-1.1,2.7-2.3,2.7s-2.3-1.2-2.3-2.7V32.9h-25.8v114.6h8.6c1.1,0,2.1,1.1,2.1,2.5
		s-1.1,2.5-2.1,2.5h-40.5c-1.2,0-2.3-1.1-2.3-2.5s1.1-2.5,2.3-2.5h8.3V32.9h-25.2v19.4c0,1.4-0.9,2.7-2.3,2.7
		c-1.2,0-2.3-1.2-2.3-2.7V30.5c0-1.4,1.1-2.5,2.3-2.5h79.2C739.8,28,740.9,29,740.9,30.5z M706,32.9h-14.5v114.6H706V32.9z"/>
	<path class="st1" d="M925.9,150.1c0,1.4-0.8,2.5-2.1,2.5h-38.4c-1.5,0-2.3-1.2-2.3-2.5s0.8-2.5,2.3-2.5h6.5V41.8l-0.2,1.2
		l-35.5,110.4c-0.5,1.2-1.2,1.8-2,1.8s-1.5-0.5-2-1.6L808.2,42.6v105h12.5c1.4,0,2.1,1.2,2.1,2.5c0,1.4-0.8,2.5-2.1,2.5h-27.8
		c-1.4,0-2.1-1.1-2.1-2.5c0-1.2,0.8-2.5,2.1-2.5h10.7V32.9h-8.5c-1.2,0-2.3-1.1-2.3-2.5c0-1.4,1.1-2.5,2.3-2.5h31.3
		c1.2,0,2.1,0.7,2.6,2l34.3,86.3l27.8-86.1c0.5-1.6,1.4-2.1,2.6-2.1h28.6c1.4,0,2.1,1.2,2.1,2.5c0,1.4-0.8,2.5-2.1,2.5h-7v114.6h8.5
		C925.2,147.6,925.9,148.8,925.9,150.1z M861.1,123l-35.8-90.1h-15.9L854,145.3L861.1,123z M896.5,147.6h14.4V32.9h-14.4V147.6z"/>
	<path class="st1" d="M1015.4,127.1v23c0,1.4-1.1,2.5-2.3,2.5h-68.5c-1.4,0-2.1-1.2-2.1-2.5c0-1.4,0.8-2.5,2.1-2.5h7.1V32.9h-6.3
		c-1.4,0-2.1-1.1-2.1-2.5c0-1.2,0.8-2.5,2.1-2.5h66.7c1.4,0,2.3,1.1,2.3,2.5v20.3c0,1.6-1.2,2.5-2.3,2.5c-1.1,0-2.3-0.9-2.3-2.5
		V32.9h-34.5v52.3h30.1v-9.8c0-1.6,1.1-2.5,2.3-2.5c1.1,0,2.3,0.9,2.3,2.5v23.9c0,1.6-1.1,2.5-2.1,2.5c-1.4,0-2.4-0.9-2.4-2.5v-9.1
		h-30.1v57.3h35.5v-20.5c0-1.8,1.2-2.7,2.3-2.7S1015.4,125.3,1015.4,127.1z M956.3,147.6h14.5V32.9h-14.5V147.6z"/>
</g>
<rect class="st2" width="1080.3" height="188.5"/>
</svg>
