<?xml version="1.0" encoding="utf-8"?>
<!-- Generator: Adobe Illustrator 21.1.0, SVG Export Plug-In . SVG Version: 6.00 Build 0)  -->
<svg version="1.1" id="Layer_1" xmlns="http://www.w3.org/2000/svg" xmlns:xlink="http://www.w3.org/1999/xlink" x="0px" y="0px"
	 viewBox="0 0 1080.3 188.5" style="enable-background:new 0 0 1080.3 188.5;" xml:space="preserve">
<style type="text/css">
	.st0{enable-background:new    ;}
	.st1{fill:#FFFFFF;}
	.st2{display:none;stroke:#FFFFFF;stroke-miterlimit:10;}
</style>
<title>tagline</title>
<g class="st0">
	<path class="st1" d="M305.3,127.1v23c0,1.4-1.1,2.5-2.3,2.5h-68.5c-1.4,0-2.1-1.2-2.1-2.5c0-1.4,0.8-2.5,2.1-2.5h7.1V32.9h-6.3
		c-1.4,0-2.1-1.1-2.1-2.5c0-1.2,0.8-2.5,2.1-2.5H302c1.4,0,2.3,1.1,2.3,2.5v20.3c0,1.6-1.2,2.5-2.3,2.5s-2.3-0.9-2.3-2.5V32.9h-34.5
		v52.3h30.1v-9.8c0-1.6,1.1-2.5,2.3-2.5c1.1,0,2.3,0.9,2.3,2.5l0,23.9c0,1.6-1.1,2.5-2.1,2.5c-1.4,0-2.4-0.9-2.4-2.5v-9.1h-30.1
		v57.3h35.5v-20.5c0-1.8,1.2-2.7,2.3-2.7S305.3,125.3,305.3,127.1z M246.2,147.6h14.5V32.9h-14.5V147.6z"/>
	<path class="st1" d="M410.5,150.1c0,1.6-1.1,2.5-2.3,2.5h-28.7c-1.4,0-2.3-1.1-2.3-2.7V96.3h-23.9v51.3h4.7c1.4,0,2.1,1.1,2.1,2.5
		s-0.8,2.5-2.1,2.5h-36.3c-1.2,0-2.1-1.1-2.1-2.5s0.9-2.5,2.1-2.5h8V32.8h-7.1c-1.4,0-2.1-1.1-2.1-2.7c0-1.4,0.8-2.1,2.1-2.1h49.6
		c17.4,0,29.8,12.1,29.8,34.2c0,13.5-6.3,24.9-15.6,30.6c8.6,3.6,15,13.2,15,24.6v30.3h6.8C409.4,147.6,410.5,148.6,410.5,150.1z
		 M348.8,147.6V32.8h-14.5v114.8H348.8z M377.2,91V33.1c-1.7-0.2-3.3-0.4-5-0.4h-18.9v58.6h20.3C374.8,91.3,376,91.1,377.2,91z
		 M381.8,34.4v55.2c9.2-4.1,15.7-14.8,15.7-27.4C397.5,47.4,391.4,37.9,381.8,34.4z M381.8,147.6h15.1v-30.3
		c0-10.3-6.7-19.4-15.1-20.8V147.6z"/>
	<path class="st1" d="M514.2,150.1c0,1.6-1.1,2.5-2.3,2.5h-28.7c-1.4,0-2.3-1.1-2.3-2.7V96.3h-23.9v51.3h4.7c1.4,0,2.1,1.1,2.1,2.5
		s-0.8,2.5-2.1,2.5h-36.3c-1.2,0-2.1-1.1-2.1-2.5s0.9-2.5,2.1-2.5h8V32.8h-7.1c-1.4,0-2.1-1.1-2.1-2.7c0-1.4,0.8-2.1,2.1-2.1h49.6
		c17.4,0,29.8,12.1,29.8,34.2c0,13.5-6.3,24.9-15.6,30.6c8.6,3.6,15,13.2,15,24.6v30.3h6.8C513.1,147.6,514.2,148.6,514.2,150.1z
		 M452.5,147.6V32.8H438v114.8H452.5z M480.9,91V33.1c-1.7-0.2-3.3-0.4-5-0.4h-18.9v58.6h20.3C478.5,91.3,479.7,91.1,480.9,91z
		 M485.5,34.4v55.2c9.2-4.1,15.7-14.8,15.7-27.4C501.2,47.4,495.1,37.9,485.5,34.4z M485.5,147.6h15.1v-30.3
		c0-10.3-6.7-19.4-15.1-20.8V147.6z"/>
	<path class="st1" d="M631.3,90.3c0,38.8-21.9,65-54.7,65c-33,0-54.9-26.2-54.9-65c0-39,21.9-65.1,54.9-65.1
		C609.4,25.1,631.3,51.3,631.3,90.3z M545,138.9V41.5c-11.9,10.5-18.9,27.6-18.9,48.8C526.1,111.4,533.1,128.5,545,138.9z
		 M576.6,150.2c10.3,0,19.3-2.8,26.9-7.8V37.9c-7.6-5-16.6-7.8-26.9-7.8c-10.3,0-19.5,2.8-27.1,7.8v104.5
		C557.1,147.4,566.3,150.2,576.6,150.2z M627,90.3c0-21.4-7-38.4-18.9-48.8v97.4C620,128.5,627,111.4,627,90.3z"/>
	<path class="st1" d="M735.1,150.1c0,1.6-1.1,2.5-2.3,2.5h-28.7c-1.4,0-2.3-1.1-2.3-2.7V96.3h-23.9v51.3h4.7c1.4,0,2.1,1.1,2.1,2.5
		s-0.8,2.5-2.1,2.5h-36.3c-1.2,0-2.1-1.1-2.1-2.5s0.9-2.5,2.1-2.5h8V32.8h-7.1c-1.4,0-2.1-1.1-2.1-2.7c0-1.4,0.8-2.1,2.1-2.1h49.6
		c17.4,0,29.8,12.1,29.8,34.2c0,13.5-6.3,24.9-15.6,30.6c8.6,3.6,15,13.2,15,24.6v30.3h6.8C734,147.6,735.1,148.6,735.1,150.1z
		 M673.4,147.6V32.8h-14.5v114.8H673.4z M701.8,91V33.1c-1.7-0.2-3.3-0.4-5-0.4h-18.9v58.6h20.3C699.4,91.3,700.6,91.1,701.8,91z
		 M706.3,34.4v55.2c9.2-4.1,15.7-14.8,15.7-27.4C722.1,47.4,716,37.9,706.3,34.4z M706.3,147.6h15.1v-30.3
		c0-10.3-6.7-19.4-15.1-20.8V147.6z"/>
	<path class="st1" d="M746.2,43.3c-0.6-3.7-0.6-4.3-0.6-5.2c0-9.6,6.8-17.3,15.9-17.3s15.9,7.7,15.9,17.3c0,0.9-0.2,1.8-0.8,5.3
		l-11.3,67.1c-0.6,3.6-2.1,5.5-3.8,5.5c-1.5,0-3.2-2-3.8-5.5L746.2,43.3z M748.2,138.5c0-8,5.7-14.4,12.8-14.4
		c7,0,12.7,6.4,12.7,14.4c0,8.7-5.7,15.3-12.7,15.3C753.9,153.8,748.2,147.2,748.2,138.5z M772.2,43.4c0.5-3.2,0.6-4.4,0.6-5.5
		c0-7.5-5.6-12.1-11.3-12.1s-11.3,4.6-11.3,12.1c0,1.1,0.2,2.5,0.6,5.3l10.7,62.8L772.2,43.4z M769.5,138.5c0-5-3.9-9.4-8.5-9.4
		c-4.7,0-8.6,4.5-8.6,9.4c0,5.7,3.6,10.3,8.6,10.3C765.9,148.8,769.5,144.2,769.5,138.5z"/>
	<path class="st1" d="M833.6,66.8L804,107c2.4,2,5.4,3.2,8.8,3.2c7,0,12.7-5.3,14.4-12.8c0.3-1.6,1.2-2.5,2.6-2.3s2.3,1.2,1.8,3
		c-2,10.1-9.5,17.4-18.7,17.4c-10.7,0-19.3-10-19.3-22.8c0-5,1.1-9.6,3.6-13.3l31.7-45c-3.8-5-9.4-8-15.9-8
		c-10.1,0-18.6,7.8-20.4,18.7c-0.3,1.6-1.2,2.5-2.6,2.3c-1.4-0.2-2.3-1.2-2-2.8c2.1-13.7,12.4-23.5,24.9-23.5
		c14.2,0,25.4,12.6,25.4,29C838.3,56.3,837.2,62,833.6,66.8z M830.1,63.2c2.7-3.6,3.6-7.5,3.6-13.2c0-4.1-0.9-7.8-2.3-11l-31,43.8
		c-1.8,2.7-2.6,5.7-2.6,10c0,3.9,1.1,7.5,2.9,10.3L830.1,63.2z M825.3,138.5c0,8.7-5.7,15.3-12.7,15.3c-7.1,0-12.8-6.6-12.8-15.3
		c0-8,5.7-14.4,12.8-14.4C819.6,124.1,825.3,130.5,825.3,138.5z M821.1,138.5c0-5-3.9-9.4-8.5-9.4c-4.7,0-8.6,4.5-8.6,9.4
		c0,5.7,3.6,10.3,8.6,10.3C817.4,148.8,821.1,144.2,821.1,138.5z"/>
</g>
<rect class="st2" width="1080.3" height="188.5"/>
</svg>
