<?xml version="1.0" encoding="utf-8"?>
<!-- Generator: Adobe Illustrator 21.1.0, SVG Export Plug-In . SVG Version: 6.00 Build 0)  -->
<svg version="1.1" id="Layer_1" xmlns="http://www.w3.org/2000/svg" xmlns:xlink="http://www.w3.org/1999/xlink" x="0px" y="0px"
	 viewBox="0 0 390.8 82.7" style="enable-background:new 0 0 390.8 82.7;" xml:space="preserve">
<style type="text/css">
	.st0{enable-background:new    ;}
	.st1{fill:#FFFFFF;}
	.st2{display:none;enable-background:new    ;}
	.st3{display:inline;fill:#FFFFFF;}
</style>
<title>tagline</title>
<g class="st0">
	<path class="st1" d="M64.9,49c0,0.7-0.5,1.5-1.4,1.5h-2.6v16c0,0.7-0.2,1.3-0.5,1.9c-6.1,9.4-15.5,13.9-25.9,13.9
		c-19.6,0-32.7-15.6-32.7-39c0-23.3,13.1-39,32.6-39h0.1c6.3,0,15,2,19.3,8.1V6c0-1,0.7-1.5,1.4-1.5c0.6,0,1.4,0.5,1.4,1.5l0,17.5
		c0,1.1-0.7,1.6-1.4,1.6c-0.6,0-1.4-0.5-1.4-1.6v-2c0-11.5-12.2-14-19.3-14h-0.1c-6.1,0-11.7,1.7-16.2,4.8v62.4
		c4.5,3.1,10,4.8,16.3,4.8c4.4,0,8.6-0.9,12.4-2.7V50.5h-4.6c-0.8,0-1.3-0.7-1.3-1.5c0-0.7,0.5-1.5,1.3-1.5h21.3
		C64.4,47.6,64.9,48.3,64.9,49z"/>
	<path class="st1" d="M127.9,79.2c0,0.9-0.5,1.5-1.2,1.5h-23.2c-0.6,0-1.2-0.6-1.2-1.5c0-0.7,0.5-1.5,1.2-1.5h5.1l-4.8-18.1H77.6
		l-5,18.1h6.1c0.6,0,1.2,0.7,1.2,1.5c0,0.9-0.5,1.5-1.2,1.5H64.7c-0.6,0-1.2-0.6-1.2-1.5c0-0.7,0.5-1.5,1.2-1.5h5.1L88.6,9.1h-5.2
		c-0.6,0-1.2-0.6-1.2-1.5c0-0.9,0.5-1.5,1.2-1.5h19.8c0.7,0,1.3,0.4,1.5,1.4L123,77.7h3.7C127.4,77.7,127.9,78.4,127.9,79.2z
		 M103,56.6L91,10.7L78.4,56.6H103z"/>
	<path class="st1" d="M175.5,65.1v14c0,1-0.5,1.5-1.3,1.5h-40.5c-0.7,0-1.3-0.5-1.3-1.5c0-0.7,0.5-1.5,1.3-1.5h3.8V9.1h-3.3
		c-0.6,0-1.2-0.6-1.2-1.5c0-0.9,0.5-1.5,1.2-1.5h21.9c0.6,0,1.3,0.6,1.3,1.5c0,0.9-0.6,1.5-1.3,1.5h-4.5v68.5h21.2V65.1
		c0-0.7,0.6-1.4,1.4-1.4C174.9,63.7,175.5,64.4,175.5,65.1z"/>
	<path class="st1" d="M221.2,65.1v14c0,1-0.5,1.5-1.3,1.5h-40.5c-0.7,0-1.3-0.5-1.3-1.5c0-0.7,0.5-1.5,1.3-1.5h3.8V9.1H180
		c-0.6,0-1.2-0.6-1.2-1.5c0-0.9,0.5-1.5,1.2-1.5h21.9c0.6,0,1.3,0.6,1.3,1.5c0,0.9-0.6,1.5-1.3,1.5h-4.5v68.5h21.2V65.1
		c0-0.7,0.6-1.4,1.4-1.4C220.6,63.7,221.2,64.4,221.2,65.1z"/>
	<path class="st1" d="M267.4,65.4v13.7c0,0.9-0.6,1.5-1.4,1.5h-40.9c-0.8,0-1.3-0.7-1.3-1.5c0-0.9,0.5-1.5,1.3-1.5h4.2V9.1h-3.8
		c-0.8,0-1.3-0.6-1.3-1.5c0-0.7,0.5-1.5,1.3-1.5h39.9c0.8,0,1.4,0.6,1.4,1.5v12.1c0,1-0.7,1.5-1.4,1.5s-1.4-0.5-1.4-1.5V9.1h-20.6
		v31.3h18v-5.9c0-1,0.6-1.5,1.4-1.5c0.6,0,1.4,0.5,1.4,1.5v14.3c0,1-0.6,1.5-1.3,1.5c-0.8,0-1.4-0.5-1.4-1.5v-5.4h-18v34.3h21.2
		V65.4c0-1.1,0.7-1.6,1.4-1.6S267.4,64.4,267.4,65.4z"/>
	<path class="st1" d="M330.3,79.2c0,1-0.6,1.5-1.4,1.5h-17.2c-0.8,0-1.4-0.6-1.4-1.6V47h-14.3v30.7h2.8c0.8,0,1.3,0.6,1.3,1.5
		s-0.5,1.5-1.3,1.5h-21.7c-0.7,0-1.3-0.6-1.3-1.5s0.5-1.5,1.3-1.5h4.8V9h-4.2c-0.8,0-1.3-0.6-1.3-1.6c0-0.9,0.5-1.3,1.3-1.3h29.6
		c10.4,0,17.8,7.2,17.8,20.4c0,8.1-3.8,14.9-9.3,18.3c5.2,2.1,8.9,7.9,8.9,14.7v18.1h4.1C329.7,77.7,330.3,78.3,330.3,79.2z
		 M310.4,43.8V9.2c-1-0.1-2-0.2-3-0.2h-11.3v35h12.1C309,44,309.7,43.9,310.4,43.8z"/>
	<path class="st1" d="M389.6,7.6c0,1-0.5,1.5-1.4,1.5h-4.9l-16.5,38.2v30.3h4.9c0.8,0,1.4,0.7,1.4,1.5c0,0.9-0.5,1.5-1.4,1.5h-24
		c-0.6,0-1.3-0.6-1.3-1.5c0-0.7,0.6-1.5,1.3-1.5h5V50.2L332.9,9.1h-3.6c-0.6,0-1.3-0.5-1.3-1.5c0-0.9,0.6-1.5,1.3-1.5h23
		c0.8,0,1.4,0.6,1.4,1.5c0,1-0.5,1.5-1.4,1.5h-4l17.1,35l14.9-35h-6.1c-0.6,0-1.3-0.5-1.3-1.5c0-1,0.6-1.5,1.3-1.5h14
		C389.1,6.1,389.6,6.7,389.6,7.6z"/>
</g>
<text transform="matrix(0.8493 0 0 1 479.5146 82.6504)" style="display:none;fill:#FFFFFF;enable-background:new    ; font-family:'Cheque-Regular'; font-size:106.437px;">x</text>
<text transform="matrix(0.8493 0 0 1 538.9653 82.6504)" style="display:none;fill:#FFFFFF;enable-background:new    ; font-family:'Cheque-Black'; font-size:106.437px;"> developer</text>
</svg>
