<?xml version="1.0" encoding="utf-8"?>
<!-- Generator: Adobe Illustrator 21.1.0, SVG Export Plug-In . SVG Version: 6.00 Build 0)  -->
<svg version="1.1" id="Layer_1" xmlns="http://www.w3.org/2000/svg" xmlns:xlink="http://www.w3.org/1999/xlink" x="0px" y="0px"
	 viewBox="0 0 288.8 82.7" style="enable-background:new 0 0 288.8 82.7;" xml:space="preserve">
<style type="text/css">
	.st0{enable-background:new    ;}
	.st1{fill:#FFFFFF;}
	.st2{display:none;enable-background:new    ;}
	.st3{display:inline;fill:#FFFFFF;}
</style>
<title>tagline</title>
<g class="st0">
	<path class="st1" d="M41.8,60.9c0,10.6-7.9,20.3-19.8,20.3c-6.4,0-13.4-3.3-17.1-8.7v7.1c0,0.9-0.6,1.5-1.4,1.5s-1.4-0.6-1.4-1.5
		V60.9c0-0.9,0.6-1.5,1.4-1.5s1.4,0.6,1.4,1.5v3c0,7.5,8,14.2,17.1,14.2c5.4,0,9.9-2.2,12.8-5.6L9.3,36.7
		c-3.8-5.3-5.8-10.9-5.8-15.9c0-9.7,6.8-17.2,17.9-17.2c5.3,0,10.8,3,13.9,7.5V5.1c0-0.9,0.6-1.5,1.4-1.5s1.4,0.6,1.4,1.5v15.6
		c0,0.9-0.6,1.6-1.4,1.6s-1.4-0.7-1.4-1.6v-1.7c0-6.2-6.8-12.3-13.9-12.3c-4.5,0-8.1,1.4-10.8,3.6l26.8,37.5
		C40.5,52,41.8,56.4,41.8,60.9z M11.4,34.6L36.6,70c1.5-2.7,2.4-5.9,2.4-9c0-3.7-1.2-7.7-3.6-11.1L8.7,12.5
		c-1.5,2.3-2.4,5.2-2.4,8.3C6.3,25.2,8.1,29.8,11.4,34.6z"/>
	<path class="st1" d="M75.2,78.2c0,0.9-0.6,1.5-1.4,1.5H51c-0.6,0-1.3-0.6-1.3-1.5s0.6-1.5,1.3-1.5h4.5V8.1h-3.8
		c-0.7,0-1.4-0.6-1.4-1.5c0-0.9,0.6-1.5,1.4-1.5h21.7c0.7,0,1.4,0.6,1.4,1.5c0,0.9-0.6,1.5-1.4,1.5h-3.8v68.5h4.2
		C74.6,76.7,75.2,77.3,75.2,78.2z M58.3,76.7h8.7V8.1h-8.7V76.7z M108.8,76.7c0.7,0,1.4,0.6,1.4,1.5s-0.6,1.5-1.4,1.5H85.5
		c-0.7,0-1.3-0.6-1.3-1.5s0.5-1.5,1.3-1.5h4.4L71.1,41.8c-0.2-0.3-0.3-0.6-0.3-1c0-0.3,0.1-0.6,0.3-0.9L92.1,8.1h-5.8
		c-0.7,0-1.3-0.6-1.3-1.5c0-0.9,0.5-1.5,1.3-1.5h15.7c0.7,0,1.3,0.6,1.3,1.5c0,0.9-0.5,1.5-1.3,1.5h-6.6L81.1,29.9l25.1,46.7H108.8
		L108.8,76.7z M93.1,76.7h10L79.4,32.5L73.9,41L93.1,76.7z"/>
	<path class="st1" d="M139.6,78.2c0,1-0.5,1.5-1.3,1.5h-24.4c-0.7,0-1.3-0.5-1.3-1.5c0-0.9,0.5-1.5,1.3-1.5h4.9V8.1h-4.2
		c-0.9,0-1.4-0.6-1.4-1.5c0-0.9,0.5-1.5,1.4-1.5h22.8c0.7,0,1.3,0.6,1.3,1.5c0,0.9-0.5,1.5-1.3,1.5h-4.5v68.5h5.4
		C139.1,76.7,139.6,77.3,139.6,78.2z M121.5,76.7h8.7V8.1h-8.7V76.7z"/>
	<path class="st1" d="M192.6,64.1v14c0,1-0.5,1.5-1.3,1.5h-40.5c-0.7,0-1.3-0.5-1.3-1.5c0-0.7,0.5-1.5,1.3-1.5h3.8V8.1h-3.3
		c-0.6,0-1.2-0.6-1.2-1.5c0-0.9,0.5-1.5,1.2-1.5h21.9c0.6,0,1.3,0.6,1.3,1.5c0,0.9-0.6,1.5-1.3,1.5h-4.5v68.5h21.2V64.1
		c0-0.7,0.6-1.4,1.4-1.4C191.9,62.7,192.6,63.4,192.6,64.1z M157.3,76.7h8.7V8.1h-8.7V76.7z"/>
	<path class="st1" d="M238.2,64.1v14c0,1-0.5,1.5-1.3,1.5h-40.5c-0.7,0-1.3-0.5-1.3-1.5c0-0.7,0.5-1.5,1.3-1.5h3.8V8.1H197
		c-0.6,0-1.2-0.6-1.2-1.5c0-0.9,0.5-1.5,1.2-1.5h21.9c0.6,0,1.3,0.6,1.3,1.5c0,0.9-0.6,1.5-1.3,1.5h-4.5v68.5h21.2V64.1
		c0-0.7,0.6-1.4,1.4-1.4C237.6,62.7,238.2,63.4,238.2,64.1z M203,76.7h8.7V8.1H203V76.7z"/>
	<path class="st1" d="M282.1,60.9c0,10.6-7.9,20.3-19.8,20.3c-6.4,0-13.4-3.3-17.1-8.7v7.1c0,0.9-0.6,1.5-1.4,1.5
		c-0.7,0-1.4-0.6-1.4-1.5V60.9c0-0.9,0.6-1.5,1.4-1.5c0.7,0,1.4,0.6,1.4,1.5v3c0,7.5,8,14.2,17.1,14.2c5.4,0,9.9-2.2,12.8-5.6
		l-25.5-35.8c-3.8-5.3-5.8-10.9-5.8-15.9c0-9.7,6.8-17.2,17.9-17.2c5.3,0,10.8,3,13.9,7.5V5.1c0-0.9,0.6-1.5,1.4-1.5
		s1.4,0.6,1.4,1.5v15.6c0,0.9-0.6,1.6-1.4,1.6s-1.4-0.7-1.4-1.6v-1.7c0-6.2-6.8-12.3-13.9-12.3c-4.5,0-8.1,1.4-10.8,3.6l26.8,37.5
		C280.8,52,282.1,56.4,282.1,60.9z M251.7,34.6L276.9,70c1.5-2.7,2.4-5.9,2.4-9c0-3.7-1.2-7.7-3.6-11.1L249,12.5
		c-1.5,2.3-2.4,5.2-2.4,8.3C246.5,25.2,248.4,29.8,251.7,34.6z"/>
</g>
<text transform="matrix(0.8493 0 0 1 428.5146 82.6504)" style="display:none;fill:#FFFFFF;enable-background:new    ; font-family:'Cheque-Regular'; font-size:106.437px;">x</text>
<text transform="matrix(0.8493 0 0 1 487.9648 82.6504)" style="display:none;fill:#FFFFFF;enable-background:new    ; font-family:'Cheque-Black'; font-size:106.437px;"> developer</text>
</svg>
