<?xml version="1.0" encoding="utf-8"?>
<!-- Generator: Adobe Illustrator 21.1.0, SVG Export Plug-In . SVG Version: 6.00 Build 0)  -->
<svg version="1.1" id="Layer_1" xmlns="http://www.w3.org/2000/svg" xmlns:xlink="http://www.w3.org/1999/xlink" x="0px" y="0px"
	 viewBox="0 0 1080.3 188.5" style="enable-background:new 0 0 1080.3 188.5;" xml:space="preserve">
<style type="text/css">
	.st0{enable-background:new    ;}
	.st1{fill:#FFFFFF;}
</style>
<title>tagline</title>
<g class="st0">
	<path class="st1" d="M62.3,90.3c0,22.5-12.7,37.4-31.6,37.4H4.4c-0.7,0-1.3-0.5-1.3-1.5c0-0.9,0.5-1.5,1.3-1.5h5V56.1H5
		c-0.7,0-1.3-0.6-1.3-1.5c0-0.9,0.5-1.5,1.3-1.5h25.6C49.6,53.1,62.3,67.9,62.3,90.3z M30.6,124.7c6.1,0,11.6-1.7,16-4.9V61
		c-4.4-3.2-9.9-4.9-16-4.9h-7.1v68.5H30.6z"/>
	<path class="st1" d="M113.5,112.4v13.7c0,0.9-0.6,1.5-1.4,1.5H71.2c-0.8,0-1.3-0.7-1.3-1.5c0-0.9,0.5-1.5,1.3-1.5h4.2V56.1h-3.8
		c-0.8,0-1.3-0.6-1.3-1.5c0-0.7,0.5-1.5,1.3-1.5h39.9c0.8,0,1.4,0.6,1.4,1.5v12.1c0,1-0.7,1.5-1.4,1.5s-1.4-0.5-1.4-1.5V56.1H89.6
		v31.3h18v-5.9c0-1,0.6-1.5,1.4-1.5c0.6,0,1.4,0.5,1.4,1.5v14.3c0,1-0.6,1.5-1.3,1.5c-0.8,0-1.4-0.5-1.4-1.5v-5.4h-18v34.3h21.2
		v-12.2c0-1.1,0.7-1.6,1.4-1.6S113.5,111.4,113.5,112.4z"/>
	<path class="st1" d="M160.6,108.9c0,10.6-7.9,20.3-19.8,20.3c-6.4,0-13.4-3.3-17.1-8.7v7.1c0,0.9-0.6,1.5-1.4,1.5s-1.4-0.6-1.4-1.5
		v-18.7c0-0.9,0.6-1.5,1.4-1.5s1.4,0.6,1.4,1.5v3c0,7.5,8,14.2,17.1,14.2c5.4,0,9.9-2.2,12.8-5.6l-25.5-35.8
		c-3.8-5.3-5.8-10.9-5.8-15.9c0-9.7,6.8-17.2,17.9-17.2c5.3,0,10.8,3,13.9,7.5v-5.9c0-0.9,0.6-1.5,1.4-1.5s1.4,0.6,1.4,1.5v15.6
		c0,0.9-0.6,1.6-1.4,1.6s-1.4-0.7-1.4-1.6v-1.7c0-6.2-6.8-12.3-13.9-12.3c-4.5,0-8.1,1.4-10.8,3.6l26.8,37.5
		C159.4,100,160.6,104.4,160.6,108.9z"/>
	<path class="st1" d="M195.5,126.2c0,1-0.5,1.5-1.3,1.5h-24.4c-0.7,0-1.3-0.5-1.3-1.5c0-0.9,0.5-1.5,1.3-1.5h4.9V56.1h-4.2
		c-0.9,0-1.4-0.6-1.4-1.5c0-0.9,0.5-1.5,1.4-1.5h22.8c0.7,0,1.3,0.6,1.3,1.5c0,0.9-0.5,1.5-1.3,1.5h-4.5v68.5h5.4
		C195,124.7,195.5,125.3,195.5,126.2z"/>
	<path class="st1" d="M266.4,96c0,0.7-0.5,1.5-1.4,1.5h-2.6v16c0,0.7-0.2,1.3-0.5,1.9c-6.1,9.4-15.5,13.9-25.9,13.9
		c-19.6,0-32.7-15.6-32.7-39s13.1-39,32.6-39h0.1c6.3,0,15,2,19.3,8.1V53c0-1,0.7-1.5,1.4-1.5c0.6,0,1.4,0.5,1.4,1.5l0,17.5
		c0,1.1-0.7,1.6-1.4,1.6c-0.6,0-1.4-0.5-1.4-1.6v-2c0-11.5-12.2-14-19.3-14h-0.1c-6.1,0-11.7,1.7-16.2,4.8v62.4
		c4.5,3.1,10,4.8,16.3,4.8c4.4,0,8.6-0.9,12.4-2.7V97.5h-4.6c-0.8,0-1.3-0.7-1.3-1.5c0-0.7,0.5-1.5,1.3-1.5H265
		C265.9,94.6,266.4,95.3,266.4,96z"/>
	<path class="st1" d="M329.5,54.6c0,0.9-0.5,1.5-1.3,1.5h-6.1v69.9c0,2-0.5,3.2-1.3,3.2s-1.6-0.6-2.4-2l-38.8-65.9v63.3h8.2
		c0.7,0,1.4,0.6,1.4,1.5c0,1-0.6,1.5-1.4,1.5h-16.6c-0.6,0-1.3-0.5-1.3-1.5c0-0.9,0.6-1.5,1.3-1.5h5.7V56.1h-5
		c-0.6,0-1.2-0.6-1.2-1.5c0-1,0.5-1.5,1.2-1.5h19.3c0.3,0,0.6,0.1,0.8,0.4l27.3,46.5v-44h-6c-0.8,0-1.4-0.6-1.4-1.5
		c0-0.9,0.5-1.5,1.4-1.5h14.8C328.9,53.1,329.5,53.8,329.5,54.6z"/>
	<path class="st1" d="M380.5,112.4v13.7c0,0.9-0.6,1.5-1.4,1.5h-40.9c-0.8,0-1.3-0.7-1.3-1.5c0-0.9,0.5-1.5,1.3-1.5h4.2V56.1h-3.8
		c-0.8,0-1.3-0.6-1.3-1.5c0-0.7,0.5-1.5,1.3-1.5h39.9c0.8,0,1.4,0.6,1.4,1.5v12.1c0,1-0.7,1.5-1.4,1.5s-1.4-0.5-1.4-1.5V56.1h-20.6
		v31.3h18v-5.9c0-1,0.6-1.5,1.4-1.5c0.6,0,1.4,0.5,1.4,1.5v14.3c0,1-0.6,1.5-1.3,1.5c-0.8,0-1.4-0.5-1.4-1.5v-5.4h-18v34.3h21.2
		v-12.2c0-1.1,0.7-1.6,1.4-1.6S380.5,111.4,380.5,112.4z"/>
	<path class="st1" d="M443.4,126.2c0,1-0.6,1.5-1.4,1.5h-17.2c-0.8,0-1.4-0.6-1.4-1.6V94h-14.3v30.7h2.8c0.8,0,1.3,0.6,1.3,1.5
		s-0.5,1.5-1.3,1.5h-21.7c-0.7,0-1.3-0.6-1.3-1.5s0.5-1.5,1.3-1.5h4.8V56h-4.2c-0.8,0-1.3-0.6-1.3-1.6c0-0.9,0.5-1.3,1.3-1.3h29.6
		c10.4,0,17.8,7.2,17.8,20.4c0,8.1-3.8,14.9-9.3,18.3c5.2,2.1,8.9,7.9,8.9,14.7v18.1h4.1C442.7,124.7,443.4,125.3,443.4,126.2z
		 M423.5,90.8V56.2c-1-0.1-2-0.2-3-0.2h-11.3v35h12.1C422,91,422.8,90.9,423.5,90.8z"/>
</g>
<g class="st0">
	<path class="st1" d="M536.6,126.2c0,0.7-0.5,1.5-1.2,1.5h-22.6c-0.6,0-1.3-0.7-1.3-1.5c0-0.9,0.6-1.5,1.3-1.5h3.5l-13.6-28.9
		l-14.5,28.9h6.3c0.7,0,1.2,0.6,1.2,1.5c0,0.7-0.5,1.5-1.2,1.5h-15.1c-1,0-1.4-0.7-1.4-1.5c0-0.9,0.5-1.5,1.4-1.5h5.6l16.1-32.1
		l-17-36.4h-3.7c-0.7,0-1.3-0.7-1.3-1.5c0-0.9,0.5-1.5,1.3-1.5h23.6c0.5,0,1.2,0.6,1.2,1.5c0,0.7-0.6,1.5-1.2,1.5h-4l10.4,22.1
		l11.7-22.1h-6.4c-0.6,0-1.3-0.5-1.3-1.5c0-1.1,0.6-1.5,1.3-1.5h14.6c0.8,0,1.4,0.4,1.4,1.5c0,1-0.7,1.5-1.4,1.5h-5.1l-13.3,25.2
		l20.3,43.3h3C536.1,124.7,536.6,125.3,536.6,126.2z M519.5,124.7h9.9l-32.3-68.5h-9.8L519.5,124.7z"/>
</g>
<g class="st0">
	<path class="st1" d="M632.9,90.3c0,22.5-12.7,37.4-31.6,37.4H575c-0.7,0-1.3-0.5-1.3-1.5c0-0.9,0.5-1.5,1.3-1.5h5V56.1h-4.3
		c-0.7,0-1.3-0.6-1.3-1.5c0-0.9,0.5-1.5,1.3-1.5h25.6C620.2,53.1,632.9,67.9,632.9,90.3z M601.2,124.7c6.1,0,11.6-1.7,16-4.9V61
		c-4.4-3.2-9.9-4.9-16-4.9h-7.1v68.5H601.2z"/>
	<path class="st1" d="M684.1,112.4v13.7c0,0.9-0.6,1.5-1.4,1.5h-40.9c-0.8,0-1.3-0.7-1.3-1.5c0-0.9,0.5-1.5,1.3-1.5h4.2V56.1h-3.8
		c-0.8,0-1.3-0.6-1.3-1.5c0-0.7,0.5-1.5,1.3-1.5h39.9c0.8,0,1.4,0.6,1.4,1.5v12.1c0,1-0.7,1.5-1.4,1.5s-1.4-0.5-1.4-1.5V56.1h-20.6
		v31.3h18v-5.9c0-1,0.6-1.5,1.4-1.5c0.6,0,1.4,0.5,1.4,1.5v14.3c0,1-0.6,1.5-1.3,1.5c-0.8,0-1.4-0.5-1.4-1.5v-5.4h-18v34.3h21.2
		v-12.2c0-1.1,0.7-1.6,1.4-1.6S684.1,111.4,684.1,112.4z"/>
	<path class="st1" d="M750.5,54.5c0,0.9-0.5,1.6-1.4,1.6h-5.1l-23.9,72.2c-0.2,0.6-0.6,1-1.2,1c-0.5,0-1-0.3-1.3-1l-25.5-72.1h-3.6
		c-0.8,0-1.4-0.6-1.4-1.6c0-0.9,0.5-1.4,1.4-1.4h23c0.7,0,1.3,0.6,1.3,1.4c0,0.9-0.5,1.6-1.3,1.6H708l17.2,48.3l16.1-48.4h-6.1
		c-0.6,0-1.3-0.7-1.3-1.6c0-0.9,0.6-1.4,1.3-1.4h14C749.9,53.1,750.5,53.7,750.5,54.5z"/>
	<path class="st1" d="M793.9,112.4v13.7c0,0.9-0.6,1.5-1.4,1.5h-40.9c-0.8,0-1.3-0.7-1.3-1.5c0-0.9,0.5-1.5,1.3-1.5h4.2V56.1H752
		c-0.8,0-1.3-0.6-1.3-1.5c0-0.7,0.5-1.5,1.3-1.5h39.9c0.8,0,1.4,0.6,1.4,1.5v12.1c0,1-0.7,1.5-1.4,1.5s-1.4-0.5-1.4-1.5V56.1h-20.6
		v31.3h18v-5.9c0-1,0.6-1.5,1.4-1.5c0.6,0,1.4,0.5,1.4,1.5v14.3c0,1-0.6,1.5-1.3,1.5c-0.8,0-1.4-0.5-1.4-1.5v-5.4h-18v34.3h21.2
		v-12.2c0-1.1,0.7-1.6,1.4-1.6S793.9,111.4,793.9,112.4z"/>
	<path class="st1" d="M845.5,112.1v14c0,1-0.5,1.5-1.3,1.5h-40.5c-0.7,0-1.3-0.5-1.3-1.5c0-0.7,0.5-1.5,1.3-1.5h3.8V56.1h-3.3
		c-0.6,0-1.2-0.6-1.2-1.5c0-0.9,0.5-1.5,1.2-1.5h21.9c0.6,0,1.3,0.6,1.3,1.5c0,0.9-0.6,1.5-1.3,1.5h-4.5v68.5h21.2v-12.6
		c0-0.7,0.6-1.4,1.4-1.4C844.9,110.7,845.5,111.4,845.5,112.1z"/>
	<path class="st1" d="M912.3,90.4c0,23.2-13.1,38.8-32.7,38.8c-19.7,0-32.8-15.6-32.8-38.8c0-23.3,13.1-39,32.8-39
		C899.2,51.4,912.3,67.1,912.3,90.4z M879.6,126.3c6.1,0,11.6-1.7,16.1-4.7V59.1c-4.5-3-9.9-4.7-16.1-4.7s-11.7,1.7-16.2,4.7v62.5
		C867.9,124.6,873.4,126.3,879.6,126.3z"/>
	<path class="st1" d="M966.3,75.2c0,13.4-6.6,22.2-18,22.2h-8.7v27.2h4.4c0.7,0,1.3,0.5,1.3,1.5c0,1-0.5,1.5-1.3,1.5h-22.9
		c-0.7,0-1.3-0.5-1.3-1.5c0-1,0.5-1.5,1.3-1.5h4.3V56.1h-3.5c-0.8,0-1.4-0.5-1.4-1.4c0-1,0.5-1.6,1.4-1.6h26.3
		C959.7,53.1,966.3,62,966.3,75.2z M948.4,94.4c1.4,0,2.6-0.1,3.8-0.4V56.6c-1.2-0.3-2.4-0.4-3.8-0.4h-8.7v38.3H948.4z"/>
	<path class="st1" d="M1016.2,112.4v13.7c0,0.9-0.6,1.5-1.4,1.5h-40.9c-0.8,0-1.3-0.7-1.3-1.5c0-0.9,0.5-1.5,1.3-1.5h4.2V56.1h-3.8
		c-0.8,0-1.3-0.6-1.3-1.5c0-0.7,0.5-1.5,1.3-1.5h39.9c0.8,0,1.4,0.6,1.4,1.5v12.1c0,1-0.7,1.5-1.4,1.5s-1.4-0.5-1.4-1.5V56.1h-20.6
		v31.3h18v-5.9c0-1,0.6-1.5,1.4-1.5c0.6,0,1.4,0.5,1.4,1.5v14.3c0,1-0.6,1.5-1.3,1.5c-0.8,0-1.4-0.5-1.4-1.5v-5.4h-18v34.3h21.2
		v-12.2c0-1.1,0.7-1.6,1.4-1.6S1016.2,111.4,1016.2,112.4z"/>
	<path class="st1" d="M1079.2,126.2c0,1-0.6,1.5-1.4,1.5h-17.2c-0.8,0-1.4-0.6-1.4-1.6V94H1045v30.7h2.8c0.8,0,1.3,0.6,1.3,1.5
		s-0.5,1.5-1.3,1.5h-21.7c-0.7,0-1.3-0.6-1.3-1.5s0.5-1.5,1.3-1.5h4.8V56h-4.2c-0.8,0-1.3-0.6-1.3-1.6c0-0.9,0.5-1.3,1.3-1.3h29.6
		c10.4,0,17.8,7.2,17.8,20.4c0,8.1-3.8,14.9-9.3,18.3c5.2,2.1,8.9,7.9,8.9,14.7v18.1h4.1C1078.5,124.7,1079.2,125.3,1079.2,126.2z
		 M1059.3,90.8V56.2c-1-0.1-2-0.2-3-0.2H1045v35h12.1C1057.8,91,1058.5,90.9,1059.3,90.8z"/>
</g>
</svg>
