<?xml version="1.0" encoding="utf-8"?>
<!-- Generator: Adobe Illustrator 21.1.0, SVG Export Plug-In . SVG Version: 6.00 Build 0)  -->
<svg version="1.1" id="Layer_1" xmlns="http://www.w3.org/2000/svg" xmlns:xlink="http://www.w3.org/1999/xlink" x="0px" y="0px"
	 viewBox="0 0 1080.3 188.5" style="enable-background:new 0 0 1080.3 188.5;" xml:space="preserve">
<style type="text/css">
	.st0{enable-background:new    ;}
	.st1{fill:#FFFFFF;}
	.st2{display:none;stroke:#FFFFFF;stroke-miterlimit:10;}
</style>
<title>tagline</title>
<g class="st0">
	<path class="st1" d="M178.3,30.5v21.9c0,1.4-1.1,2.7-2.3,2.7s-2.3-1.2-2.3-2.7V32.9h-25.9v114.6h8.6c1.1,0,2.1,1.1,2.1,2.5
		s-1.1,2.5-2.1,2.5H116c-1.2,0-2.3-1.1-2.3-2.5s1.1-2.5,2.3-2.5h8.3V32.9H99.1v19.4c0,1.4-0.9,2.7-2.3,2.7c-1.2,0-2.3-1.2-2.3-2.7
		V30.5c0-1.4,1.1-2.5,2.3-2.5H176C177.2,28,178.3,29,178.3,30.5z M143.4,32.9h-14.5v114.6h14.5V32.9z"/>
	<path class="st1" d="M290.6,150.1c0,1.4-1.1,2.5-2.3,2.5h-39.8c-1.2,0-2.3-1.1-2.3-2.5s1.1-2.5,2.3-2.5h8.6V90.1h-38.4v57.5h8.9
		c1.2,0,2.1,1.1,2.1,2.5c0,1.6-0.9,2.5-2.1,2.5h-40.7c-1.2,0-2.1-0.9-2.1-2.5c0-1.4,0.9-2.5,2.1-2.5h8.2V32.9h-6.7
		c-1.5,0-2.4-1.1-2.4-2.5c0-1.4,0.9-2.5,2.4-2.5h37.6c1.2,0,2.1,1.1,2.1,2.5c0,1.4-0.9,2.5-2.1,2.5h-7.4v52.2h38.4V32.9H251
		c-1.2,0-2.3-1.1-2.3-2.5c0-1.4,1.1-2.5,2.3-2.5h36.7c1.2,0,2.3,1.1,2.3,2.5c0,1.4-1.1,2.5-2.3,2.5h-7v114.6h7.6
		C289.6,147.6,290.6,148.6,290.6,150.1z M214.3,147.6V32.9h-14.5v114.6H214.3z M261.7,147.6h14.5V32.9h-14.5V147.6z"/>
	<path class="st1" d="M401,150.1c0,1.4-0.9,2.5-2,2.5h-38.9c-1.1,0-2-1.1-2-2.5c0-1.2,0.9-2.5,2-2.5h8.5l-8-30.3h-43.8l-8.3,30.3
		h10.1c1.1,0,2,1.2,2,2.5c0,1.4-0.9,2.5-2,2.5h-23.3c-1.1,0-2-1.1-2-2.5c0-1.2,0.9-2.5,2-2.5h8.5l31.4-114.6h-8.8
		c-1.1,0-2-1.1-2-2.5c0-1.4,0.9-2.5,2-2.5h33.1c1.2,0,2.1,0.7,2.6,2.3l30.7,117.3h6.2C400.1,147.6,401,148.8,401,150.1z
		 M359.4,112.3l-20.1-76.7l-21.2,76.7H359.4z M373.3,147.6h14.8L358.2,32.9h-14.8L373.3,147.6z"/>
	<path class="st1" d="M505.6,30.5c0,1.4-0.9,2.5-2.1,2.5h-10.3v116.9c0,3.4-0.8,5.3-2.1,5.3c-1.4,0-2.7-1.1-4.1-3.4L422.1,41.7
		v105.9h13.8c1.2,0,2.3,1.1,2.3,2.5c0,1.6-1.1,2.5-2.3,2.5h-27.8c-1.1,0-2.1-0.9-2.1-2.5c0-1.4,1.1-2.5,2.1-2.5h9.5V32.9h-8.3
		c-1.1,0-2-1.1-2-2.5c0-1.6,0.9-2.5,2-2.5h32.4c0.5,0,1.1,0.2,1.4,0.7l45.7,77.8V32.9h-10c-1.4,0-2.3-1.1-2.3-2.5
		c0-1.4,0.9-2.5,2.3-2.5h24.8C504.7,28,505.6,29,505.6,30.5z M488.7,145.4v-29.9l-48.5-82.6h-17.7L488.7,145.4z"/>
	<path class="st1" d="M560.6,150.1c0,1.4-1.1,2.5-2.3,2.5h-38.2c-1.1,0-2.1-1.1-2.1-2.5s1.1-2.5,2.1-2.5h7.6V32.9h-6.3
		c-1.2,0-2.3-1.1-2.3-2.5c0-1.4,1.1-2.5,2.3-2.5h36.3c1.2,0,2.3,1.1,2.3,2.5c0,1.4-1.1,2.5-2.3,2.5h-6.3v114.6h7.1
		C559.6,147.6,560.6,148.6,560.6,150.1z M532.2,147.6h14.5V32.9h-14.5V147.6z M619,150.1c0,1.4-1.1,2.5-2.3,2.5h-39
		c-1.2,0-2.1-1.1-2.1-2.5s0.9-2.5,2.1-2.5h7.4l-31.4-58.4c-0.3-0.5-0.5-1.1-0.5-1.6s0.2-1.1,0.5-1.4l35.2-53.2h-9.7
		c-1.2,0-2.1-1.1-2.1-2.5c0-1.4,0.9-2.5,2.1-2.5h26.3c1.2,0,2.1,1.1,2.1,2.5c0,1.4-0.9,2.5-2.1,2.5h-11l-24,36.5l42,78.1h4.2
		C617.9,147.6,619,148.6,619,150.1z M590.5,147.6h16.8l-39.8-73.9l-9.2,14.2L590.5,147.6z"/>
	<path class="st1" d="M768.5,30.5c0,1.6-0.9,2.5-2.3,2.5H758l-27.5,63.9v50.7h8.2c1.4,0,2.3,1.2,2.3,2.5c0,1.4-0.9,2.5-2.3,2.5
		h-40.1c-1.1,0-2.1-1.1-2.1-2.5c0-1.2,1.1-2.5,2.1-2.5h8.3v-45.9l-33.3-68.7h-6c-1.1,0-2.1-0.9-2.1-2.5c0-1.4,1.1-2.5,2.1-2.5H706
		c1.4,0,2.3,1.1,2.3,2.5c0,1.6-0.9,2.5-2.3,2.5h-6.7L728,91.5l24.9-58.6h-10.1c-1.1,0-2.1-0.9-2.1-2.5c0-1.6,1.1-2.5,2.1-2.5h23.4
		C767.6,28,768.5,28.9,768.5,30.5z M726,147.6V98.8l-31.7-65.9H679l32.5,67.5v47.2H726z"/>
	<path class="st1" d="M873.8,90.3c0,38.8-21.9,65-54.7,65c-33,0-54.9-26.2-54.9-65c0-39,21.9-65.1,54.9-65.1
		C851.9,25.1,873.8,51.3,873.8,90.3z M787.5,138.9V41.5c-11.9,10.5-18.9,27.6-18.9,48.8C768.6,111.4,775.6,128.5,787.5,138.9z
		 M819.1,150.2c10.3,0,19.3-2.8,26.9-7.8V37.9c-7.6-5-16.6-7.8-26.9-7.8s-19.5,2.8-27.1,7.8v104.5
		C799.6,147.4,808.8,150.2,819.1,150.2z M869.5,90.3c0-21.4-7-38.4-18.9-48.8v97.4C862.5,128.5,869.5,111.4,869.5,90.3z"/>
	<path class="st1" d="M981.5,28c1.1,0,2.1,0.9,2.1,2.3s-1.1,2.7-2.1,2.7h-6.2v72.6c0,27.4-19,49.7-42.3,49.7
		c-23.3,0-42.3-22.2-42.3-49.7V32.9h-7.1c-1.2,0-2.1-1.1-2.1-2.5c0-1.4,0.9-2.5,2.1-2.5h39.2c1.2,0,2.1,1.1,2.1,2.5
		c0,1.4-0.9,2.5-2.1,2.5h-7v112c5.1,3.2,11,5,17.2,5c6.2,0,12.1-1.8,17.2-5v-112h-7c-1.2,0-2.4-1.2-2.4-2.7s1.2-2.3,2.4-2.3H981.5
		L981.5,28z M911.2,141.7V32.9h-16v72.6C895.2,120.5,901.5,133.7,911.2,141.7z M970.7,32.9h-16v108.8c9.7-8,16-21.2,16-36.1V32.9z"
		/>
</g>
<rect class="st2" width="1080.3" height="188.5"/>
</svg>
