<?xml version="1.0" encoding="utf-8"?>
<!-- Generator: Adobe Illustrator 21.1.0, SVG Export Plug-In . SVG Version: 6.00 Build 0)  -->
<svg version="1.1" id="Layer_1" xmlns="http://www.w3.org/2000/svg" xmlns:xlink="http://www.w3.org/1999/xlink" x="0px" y="0px"
	 viewBox="0 0 500.8 114.1" style="enable-background:new 0 0 500.8 114.1;" xml:space="preserve">
<style type="text/css">
	.st0{enable-background:new    ;}
	.st1{fill:#FFFFFF;}
</style>
<title>what-i-do</title>
<g class="st0">
	<path class="st1" d="M93.6,17.4c0,0.7-0.5,1.5-1.3,1.5h-4.9L66.3,91c-0.2,0.7-0.7,1.1-1.2,1.1c-0.5,0-0.9-0.3-1.2-1.1L49.1,48
		l-11,28.3L32.3,91c-0.3,0.7-0.6,1.1-1.1,1.1S30.3,91.7,30,91L5.3,18.9H1.6c-0.7,0-1.2-0.7-1.2-1.5c0-0.9,0.5-1.5,1.2-1.5H24
		c0.7,0,1.4,0.6,1.4,1.5c0,0.7-0.6,1.5-1.4,1.5h-2.6l16.9,49.4l9.7-24.1l-8.8-25.3h-3.6c-0.7,0-1.3-0.7-1.3-1.5
		c0-0.9,0.5-1.5,1.3-1.5h22.7c0.7,0,1.4,0.7,1.4,1.6c0,0.7-0.6,1.4-1.4,1.4h-3.1l15.9,46l13.5-46h-5.9c-0.6,0-1.3-0.7-1.3-1.5
		c0-0.9,0.6-1.5,1.3-1.5h13.7C93.1,16,93.6,16.6,93.6,17.4z M36.7,72.3L18.5,18.9H8.2l23,67.1L36.7,72.3z M69.8,69.5L52.3,18.9H42.1
		l23,66.6L69.8,69.5z"/>
</g>
<g class="st0">
	<path class="st1" d="M156.7,89c0,0.9-0.6,1.5-1.4,1.5h-23.8c-0.7,0-1.4-0.6-1.4-1.5s0.6-1.5,1.4-1.5h5.2V53.1h-23v34.4h5.3
		c0.7,0,1.3,0.6,1.3,1.5c0,1-0.5,1.5-1.3,1.5H94.7c-0.7,0-1.3-0.5-1.3-1.5c0-0.9,0.5-1.5,1.3-1.5h4.9V18.9h-4
		c-0.9,0-1.4-0.6-1.4-1.5s0.5-1.5,1.4-1.5h22.5c0.7,0,1.3,0.6,1.3,1.5s-0.5,1.5-1.3,1.5h-4.4v31.2h23V18.9H133
		c-0.7,0-1.4-0.6-1.4-1.5s0.6-1.5,1.4-1.5h22c0.7,0,1.4,0.6,1.4,1.5s-0.6,1.5-1.4,1.5h-4.2v68.6h4.5C156.1,87.5,156.7,88.1,156.7,89
		z M111,87.5V18.9h-8.7v68.6H111z M139.4,87.5h8.7V18.9h-8.7V87.5z"/>
</g>
<g class="st0">
	<path class="st1" d="M222.7,89c0,0.9-0.5,1.5-1.2,1.5h-23.3c-0.6,0-1.2-0.6-1.2-1.5c0-0.7,0.5-1.5,1.2-1.5h5.1l-4.8-18.1h-26.2
		l-5,18.1h6.1c0.6,0,1.2,0.7,1.2,1.5c0,0.9-0.5,1.5-1.2,1.5h-13.9c-0.6,0-1.2-0.6-1.2-1.5c0-0.7,0.5-1.5,1.2-1.5h5.1l18.8-68.6h-5.2
		c-0.6,0-1.2-0.6-1.2-1.5s0.5-1.5,1.2-1.5h19.8c0.7,0,1.3,0.4,1.5,1.4l18.4,70.1h3.7C222.2,87.5,222.7,88.2,222.7,89z M197.9,66.4
		l-12-45.9l-12.7,45.9H197.9z M206.2,87.5h8.9l-17.9-68.6h-8.9L206.2,87.5z"/>
</g>
<g class="st0">
	<path class="st1" d="M271.9,17.4v13.1c0,0.9-0.6,1.6-1.4,1.6c-0.7,0-1.4-0.7-1.4-1.6V18.9h-15.5v68.6h5.2c0.6,0,1.3,0.6,1.3,1.5
		s-0.6,1.5-1.3,1.5h-24.2c-0.7,0-1.4-0.6-1.4-1.5s0.6-1.5,1.4-1.5h5V18.9h-15.1v11.6c0,0.9-0.5,1.6-1.4,1.6c-0.7,0-1.4-0.7-1.4-1.6
		V17.4c0-0.9,0.6-1.5,1.4-1.5h47.4C271.2,16,271.9,16.6,271.9,17.4z M251,18.9h-8.7v68.6h8.7V18.9z"/>
	<path class="st1" d="M331.2,89c0,1-0.5,1.5-1.3,1.5h-24.4c-0.7,0-1.3-0.5-1.3-1.5c0-0.9,0.5-1.5,1.3-1.5h4.9V18.9h-4.2
		c-0.9,0-1.4-0.6-1.4-1.5s0.5-1.5,1.4-1.5H329c0.7,0,1.3,0.6,1.3,1.5s-0.5,1.5-1.3,1.5h-4.5v68.6h5.4
		C330.7,87.5,331.2,88.1,331.2,89z M313.1,87.5h8.7V18.9h-8.7V87.5z"/>
	<path class="st1" d="M427.5,53.1c0,22.5-12.7,37.4-31.7,37.4h-26.2c-0.7,0-1.3-0.5-1.3-1.5c0-0.9,0.5-1.5,1.3-1.5h5V18.9h-4.3
		c-0.7,0-1.3-0.6-1.3-1.5s0.5-1.5,1.3-1.5h25.6C414.8,16,427.5,30.8,427.5,53.1z M377.3,87.5h8.7V18.9h-8.7V87.5z M395.8,87.5
		c6.2,0,11.6-1.7,16-4.9V23.8c-4.4-3.2-9.9-4.9-16-4.9h-7.1v68.6H395.8z M424.8,53.1c0-11.6-3.8-21.1-10.2-27.1v54.4
		C421,74.3,424.8,64.7,424.8,53.1z"/>
	<path class="st1" d="M498.5,53.2c0,23.2-13.1,38.9-32.7,38.9c-19.7,0-32.8-15.6-32.8-38.9c0-23.3,13.1-39,32.8-39
		C485.4,14.3,498.5,29.9,498.5,53.2z M446.8,82.3V24c-7.1,6.3-11.3,16.5-11.3,29.2S439.7,76.1,446.8,82.3z M465.8,89.1
		c6.2,0,11.6-1.7,16.1-4.7V21.9c-4.5-3-10-4.7-16.1-4.7c-6.2,0-11.7,1.7-16.2,4.7v62.5C454.1,87.4,459.6,89.1,465.8,89.1z
		 M495.9,53.2c0-12.8-4.2-23-11.3-29.2v58.2C491.7,76.1,495.9,65.9,495.9,53.2z"/>
</g>
</svg>
